<?xml version="1.0" encoding="UTF-8"?>
<svg id="Calque_1" data-name="Calque 1" xmlns="http://www.w3.org/2000/svg" xmlns:xlink="http://www.w3.org/1999/xlink" viewBox="0 0 750.01 789.66">
  <defs>
    <style>
      .cls-1 {
        fill: url(#Dégradé_sans_nom_13);
      }

      .cls-1, .cls-2, .cls-3, .cls-4, .cls-5, .cls-6, .cls-7, .cls-8, .cls-9, .cls-10, .cls-11, .cls-12, .cls-13, .cls-14 {
        stroke-width: 0px;
      }

      .cls-2 {
        fill: url(#Dégradé_sans_nom_3);
      }

      .cls-3 {
        fill: url(#Dégradé_sans_nom_9);
      }

      .cls-4 {
        fill: url(#Dégradé_sans_nom_12);
      }

      .cls-5 {
        fill: url(#Dégradé_sans_nom_8);
      }

      .cls-6 {
        fill: url(#Dégradé_sans_nom_7);
      }

      .cls-7 {
        fill: url(#Dégradé_sans_nom_4);
      }

      .cls-8 {
        fill: url(#Dégradé_sans_nom_11);
      }

      .cls-9 {
        fill: url(#Dégradé_sans_nom_2);
      }

      .cls-10 {
        fill: url(#Dégradé_sans_nom_5);
      }

      .cls-11 {
        fill: url(#Dégradé_sans_nom_10);
      }

      .cls-12 {
        fill: url(#Dégradé_sans_nom);
      }

      .cls-13 {
        fill: #d2e2ca;
      }

      .cls-14 {
        fill: url(#Dégradé_sans_nom_6);
      }
    </style>
    <linearGradient id="Dégradé_sans_nom" data-name="Dégradé sans nom" x1="375" y1="566.12" x2="375" y2="181.91" gradientTransform="translate(0 564) scale(1 -1)" gradientUnits="userSpaceOnUse">
      <stop offset="0" stop-color="#5bab9c"/>
      <stop offset=".16" stop-color="#7db9a3"/>
      <stop offset=".37" stop-color="#a3c9ac"/>
      <stop offset=".53" stop-color="#bad3b2"/>
      <stop offset=".64" stop-color="#c3d7b4"/>
      <stop offset="1" stop-color="#e8efe2"/>
    </linearGradient>
    <linearGradient id="Dégradé_sans_nom_2" data-name="Dégradé sans nom 2" x1="375" y1="566.12" x2="375" y2="181.91" gradientTransform="translate(0 564) scale(1 -1)" gradientUnits="userSpaceOnUse">
      <stop offset="0" stop-color="#5bab9c"/>
      <stop offset=".16" stop-color="#7db9a3"/>
      <stop offset=".37" stop-color="#a3c9ac"/>
      <stop offset=".53" stop-color="#bad3b2"/>
      <stop offset=".64" stop-color="#c3d7b4"/>
      <stop offset="1" stop-color="#e8efe2"/>
    </linearGradient>
    <linearGradient id="Dégradé_sans_nom_3" data-name="Dégradé sans nom 3" x1="371.46" y1="276.29" x2="373.91" y2="179.49" gradientTransform="translate(0 564) scale(1 -1)" gradientUnits="userSpaceOnUse">
      <stop offset="0" stop-color="#fff"/>
      <stop offset=".25" stop-color="#fff" stop-opacity=".77"/>
      <stop offset=".82" stop-color="#fff" stop-opacity=".19"/>
      <stop offset="1" stop-color="#fff" stop-opacity="0"/>
    </linearGradient>
    <linearGradient id="Dégradé_sans_nom_4" data-name="Dégradé sans nom 4" x1="485.83" y1="89.63" x2="470.66" y2="156.2" gradientTransform="translate(0 564) scale(1 -1)" gradientUnits="userSpaceOnUse">
      <stop offset="0" stop-color="#d2e2ca"/>
      <stop offset="1" stop-color="#9fc9b5"/>
    </linearGradient>
    <linearGradient id="Dégradé_sans_nom_5" data-name="Dégradé sans nom 5" x1="350.9" y1="145.98" x2="365.85" y2="63.8" gradientTransform="translate(0 564) scale(1 -1)" gradientUnits="userSpaceOnUse">
      <stop offset="0" stop-color="#d2e2ca"/>
      <stop offset="1" stop-color="#9fc9b5"/>
    </linearGradient>
    <linearGradient id="Dégradé_sans_nom_6" data-name="Dégradé sans nom 6" x1="327.96" y1="-19.58" x2="298.6" y2="100.21" gradientTransform="translate(0 564) scale(1 -1)" gradientUnits="userSpaceOnUse">
      <stop offset="0" stop-color="#bed5b3"/>
      <stop offset="1" stop-color="#3eaf98" stop-opacity=".3"/>
    </linearGradient>
    <linearGradient id="Dégradé_sans_nom_7" data-name="Dégradé sans nom 7" x1="615.85" y1="3" x2="577.57" y2="159.17" gradientTransform="translate(0 564) scale(1 -1)" gradientUnits="userSpaceOnUse">
      <stop offset="0" stop-color="#bed5b3"/>
      <stop offset="1" stop-color="#3eaf98" stop-opacity=".3"/>
    </linearGradient>
    <linearGradient id="Dégradé_sans_nom_8" data-name="Dégradé sans nom 8" x1="0" y1="66.07" x2="417.8" y2="66.07" gradientTransform="translate(0 564) scale(1 -1)" gradientUnits="userSpaceOnUse">
      <stop offset="0" stop-color="#d2e2ca"/>
      <stop offset="1" stop-color="#9fc9b5"/>
    </linearGradient>
    <linearGradient id="Dégradé_sans_nom_9" data-name="Dégradé sans nom 9" x1="212.5" y1="139.8" x2="170.89" y2="70.17" gradientTransform="translate(0 564) scale(1 -1)" gradientUnits="userSpaceOnUse">
      <stop offset="0" stop-color="#d2e2ca"/>
      <stop offset="1" stop-color="#9fc9b5"/>
    </linearGradient>
    <radialGradient id="Dégradé_sans_nom_10" data-name="Dégradé sans nom 10" cx="496.88" cy="2.75" fx="496.88" fy="2.75" r="197.11" gradientTransform="translate(0 564) scale(1 -1)" gradientUnits="userSpaceOnUse">
      <stop offset=".15" stop-color="#fffaf2"/>
      <stop offset=".24" stop-color="#fffaf2" stop-opacity=".82"/>
      <stop offset=".35" stop-color="#fffaf2" stop-opacity=".61"/>
      <stop offset=".46" stop-color="#fffaf2" stop-opacity=".42"/>
      <stop offset=".58" stop-color="#fffaf2" stop-opacity=".27"/>
      <stop offset=".69" stop-color="#fffaf2" stop-opacity=".15"/>
      <stop offset=".8" stop-color="#fffaf2" stop-opacity=".07"/>
      <stop offset=".9" stop-color="#fffaf2" stop-opacity=".02"/>
      <stop offset="1" stop-color="#fffaf2" stop-opacity="0"/>
    </radialGradient>
    <linearGradient id="Dégradé_sans_nom_11" data-name="Dégradé sans nom 11" x1="26.14" y1="96.84" x2="-26.04" y2="-150.21" gradientTransform="translate(389 563.49) rotate(-180)" gradientUnits="userSpaceOnUse">
      <stop offset="0" stop-color="#bed5b3"/>
      <stop offset="1" stop-color="#3eaf98" stop-opacity=".3"/>
    </linearGradient>
    <linearGradient id="Dégradé_sans_nom_12" data-name="Dégradé sans nom 12" x1="483.49" y1="-45.31" x2="750" y2="-45.31" gradientTransform="translate(0 564) scale(1 -1)" gradientUnits="userSpaceOnUse">
      <stop offset="0" stop-color="#bed5b3"/>
      <stop offset="1" stop-color="#3eaf98" stop-opacity=".3"/>
    </linearGradient>
    <radialGradient id="Dégradé_sans_nom_13" data-name="Dégradé sans nom 13" cx="373" cy="211.77" fx="373" fy="211.77" r="167.86" gradientTransform="translate(-40.5 238.22) rotate(45) scale(1 -1)" gradientUnits="userSpaceOnUse">
      <stop offset=".15" stop-color="#fffaf2"/>
      <stop offset=".24" stop-color="#fffaf2" stop-opacity=".82"/>
      <stop offset=".35" stop-color="#fffaf2" stop-opacity=".61"/>
      <stop offset=".46" stop-color="#fffaf2" stop-opacity=".42"/>
      <stop offset=".58" stop-color="#fffaf2" stop-opacity=".27"/>
      <stop offset=".69" stop-color="#fffaf2" stop-opacity=".15"/>
      <stop offset=".8" stop-color="#fffaf2" stop-opacity=".07"/>
      <stop offset=".9" stop-color="#fffaf2" stop-opacity=".02"/>
      <stop offset="1" stop-color="#fffaf2" stop-opacity="0"/>
    </radialGradient>
  </defs>
  <g id="BACKGROUND">
    <g>
      <rect class="cls-12" width="750" height="741"/>
      <rect class="cls-9" width="750" height="741"/>
      <circle class="cls-2" cx="373" cy="348.45" r="57.98"/>
      <path class="cls-13" d="m278.62,459.67c-.25-1.98-2.8-4.31-3.74-5.4-1.38-1.6-2.87-3.52-4.11-5.37-1.29-1.93-2.17-3.88-3.23-6.01-.25-.49-.49-.91-.85-1.21-.61-.51-1.32-.4-1.98-.62-1.96-.68-2.82-3.37-4.14-5.43-1.15-1.78-2.36-1.24-3.63-.36-1.43.97-2.76,2.08-3.99,3.64-.86,1.09-1.68,2.74-2.94,2.51-1.84-.33-2.94-3.62-4.68-3.91-1.33-.22-2.38,1.33-3.45,2.31-.68.63-1.3,1.37-2,1.99-2.77,2.42-4.56,6.74-7.39,9.17-2.92,2.5-8.77,6.31-10.97,1.81-.24-.5-.46-1.88-.68-2.14-.49-.57-1.91-.15-2.45-.08-1.4.19-2.56,1.12-3.89,1.5-1.37.39-3.2-.09-4.43-.95-1.57-1.1-2.54-4.01-4.06-5.03-1.19-.8-3.66-.17-4.8.38-1.39.68-2.58,1.88-3.96,2.55-1.35.65-2.6.76-3.99.72-1.71-.04-3.32.63-4.87,1.68-1.28.87-2.41,2.26-3.69,3.12-1.34.9-1.62,1.59-2.75,2.88-1.23,1.4-2.84-.51-4.41.1-1.55.6-3.35,2.1-4.6,3.45-1.01,1.09-1.7,2.96-2.67,4.19-.98,1.24-1.85,1.52-3.09,2.13-1.65.81-2.88,1.64-4.47,3.04l44.86,48.61,75.72-59.13-4.69-.15h.02Z"/>
      <path class="cls-7" d="m749.58,350.66c-.49-.17-1.26-.8-1.71-1.17-.6-.48-1.15-1.18-1.73-1.73-.79-.74-1-.61-1.85-1.11-.56-.32-1.14-1.68-1.7-1.98-.7-.38-1.59-.16-2.34-.15-2.04,0-3.77-.05-5.73.84-2.76,1.26-5.68,2.77-8.08,5.22-1.54,1.58-3.01,3.36-4.59,4.86-1.62,1.54-3.22,2.45-4.81,4.16-1.88,2.02-3.88,3.96-5.82,5.82-2.33,2.22-4.89,3.46-7.16,5.83-1.99,2.07-4.44,3.84-6.65,5.32-1.65,1.1-2.94,2.9-4.52,4.2-3.37,2.77-6.55,6.43-9.99,8.97-.24.19-.48.36-.73.53-1.72,1.18-3.37,2.59-5.07,3.85-1.46,1.09-3.03,1.54-4.54,2.42-1.6.93-3.22,1.65-4.82,2.56-1.55.88-2.93,2.4-4.45,3.41-2,1.32-4.04,2.45-6.05,3.66-1.53.91-3.05,1.88-4.54,3-5.57,4.21-11.91,3.93-17.92,4.93-2.9.49-5.87.39-8.68,1.65-2.43,1.09-4.77,2.77-7.1,4.26-2.99,1.92-5.68,5-8.42,7.59-3.47,3.27-6.96,5.25-10.9,6.9-1.05.44-2.43-1.66-3.34-2.29-1.83-1.29-3.28-3.44-4.95-5.17-1.16-1.21-2.13-2.55-3.1-4.05-.12-.18-.23-.36-.35-.54-.55-.86-1.43-2.6-2.18-3.05-.67-.39-1.39.01-2.07-.22-.45-.15-1.33-.89-1.79-1.24-1.41-1.08-3.04-2.18-4.44-3.46-1.6-1.44-3.02-2.86-4.8-3.83-1.38-.74-2.61-.43-4.05-.53-1.52-.12-2.73-1.61-3.95-2.88-.72-.76-.98-1.43-1.59-2.33-.48-.73-1.3-.94-1.87-1.47-1.28-1.18-2.38-3.51-3.94-4.07-1.44-.53-2.97.36-4.25,1.2-3.14,2.05-5.65,5.38-8.55,8.01-2.29,2.07-5.65,2.63-7.4,6.1-.77,1.54-.62,2.23-1.96,2.32-1.15.08-2.11-.2-3.19-.79-1.12-.61-1.87-1.21-2.78-2.32-.45-.54-.98-1.44-1.54-1.58-.86-.2-3.54,1.64-4.23,2.51-.91,1.13-.73,1.64-2.14,1.33-1.03-.23-1.79-.89-2.72-1.48-1.79-1.16-2.65-.18-4.39,0-1.44.15-2.55,1-3.69,2.49-.75.98-1.57,1.82-2.4,2.62-1.77,1.7-3.61,3.24-5.01,5.57l26.42,43.51h220.57v-118.18c-.14.02-.28.03-.42-.02h0Zm-386.74,89.16c-1.11-1.06-2.36-1.86-3.57-2.7-.42-.29-.84-.59-1.25-.9-1.63-1.26-2.68-2.24-3.96-4.22-.48-.75-.99-1.5-1.45-2.24-.41-.66-.74-1.54-1.11-2.16-.69-1.14-1.96-2-2.84-2.8-1.15-1.05-2.39-2.21-3.47-3.44-.81-.93-1.44-2.11-2.34-2.91-.64-.57-1.35-.85-1.97-1.45-.4-.53-.81-1.07-1.21-1.61-.57-.43-1.16-.72-1.79-.89-.62-.54-1.19-1.34-1.7-2.11-1.6-2.44-3.48-4.39-5.78-3.24-1.24.62-1.97,1.08-2.96,2.47-.96,1.35-1.59,1.85-2.93,1.57-2.32-.49-3.79-3.91-5.92-4.66-.76-.26-2.15-.11-2.87.22-.73.32-1.32,1.56-2.08,1.96-1.94,1.03-4.34-.57-6.31.32-1.51.69-3.38,3.45-4.55,5.15-1.32,1.91-2.73,3.93-3.83,6.13-.59,1.2-1.19,2.23-2.06,3.06-1.31,1.23-3.28,1.62-4.8,2.06-2.54.73-4.6,2.34-6.95,3.85-3.23,2.08-6.3,4.7-9.5,6.89-.39.27-.98.33-1.35.66-.81.71-.92,1.72-1.59,2.6-1.01,1.31-2.18,2.39-3.21,3.75-.16.21-.33.43-.5.64-3.67,4.75-7.73,8.88-12.05,12.12-1.58,1.18-2.91,2.05-4.28,3.84-.82,1.08-1.55,2.47-2.51,3.28-.79.67-1.66.81-2.47,1.41-1,.74-1.99,2.02-2.94,2.9-1.77,1.65-3.66,2.85-5.23,4.97-1.07,1.46-2.09,2.38-3.22,3.64-1.26,1.41-2.37,2.99-3.52,4.57-.64.88-1.4,1.49-2.1,2.24-.9.95-1.61,2.26-2.51,3.17-1.26,1.28-2.86,1.62-4.13,2.94-1.37,1.4-2.95,2.12-4.24,3.65-1,1.18-1.95,2.02-3.22,2.37-.92.25-1.8-.05-2.71.26-.69.24-1.27.91-1.95,1.21-1.24.56-2.64,1.49-3.93,1.73-.78.15-1.53-.2-2.32.07-.47.16-1.59.9-2.69,1.68-1.4.98-2.77,2.02-2.77,2.03l9.75,13.2,15.26,20.63,11.51,15.57,23.68-11.79,123.59-61.5c-1.37-.22-20.05-39.15-21.15-40.19h0Z"/>
      <g>
        <path class="cls-10" d="m750,422.98v255.02H0v-46.94l108.1-44.8,28.65-11.87h0l13.2-5.48,16.9-7,7.02-2.91h0l24.61-10.21h0l18.04-7.47,8.66-3.59,8.03-3.33c2.33.07,4.15-.25,6.17-1.9.87-.71,1.53-1.67,2.31-2.4.08-.07.16-.14.24-.21t.02-.01c.09-.09.18-.16.27-.22.14-.11.29-.2.45-.28q.11-.05,0,0c.19-.1.39-.18.6-.24,1.44-.41,2.87-.6,4.33-.77,1.74-.21,3.54-2.33,5.21-3.3,1.64-.96,3.3-1.65,5.01-2.29,2.23-.82,4.59-1.96,6.81-.8,1.81.96,3.22,2.96,5.12,3.69,1.83.72,4.1.69,5.87-.38,2.31-1.4,4.53-3.69,6.7-5.5,1.84-1.53,3.74-2.91,5.57-4.46,2.07-1.77,3.55-3.51,5.87-4.56,3.47-1.58,6.64-5.15,9.46-8.57,3.83-4.63,7.69-9.45,11.81-13.45,1.45-1.4,3.05-2.45,4.48-3.88,1.84-1.84,3.32-4.52,4.95-6.75,1.78-2.43,3.64-4.64,5.62-6.69,2.83-2.93,5.77-4.85,8.17-8.7,1.05-1.68,2.1-3.13,3.35-4.42,1.21-1.24,2.23-2.86,3.45-4.03,1.22-1.15,2.36-2.44,3.58-3.59.69-.64,1.1-1.28,1.7-2.1.7-.94,1.01-.83,1.84-1.26,3.35-1.74,4.59-6.48,6.99-10.08.03-.04.05-.08.07-.12.32-.48.61-.99.87-1.5.33-.62.65-1.24,1-1.82,0-.02.03-.04.03-.06.13-.23.27-.45.42-.66.39-.57.83-1.08,1.36-1.47.65-.48,1.32-.62,2-.92.62-.28,1.05-1.09,1.56-1.38,2.17-1.21,4.12.91,6.05,1.77.86.38,1.64.89,2.45,1.16,1,.33,2.45.04,3.47-.02,1.2-.06,2.08-.92,3.21-1.36.52-.2.95-.17,1.48-.17.81,0,.98-.31,1.59-.6,1.28-.59,1.53-.55,2.39-2.46,1.56-3.44,2.98-6.83,3.91-10.79.55-2.35,1.2-4.43,2.44-5.94,1.45-1.75,2.87-3.54,4.46-5.02,1.73-1.59,3.36-3.16,4.95-4.95,1.43-1.63,2.7-4.01,4.23-5.34,1.5-1.3,3.08-2.07,4.62-3.18,1.82-1.31,3.21-3.48,4.95-4.87,1.83-1.47,3.18-4.51,4.41-6.97.76-1.53,1.64-3.25,2.48-4.64.67-1.11,1.54-1.76,2.24-2.82.94-1.41,1.16-1.42,2.43-1.91.53-.2.74-.46,1.25-.78.21-.14.46.16.7-.02.34-.26.5-.88.79-1.31.4-.59.88-1.18,1.48-.93.08.03.15.05.22.07.05.02.1.03.14.03,1.4.26,2.08-1.63,3.65-1.64,2.42-.02,3.26.67,5.05,3,1.21,1.57,2.5,1.97,4.02,2.44,1.74.55,3.17,1.86,4.79,2.81.89.52,1.86.55,2.74,1.08.53.32.99.9,1.54,1.17,1.94.95,3.76,2,5.71,2.93,1.74.83,3.45,1.74,5.2,2.57.72.35,1.36,1.07,2.06,1.4.93.43,1.94.27,2.88.69,1.5.67,2.8,1.98,4.3,2.72,1.66.81,3.29,1.31,4.86,2.46,1.92,1.4,4.17,1.21,4.13,4.96-.03,3.03.02,4.7,1.71,6.47,1.57,1.64,2.79,3.01,4.68,3.59,2.26.7,4.7,4.16,6.45,6.32,1.1,1.36,1.58,2.69,2.89,3.85,1.29,1.15,2.65,2.04,4.04,2.87,1.43.86,2.96,1.33,4.47,1.83.57.2,1.14.39,1.7.62,2.1.85,4.6-.55,6.62.53,1.4.74,2.5,2.64,3.7,3.95.92,1.02,1.89,1.63,2.94,2.29,1.35.86,2.93.82,4.09,1.97.41.42.74,1.01,1.22,1.38.24.18.65.09.87.32.8.8,1.31,2.13,2.21,2.92.38.33.94.46,1.26.89.39.52.43,1.15.76,1.68.54.86,1.53,2.11,2.27,2.57,1.05.66,2.25.81,3.33,1.48,1.75,1.08,2.96,2.85,4.48,4.45,1.76,1.85,3.23,3.28,5.44,3.42,1.91.12,3.33-.02,5.15,1.1,1.76,1.09,3.3,1.6,5.15,2.1,1.08.29,2.08.87,3.23.62.25-.05.5-.15.74-.27.83-.39,1.63-1.06,2.43-1.57,1.3-.84,2.31-1.8,3.7-2.39,1.44-.62,2.47-1.7,3.74-2.87,1.2-1.12,2.53-1.51,3.75-2.52,1.15-.95,1.88-2.21,2.66-3.75.67-1.35,1.5-2.49,2.18-3.82.3-.61.41-1.29.74-1.9.46-.87,1.18-1.41,1.66-2.29.79-1.43,1.14-3.23,2.05-4.49.2-.26.39-.52.58-.78.18-.23.35-.46.52-.69.4-.54.77-1.1,1.1-1.74.07-.13.14-.28.21-.42.13-.29.25-.58.36-.9.06-.17.12-.34.17-.52,1.08-3.72,3.53-7.63,5.58-10.23.87-1.1,1.36-2.61,2.19-3.72.74-1,1.79-1.57,2.59-2.45,1.46-1.59,2.83-2.92,4.44-4.18,1.36-1.07,2.4-2.43,3.02-4.67.64-2.29.73-4.96,1.69-7.04.74-1.61,1.49-3.04,2.21-4.69.58-1.31,1.35-3.04,2.04-4.13.33-.52.74-.56,1.08-1.13.32-.54.57-1.95.79-2.65.58-1.78.96-3.38,1.66-5.03,1.35-3.13,1.86-6.6,3.31-9.62.8-1.65,1.6-2.76,2.49-4.19.86-1.41,1.49-2.96,2.6-3.98.13-.13.27-.24.41-.34.15-.12.3-.23.45-.32.1-.06.19-.11.28-.16.16-.09.32-.16.48-.22,2.65-1.03,5.27,1.07,7.81,2.77,3.36,2.27,6.55,4.86,9.79,7.65,3.71,3.18,7.69,5.53,10.53,10.64,1.37,2.45,2.52,5.81,4.22,7.71,2.21,2.47,4.99,2.66,7.56,3.19,5.06,1.04,10.56,1.05,15.28,4.35.47.33.93.67,1.37,1.03,2.05,1.6,3.89,3.45,5.9,5.3,2.23,2.03,4.19,4.54,6.43,6.5,2.58,2.26,5.01,4.51,7.8,6.12.99.57,1.96,1.17,2.96,1.71,1.22.66,3.16.89,4.16,2.25,1.32,1.81,2.86,3.15,4.47,4.22,2.03,1.36,3.82.73,5.92,1.18,1.82.39,3.1,2.04,4.76,2.88,1.16.59,2.75.08,3.97.11,4.03.08,7.34-4.53,11.46-2.47,1.93.96,3.64,2.17,5.54,3.4,1.28.84,2.48,1.48,3.73,2.04h.04Z"/>
        <path class="cls-14" d="m150.51,574.15c4.29,26.96,30.61,45.54,57.17,51.86s54.34,3.55,81.58,5.4c28.17,1.91,58.56,8.33,83.14-5.59,15.84-8.97,26.23-24.94,35.99-40.31,8.56-13.47-55.17-34.48-52.26-50.18,2.18-11.77,34.2-16.15,42.98-18.3,12.67-3.11,71.81-11.05,71.65-27.02-.03-3.01-1.68-5.73-3.28-8.27-8.9-14.19-17.81-28.37-26.71-42.56-3.8-6.06-7.71-12.43-8.33-19.56s3.23-15.19,10.19-16.85c5.81-1.38,15.15-.65,14.65-6.61-.15-1.79-1.44-3.26-2.67-4.57-7.25-7.78-14.5-15.55-21.75-23.33-.12-.02-.24-.05-.36-.11-.6-.25-1.08.34-1.48.93-.29.43-.45,1.05-.79,1.31-.24.18-.49-.12-.71.02-.5.32-.71.58-1.24.78-1.27.49-1.49.5-2.43,1.91-.7,1.06-1.57,1.71-2.25,2.83-.84,1.39-1.71,3.1-2.48,4.63-1.23,2.46-2.58,5.5-4.41,6.97-1.74,1.39-3.12,3.56-4.94,4.87-1.54,1.11-3.13,1.89-4.63,3.19-1.53,1.33-2.79,3.7-4.23,5.33-1.59,1.8-3.22,3.36-4.94,4.96-1.6,1.48-3.02,3.27-4.46,5.02-1.24,1.51-1.89,3.59-2.44,5.94-.93,3.96-2.35,7.35-3.91,10.79-.86,1.9-1.11,1.86-2.39,2.46-.61.28-.77.6-1.59.6-.53,0-.96-.03-1.48.17-1.13.43-2.01,1.3-3.21,1.36-1.03.06-2.48.35-3.47.02-.81-.27-1.6-.78-2.45-1.16-1.93-.86-3.88-2.98-6.05-1.76-.51.29-.95,1.09-1.57,1.37-.67.3-1.35.44-2,.92-1.7,1.25-2.45,3.69-3.75,5.64-2.4,3.6-3.64,8.34-6.99,10.07-.83.43-1.14.32-1.83,1.26-.6.82-1.01,1.46-1.7,2.1-1.22,1.15-2.36,2.43-3.58,3.59-1.23,1.16-2.24,2.79-3.45,4.02-1.26,1.29-2.31,2.74-3.35,4.42-2.4,3.85-5.34,5.77-8.17,8.71-1.97,2.04-3.84,4.26-5.62,6.69-1.63,2.23-3.11,4.91-4.95,6.75-1.43,1.43-3.03,2.47-4.48,3.88-4.12,4-7.98,8.81-11.81,13.45-2.82,3.42-5.99,6.98-9.47,8.56-2.32,1.05-3.79,2.79-5.87,4.56-1.83,1.55-3.73,2.93-5.56,4.46-2.18,1.81-4.4,4.11-6.71,5.5-1.77,1.07-4.04,1.1-5.87.38-1.89-.74-3.3-2.74-5.11-3.69-2.22-1.17-4.58-.03-6.81.8-1.71.64-3.37,1.33-5.02,2.29-1.66.97-3.47,3.09-5.21,3.3-1.46.17-2.89.37-4.33.77-1.65.46-2.5,2.23-3.9,3.37-2.02,1.65-3.84,1.97-6.16,1.9l-83.28,34.51c.09,1.74.27,3.49.55,5.24h0Z"/>
        <path class="cls-6" d="m502.79,535.21c-.86,1.49-1.29,3.08-.74,4.49,2.75-.72,3.51-3.38,5.66-4.79,1.75-1.15,4.73-2.32,6.67-3.14,2.63-1.11,3.46-.9,5.63-3.45,5.13-6.01,5.11-15.04,14.4-16.92,1.73-.35,3.56-.34,5.17-1.04,8.89-3.84,11.33-13.11,17.18-19.73,7.85-8.89,18.38-14.67,27.83-21.64,18.73-13.8,34.65-44.68,59.26-47.1,15.26-1.5,31.35,1.91,45.59-3.8-12.66-4.69-25.32-9.36-37.97-14.06-14.59-5.42-18.08-7.17-20.66-22.55-1.42-8.48-2.59-20.28-4.47-29.07-.54.21-1.08.54-1.62,1.04-1.11,1.02-1.74,2.57-2.6,3.98-.88,1.44-1.69,2.55-2.48,4.2-1.45,3.02-1.97,6.48-3.31,9.62-.71,1.65-1.09,3.25-1.66,5.03-.23.7-.47,2.12-.79,2.66-.34.57-.75.61-1.08,1.13-.7,1.09-1.47,2.82-2.04,4.13-.72,1.65-1.47,3.08-2.21,4.69-.96,2.08-1.05,4.75-1.69,7.04-.62,2.24-1.66,3.6-3.03,4.67-1.6,1.25-2.97,2.58-4.44,4.18-.8.88-1.85,1.45-2.59,2.44-.83,1.11-1.32,2.62-2.19,3.72-2.05,2.6-4.5,6.51-5.58,10.23-.65,2.23-1.8,3.5-2.94,5.06-.92,1.25-1.26,3.05-2.05,4.48-.49.88-1.2,1.42-1.67,2.29-.33.61-.43,1.3-.74,1.91-.67,1.33-1.5,2.47-2.18,3.81-.78,1.54-1.5,2.8-2.65,3.76-1.22,1.01-2.55,1.4-3.76,2.52-1.27,1.17-2.3,2.25-3.74,2.87-1.39.59-2.4,1.56-3.7,2.39-.8.51-1.6,1.18-2.42,1.58-3.91,5.94-7.93,11.81-12.08,17.59-1.24,1.72-2.39,3.5-3.56,5.26-7.43,11.12-14.8,22.28-22.45,33.25-3.96,5.68-7.97,11.34-12.2,16.82-1.92,2.48-3.57,4.16-5.97,5.93-1.25.93-3.03,2.65-4.13,4.56v-.04Z"/>
      </g>
      <g>
        <path class="cls-5" d="m417.8,678H0v-359.47c.25.21.51.4.78.49,1.76.61,4.03.1,5.82-.03.73-.06,1.5-.33,2.28-.59.89-.3,1.8-.59,2.66-.54h.17c.17.03.34.06.5.11.2.06.39.15.58.25.28.17.55.4.82.71,1.11,1.27,2.51,2.17,3.48,3.82,1.24,2.11,2.39,5.4,3.43,7.94.96,2.33,1.56,4.07,2.94,5.53,1.61,1.69,3.21,4.55,4.58,6.94,2.42,4.22,4.6,11.56,7.77,13.48,1.39.84,2.57.43,4.04.68,1.91.31,3.89.73,5.79,1.2,2.86.7,5.75,1.9,8.58,2.93,2.24.82,4.75,1.54,6.75,3.61,3.78,3.9,8.75,4.91,11.96,10.78,1.63,2.98,3.51,4.88,5.31,7.49,1.65,2.4,3.07,5.06,4.53,7.87,2.32,4.48,3.41,9.76,5.19,14.96,3.94,11.52,22.64,16.78,34.15,20.44,7.35,2.33,10.92,3.19,15.19,9.89,8.69,13.62,16.08,27.38,27.99,39.26.28.27.56.55.85.82s.57.54.86.79c.29.26.59.53.89.77.29.25.59.51.89.75,1.67,1.39,3.4,2.69,5.11,3.99.56.42,1.11.85,1.66,1.26.23.18.46.35.68.53.38.3.76.61,1.14.91,0,0,.03.02.04.03.45.38.9.74,1.34,1.12.45.39.89.77,1.33,1.18.54.5,1.07,1,1.59,1.5,1.58,1.51,3.1,3.03,4.56,4.56.49.51.98,1.03,1.46,1.54.2.22.4.43.6.64.5.54.99,1.07,1.48,1.61.69.75,1.37,1.51,2.05,2.26,1.35,1.51,2.68,2.99,4.01,4.48.98,1.09,1.97,2.18,2.96,3.27.74.81,1.5,1.63,2.26,2.43.6.64,1.21,1.27,1.82,1.89.03.04.07.07.1.1.46.47.93.94,1.41,1.41.39.39.78.76,1.17,1.14.97.93,1.96,1.85,2.97,2.74.27.24.55.49.84.72.22.21.46.4.69.59.35.3.72.6,1.08.89.87.72,1.76,1.4,2.67,2.07.4.3.81.6,1.23.89.03.03.06.05.09.07.15.11.31.22.47.33.2.14.4.28.61.41,1.46.99,2.97,1.93,4.55,2.81.29.16.59.33.88.48.12.08.24.14.36.2.39.22.79.42,1.19.62.41.21.83.41,1.25.62,1.39.67,2.79,1.37,4.2,2.08,2.11,1.07,4.24,2.19,6.37,3.37.71.39,1.42.78,2.13,1.19.43.24.87.49,1.3.74.66.37,1.32.75,1.98,1.14.77.44,1.53.89,2.3,1.36.74.44,1.49.89,2.23,1.35.75.45,1.49.91,2.24,1.37.74.46,1.48.92,2.22,1.39,3.71,2.34,7.39,4.8,11,7.31.16.11.31.22.46.33,1.24.87,2.47,1.74,3.69,2.62,8.86,6.39,17.24,13.15,24.57,19.79.86.78,1.71,1.55,2.57,2.32,1.24,1.11,2.48,2.2,3.72,3.3,1.04.92,2.07,1.83,3.1,2.72,1.07.92,2.13,1.85,3.19,2.76,1.29,1.12,2.58,2.23,3.86,3.34.78.67,1.56,1.35,2.34,2.02h0c2.11,1.83,4.22,3.64,6.31,5.48.52.45,1.04.91,1.56,1.37,3.47,3.05,6.92,6.15,10.33,9.35.53.49,1.06.99,1.58,1.49.53.5,1.06,1,1.58,1.51.79.75,1.58,1.52,2.36,2.29.79.76,1.57,1.54,2.35,2.33,1.56,1.56,3.11,3.16,4.65,4.79,1.4,1.49,2.82,2.93,4.25,4.33.44.43.87.86,1.32,1.27.31.3.63.6.95.89.48.47.98.93,1.48,1.38l1.02.93.05.05h0c2.37,2.16,4.79,4.22,7.24,6.21.88.72,1.76,1.43,2.65,2.13,19.53,15.43,40.86,27.09,60.2,43.51l.02.02Z"/>
        <path class="cls-3" d="m338.63,617.29c-15.82-16.77-32.76-29.86-49.51-45.05-18.02-16.34-42.4-33.35-64.69-44.05-19.48-9.35-28.76-25.96-44.35-40.3-4.59-4.22-10.14-7.52-14.78-12.15-11.92-11.88-19.31-25.63-27.99-39.26-4.28-6.71-7.84-7.56-15.2-9.9-11.51-3.66-30.2-8.91-34.14-20.44-1.78-5.2-2.87-10.47-5.19-14.96-1.46-2.82-2.87-5.47-4.52-7.87-1.8-2.62-3.68-4.51-5.31-7.5-3.21-5.86-8.18-6.88-11.96-10.77-2-2.07-4.51-2.79-6.75-3.61-2.83-1.03-5.72-2.24-8.58-2.93-1.9-.46-3.89-.88-5.79-1.2-1.47-.24-2.65.16-4.04-.68-3.17-1.92-5.35-9.26-7.77-13.48-1.37-2.38-2.97-5.25-4.57-6.94-1.39-1.46-1.99-3.19-2.95-5.53-1.04-2.53-2.19-5.83-3.43-7.94-.97-1.65-2.37-2.55-3.48-3.82-1.42-1.62-3.09-1.1-4.74-.55,8.06,11.15,16.85,21.57,9.86,35.44-8.57,17.01,2.67,23.43,17.02,34.68,15.13,11.85,31.9,21.1,47.87,31.8,2.24,1.5,3.84,3.08,5.36,5.22,3.86,5.45,8.67,10.47,14.57,14.06,3.01,1.83,6.62,2.86,9.55,4.72,4.67,2.95,6.16,8.46,8.52,12.89,1.02,1.92,2.33,3.39,2.84,5.53.35,1.5.11,2.49.98,4.02,2.06,3.6,6.45,6.16,10.2,7.9,3.96,1.84,7.21,2.99,10.13,6.19,2.49,2.73,2.15,4.79,2.39,8.22.59,8.5,9.32,15.9,13.92,22.75,5.98,8.91,9.24,18.83,16.68,26.99,17.17,18.82,39.14,30.16,60.52,44.03,25.71,16.68,52.22,30.47,82.04,39.68,6.82,2.11,22.69,9.1,33.64,9.86-5.64-4.6-11.11-9.55-16.32-15.07l-.03.02Z"/>
      </g>
      <path class="cls-11" d="m750,444.5v233.5H243.75c2.64-3.15,5.32-6.2,8.11-9.07,1.55-1.61,3.14-3.17,4.77-4.65,13.05-11.89,28-20.42,40.96-32.21,2.05-1.85,4.05-3.79,5.98-5.84,2.96-3.14,5.82-6.71,8.71-10.33,2.7-3.4,5.44-6.84,8.31-10.02,1.78-1.97,3.61-3.84,5.52-5.54.64-.56,1.28-1.11,1.94-1.63,4.63-3.69,9.43-6.49,14.34-8.77,15.9-7.38,32.9-9.24,48.66-17.58,1.96-1.04,3.92-2.07,5.88-3.1,15.61-8.19,31.31-16.18,46.83-24.57,13.28-7.18,28.38-21.38,43.64-17.12,17.99,5.02,36.1-2.73,53.68-7.02,8.74-2.14,17.67-4.36,25.22-9.48,4.28-2.9,8.02-6.66,12.42-9.35,5.05-3.07,10.79-4.6,16.3-6.6,17.7-6.41,30.72-21.93,48.08-26.26,4.85-1.21,10.04-1.55,15.77-.57,1.45.25,2.91.57,4.36.57.38,0,.75-.02,1.12-.07,4.16-.55,7.23-4.34,11.1-6.02,5.43-2.36,11.67-.33,17.45-1.38,7.37-1.33,13.03-7.35,18.86-12.32,1.44-1.22,2.96-2.42,4.74-2.96,9.22-2.79,17.29,4.81,27.56.3,1.94-.85,3.95-1.32,5.94-1.91h0Z"/>
      <path class="cls-8" d="m274.15,587.3c-.66-1.62-6.58-3.52-7.35-5.03-.2-.4-.47-.72-.74-1.04-.28-.34-.57-.68-.79-1.1-.4-.78-.51-1.53-1.04-2.18-.51-.62-1.41-.92-1.99-1.38-.69-.56-1.33-1.06-2.07-1.48-3.81-2.14-7.61-3.58-11.54-5.2-1.36-.56-2.71-1.21-4.04-1.78-1.17-.5-1.71-1.4-2.72-2.36-1.76-1.68-3.28-3.71-5.15-5.15-1-.77-1.98-1.37-2.96-2.01-.82-.52-1.7-1.34-2.49-1.82-.66-.4-1.29-.6-1.95-1.05-1.16-.77-2.21-.48-3.38-.89-.71-.24-1.77-.88-2.57-1.29-.72-.39-1.48-.39-2.22-.68-1.02-.4-2.71-1.39-3.58-2.33-.36-.39-.69-.8-1.02-1.22-.54-.7-1.06-1.41-1.67-2.05-1.06-1.12-2.63-1.91-3.82-2.85-1.5-1.19-3.11-2.15-4.7-2.96-3.97-2.02-8.03-3.97-11.59-7.27-1.35-1.26-2.84-2.5-4.07-4.13-.82-1.06-1.49-2.36-2.32-3.4-3.06-3.83-6.06-7.28-9.77-9.72-2.66-1.75-5.59-3.33-8.35-4.81-3.36-1.8-6.66-3.59-10.06-5.21-.32-.15-.64-.3-.96-.47h0c-2.76-1.36-5.58-2.94-8.24-4.56-3.05-1.85-5.78-4.67-8.6-7.18-2.26-2.01-4.47-4.13-6.88-5.75-2.59-1.74-5.33-2.85-7.94-4.47-2.15-1.33-4.22-2.99-6.41-4.18-1.48-.8-3.08-1.04-4.56-1.82-1.45-.76-2.95-2.32-4.08-3.86-.65-.89-.94-2.03-1.56-2.95-.4-.58-1-.85-1.41-1.39-.62-.83-.82-1.45-1.55-2.16-.54-.52-1.03-.82-1.54-1.44-1.02-1.23-1.5-2.97-2.38-4.32-1.29-1.98-3.54-3.43-5.09-4.97-1.25-1.24-2.63-2.82-3.73-4.3-.98-1.32-1.63-3.08-2.54-4.51-1.31-2.05-2.68-2.65-4.43-3.79-1.84-1.2-3.63-1.7-5.5-2.65-.95-.49-1.62-1.5-2.55-2.05-.42-.24-1.44-.43-1.91-.84-.73-.62-1.1-1.33-1.92-1.85-.46-.29-1.02-.4-1.49-.66-1.05-.58-2.19-1.39-3.05-2.48-2.6-3.29-5.63-5.55-8.42-8.51-1.36-1.45-2.68-2.08-4.19-3.01-1.26-.78-2.66-1.83-3.46-3.43-.79-1.57-1.18-2.14-2.39-3.01-2.13-1.55-4.16-2.51-6.5-3.28-1.38-.45-3.42-1.12-4.58-2.49-.68-.81-.69-2.11-1.41-2.9-1.95-2.18-5.14-1.24-7.43-1.24-1.14,0-2.34.19-3.46,0-1.24-.19-1.9-1.25-3.04-2.01-3.31-2.2-6.77-3.8-10.25-5.37-1.49-.66-2.91-1.56-4.42-2.17-1.55-.63-2.66-.49-3.98-1.79-.96-.94-1.98-2.24-2.95-3.1-1.02-.9-1.27-.06-2.44.08-1.01.11-1.98.37-2.95.69v198.88h276.64c-.77-1.53-1.81-2.66-2.49-4.33v.03Zm474.56-130.09c-3.13,1.04-6.42,2.76-9.37,4.54-2.63,1.6-4.7,4.52-7.22,6.39-2.2,1.65-4.65,2.67-6.93,4.13-2.34,1.49-4.81,4-7.42,4.05-1.13.02-2.26.03-3.4,0-1.67-.04-3.68,1.47-5.04,2.94-1.54,1.66-2.58,3.26-4.47,4.1-2.25.99-3.88,3.18-5.94,4.81-1.17.92-1.87,2.36-2.81,3.71-.76,1.09-1.32,1.64-2.19,2.39-1.14.98-2.25,2.05-3.51,2.81-.77.46-1.53.42-2.27.69-.89.33-1.57,1.17-2.49,1.45-1.8.55-3.01,1.29-4.7,2.33-1.47.91-3.17,1.12-4.7,1.78-3.12,1.35-6.2,3.43-9.22,5.2-1.84,1.08-3.74,2.2-5.66,2.96-1.49.59-2.97.39-4.5.39-3.83.01-7.55-1.28-11.38-.39-4.18.97-7.95,3.51-11.9,5.57-3.64,1.89-6.81,5.59-10.27,8.05-3.91,2.78-8.7,1.31-12.92,2.17-1.26.27-2.49.14-3.75.13-2.07-.02-3.28.69-4.98,2.32-2.83,2.73-5.35,5.05-8.43,7.11-1.16.78-2.32,1.6-3.46,2.44-2.22,1.63-4.16,2.92-6.59,3.73-3.87,1.29-7.63,3.13-11.48,4.56-1.88.7-3.79,1.31-5.72,1.7-4.87.98-9.81.18-14.72,1.29-6.16,1.37-11.35,5.6-17.13,8.69-4.26,2.29-8.86,1.54-13.34,1.54-3.36,0-6.79-.33-10.12.38-6.51,1.41-11.87,6.85-18.26,8.93-4.96,1.61-8.94,6.61-13.64,9.21-2.44,1.35-4.44,3.49-6.78,5.04-1.97,1.31-4.07,2.3-6.09,3.48-1.52.91-3.01,2.16-4.58,2.88-1.36.61-2.78.45-4.18.87-4.65,1.38-9.34,3.74-13.87,5.8-3.88,1.76-7.76,2.97-11.65,4.52-1.26.5-2.52.96-3.77,1.35-2.54.79-5.09,1.3-7.73,1.27s-5.28.01-7.92-.01c-4.9-.04-9.79,1.1-14.57,2.6-3.18.99-6.4,2.14-9.66,2.06-.9-.01-1.82-.14-2.73-.37-6.32-1.66-13.15.37-19.05,3.88-1.99,1.17-3.85,3.23-6.01,3.64-2.52.49-5.04-.59-7.48.79-1.69.94-3.24,1.75-5,2.23h0c-.11.04-.22.06-.34.1-.84.21-1.9.33-2.72.72-1.36.65-2.54,2.02-3.92,2.74-.1.06-.2.12-.31.16l-16.4,8.4h-.02l-72.13,36.88-18.89,9.66h517.03v-221.26c-.43.17-.86.32-1.29.47h-.01ZM2.51,593.9c.66,1.62,6.58,3.52,7.35,5.03.2.4.47.72.74,1.04.28.34.57.68.79,1.1.4.78.51,1.53,1.04,2.18.51.62,1.41.92,1.99,1.38.69.56,1.33,1.06,2.07,1.48,3.81,2.14,7.61,3.58,11.54,5.2,1.36.56,2.71,1.21,4.04,1.78,1.17.5,1.71,1.4,2.72,2.36,1.76,1.68,3.28,3.71,5.15,5.15,1,.77,1.98,1.37,2.96,2.01.82.52,1.7,1.34,2.49,1.82.66.4,1.29.6,1.95,1.05,1.16.77,2.21.48,3.38.89.71.24,1.77.88,2.57,1.29.72.39,1.48.39,2.22.68,1.02.4,2.71,1.39,3.58,2.33.36.39.69.8,1.02,1.22.54.7,1.06,1.41,1.67,2.05,1.06,1.12,2.63,1.91,3.82,2.85,1.5,1.19,3.11,2.15,4.7,2.96,3.97,2.02,8.03,3.97,11.59,7.27,1.35,1.26,2.84,2.5,4.07,4.13.82,1.06,1.49,2.36,2.32,3.4,3.06,3.83,6.06,7.28,9.77,9.72,2.66,1.75,5.59,3.33,8.35,4.81,3.36,1.8,6.66,3.59,10.06,5.21.32.15.64.3.96.47h0c2.76,1.36,5.58,2.94,8.24,4.56,3.05,1.85,5.78,4.67,8.6,7.18,2.26,2.01,4.47,4.13,6.88,5.75,2.59,1.74,5.33,2.85,7.94,4.47,2.15,1.33,4.22,2.99,6.41,4.18,1.48.8,3.08,1.04,4.56,1.82,1.45.76,2.95,2.32,4.08,3.86.65.89.94,2.03,1.56,2.95.4.58,1,.85,1.41,1.39.62.83.82,1.45,1.55,2.16.54.52,1.03.82,1.54,1.44,1.02,1.23,1.5,2.97,2.38,4.32,1.29,1.98,3.54,3.43,5.09,4.97,1.25,1.24,2.63,2.82,3.73,4.3.98,1.32,1.63,3.08,2.54,4.51,1.31,2.05,2.68,2.65,4.43,3.79,1.84,1.2,3.63,1.7,5.5,2.65.95.49,1.62,1.5,2.55,2.05.42.24,1.44.43,1.91.84.73.62,1.1,1.33,1.92,1.85.46.29,1.02.4,1.49.66,1.05.58,2.19,1.39,3.05,2.48,2.6,3.29,5.63,5.55,8.42,8.51,1.36,1.45,2.68,2.08,4.19,3.01,1.26.78,2.66,1.83,3.46,3.43.79,1.57,1.18,2.14,2.39,3.01,2.13,1.55,4.16,2.51,6.5,3.28,1.38.45,3.42,1.12,4.58,2.49.68.81.69,2.11,1.41,2.9,1.95,2.18,5.14,1.24,7.43,1.24,1.14,0,2.34-.19,3.46,0,1.24.19,1.9,1.25,3.04,2.01,3.31,2.2,6.77,3.8,10.25,5.37,1.49.66,2.91,1.56,4.42,2.17,1.55.63,2.66.49,3.98,1.79.96.94,1.98,2.24,2.95,3.1,1.02.9,1.27.06,2.44-.08,1.01-.11,1.98-.37,2.95-.69v-198.88H0c.77,1.53,1.81,2.66,2.49,4.33v-.03Z"/>
      <path class="cls-13" d="m180.36,581.03c-1.03.22-2.06.09-3.1.08-5.95-.11-11.91,0-17.85.08-2.92.04-5.83.03-8.73-.04-4.66-.09-9.3-.33-13.92-.7h0c-16.05-1.3-31.81-4.32-47.23-9.61-15.38-5.27-30.21-13.84-46.59-15.99-11.11-1.46-22.27-2.74-32.97-6.1-3.26-1.02-6.63-1.82-9.96-2.69v-95.28c2.8,2.11,5.63,4.26,8.62,6.04,2.07,1.23,4.5,1.99,6.69,3.01,2.54,1.2,4.03,1.98,5.9,3.8,1.34,1.33,2.81,2.05,3.85,3.68,2.03,3.21,3.76,5.12,7.44,6.54,1.97.75,3.48,2.06,5.23,3.14,1.49.9,3.27,1.37,4.72,2.32,3.22,2.11,6.5,5.64,8.8,8.6,5.05,6.5,8.77,15.53,17.1,18.67,3.52,1.32,6.93,3.47,10.34,5.09,2.67,1.27,5.67,3.04,8.61,3.22,4.28.25,7.95,2.47,11.98,3.81,3.53,1.18,6.07,4.05,8.89,6.29,2.47,1.96,3.53,5.71,6.12,7.22,1.46.85,2.9.83,4.27,1.99,1.4,1.18,2.38,3.1,4.02,3.97,1.15.62,2.8.71,4.05,1.11,1.7.55,3.19,1.31,5,1.48,1.63.15,2.9-.07,4.48.67,1.98.91,3.47,2.63,5.29,3.79,3.97,2.53,7.31,5.77,11.48,8.04,2.13,1.16,3.27,3.14,5.1,4.8,2,1.83,3.44,4.04,4.99,6.19,1.14,1.59,2.35,3.14,3.89,4.44.3.26.62.52.95.75,2.52,1.81,5.18,3.15,7.37,5.36,1.5,1.51,4.84,4.06,5.18,6.21v.02Z"/>
      <path class="cls-4" d="m750,540.62v137.38h-252.05c-.27-.47-.53-.94-.78-1.42-3.07-5.82-4.94-12.43-6.72-18.71-2.8-9.9-5.42-19.86-6.96-21.97,7.69-.41,15.54-.05,23.06,1.82,4.55,1.13,9.18,1.23,13.85,1.67,9.05.86,17.6.93,26.65-.25,3.76-.49,7.45-.55,11.17-1.15.25-.03.5-.08.75-.12,2.65-.47,5.4-.37,8.08-.79,2.75-.43,4.87-1.57,7.4-2.62,7.03-2.91,13.92-6.51,21.29-8.61,2.14-.61,4.1-1.06,6.17-1.89,3.1-1.22,6.01-2.81,9.24-3.67,4.94-1.33,10.38-.52,15.48-.61,2.13-.04,4.68-.55,6.76-1.03,2.22-.51,4.35-1.8,6.54-2.47,1.79-.55,3.82-.75,5.52-1.6,1.83-.92,3.1-2.31,5.12-2.92,1.84-.54,3.83-.57,5.64-1.16,3.26-1.06,5.15-4.19,7.89-6.07,3.43-2.35,5.41-5.39,7.77-8.83,2.48-3.63,5.03-7.16,7-11.09,2.18-4.35,7.06-10.52,12.07-11.86,1.69-.46,3.16-.13,4.91-.78,1.89-.7,3.29-1.86,5.32-1.97,1.01-.05,2.28.3,3.26.09,1.36-.3,1.62-.88,2.76-1.59,1.33-.85,2.95-1.26,4.29-2.1,1.79-1.11,2.91-2.21,5.18-2.42,2.34-.21,2.67.62,3.58,2.53.76,1.6,1.34,2.86,1.57,4.63.21,1.58-.22,2.39.75,3.88,1.17,1.78,3.5,2.72,5.02,4.24,1.05,1.06,2.72,2.81,4.54,1.97,1.58-.73.55-2.78.75-4.3.5-3.78,1.98-6.9,2.81-10.34.38-1.61,1.16-3.51,1.72-5.08,1.19-3.37,1.8-7.61,4.09-10.46,1.45-1.8,3.2-3.1,4.5-5.04,1.09-1.61,2.32-4,4.01-5.29h0Z"/>
      <circle class="cls-1" cx="373" cy="352.23" r="167.86" transform="translate(-139.81 366.91) rotate(-45)"/>
    </g>
  </g>
</svg>