<?xml version="1.0" encoding="UTF-8"?>
<svg id="Calque_2" data-name="Calque 2" xmlns="http://www.w3.org/2000/svg" xmlns:xlink="http://www.w3.org/1999/xlink" viewBox="0 0 1055.47 965.69">
  <defs>
    <style>
      .cls-1 {
        fill: #e7e7e9;
      }

      .cls-1, .cls-2, .cls-3, .cls-4, .cls-5, .cls-6, .cls-7, .cls-8, .cls-9, .cls-10, .cls-11, .cls-12, .cls-13, .cls-14 {
        stroke-width: 0px;
      }

      .cls-2 {
        fill: url(#linear-gradient-3);
      }

      .cls-2, .cls-3, .cls-15 {
        opacity: .25;
      }

      .cls-3 {
        fill: url(#linear-gradient);
      }

      .cls-4 {
        fill: url(#linear-gradient-6);
      }

      .cls-5 {
        fill: url(#linear-gradient-11);
      }

      .cls-6 {
        fill: url(#linear-gradient-5);
      }

      .cls-7 {
        fill: none;
      }

      .cls-8 {
        fill: #fff;
      }

      .cls-9 {
        fill: url(#linear-gradient-2);
      }

      .cls-10 {
        fill: url(#linear-gradient-7);
      }

      .cls-16 {
        clip-path: url(#clippath);
      }

      .cls-11 {
        fill: url(#linear-gradient-9);
      }

      .cls-12 {
        fill: url(#linear-gradient-8);
      }

      .cls-13 {
        fill: url(#linear-gradient-10);
      }

      .cls-14 {
        fill: url(#linear-gradient-4);
      }

      .cls-17 {
        opacity: .27;
      }
    </style>
    <clipPath id="clippath">
      <rect class="cls-7" x="159.83" y="305.87" width="765.63" height="510.42"/>
    </clipPath>
    <linearGradient id="linear-gradient" x1="511.25" y1="486.45" x2="615.4" y2="655.49" gradientUnits="userSpaceOnUse">
      <stop offset=".44" stop-color="#bfdff0"/>
      <stop offset=".53" stop-color="#bbdced"/>
      <stop offset=".6" stop-color="#b1d6e4"/>
      <stop offset=".67" stop-color="#a0cbd5"/>
      <stop offset=".74" stop-color="#88bbc0"/>
      <stop offset=".8" stop-color="#68a7a4"/>
      <stop offset=".86" stop-color="#438e83"/>
      <stop offset=".9" stop-color="#237a68"/>
    </linearGradient>
    <linearGradient id="linear-gradient-2" x1="567.82" y1="585.19" x2="891.21" y2="998.88" gradientUnits="userSpaceOnUse">
      <stop offset=".21" stop-color="#fff"/>
      <stop offset=".93" stop-color="#30a6f0"/>
    </linearGradient>
    <linearGradient id="linear-gradient-3" x1="637.95" y1="415.58" x2="809.46" y2="822.51" gradientUnits="userSpaceOnUse">
      <stop offset=".39" stop-color="#bfdff0"/>
      <stop offset=".42" stop-color="#b6d9e8"/>
      <stop offset=".47" stop-color="#9fcad4"/>
      <stop offset=".53" stop-color="#79b1b3"/>
      <stop offset=".59" stop-color="#459085"/>
      <stop offset=".63" stop-color="#237a68"/>
    </linearGradient>
    <linearGradient id="linear-gradient-4" x1="583.98" y1="481.39" x2="245.18" y2="1090.12" xlink:href="#linear-gradient-2"/>
    <linearGradient id="linear-gradient-5" x1="463.86" y1="405.21" x2="229.73" y2="844.21" gradientUnits="userSpaceOnUse">
      <stop offset=".36" stop-color="#bfdff0"/>
      <stop offset=".5" stop-color="#89bcc1"/>
      <stop offset=".62" stop-color="#5d9f9a"/>
      <stop offset=".74" stop-color="#3d8b7f"/>
      <stop offset=".83" stop-color="#297e6e"/>
      <stop offset=".9" stop-color="#237a68"/>
    </linearGradient>
    <linearGradient id="linear-gradient-6" x1="634" y1="783.02" x2="588.04" y2="496.64" gradientTransform="translate(-11.3 -41.29) rotate(2.55) scale(1.18 1.01) skewX(-4.18)" gradientUnits="userSpaceOnUse">
      <stop offset=".08" stop-color="#bfdff0"/>
      <stop offset=".18" stop-color="#bbdcec"/>
      <stop offset=".29" stop-color="#afd4e2"/>
      <stop offset=".39" stop-color="#9bc7d0"/>
      <stop offset=".49" stop-color="#7fb5b8"/>
      <stop offset=".6" stop-color="#5b9e99"/>
      <stop offset=".7" stop-color="#308273"/>
      <stop offset=".73" stop-color="#237a68"/>
    </linearGradient>
    <linearGradient id="linear-gradient-7" x1="405.06" y1="784.22" x2="281.37" y2="506.99" gradientTransform="translate(279.4 -38.2) rotate(22.38)" gradientUnits="userSpaceOnUse">
      <stop offset=".31" stop-color="#bfdff0"/>
      <stop offset=".46" stop-color="#89bcc1"/>
      <stop offset=".6" stop-color="#5d9f9a"/>
      <stop offset=".72" stop-color="#3d8b7f"/>
      <stop offset=".83" stop-color="#297e6e"/>
      <stop offset=".9" stop-color="#237a68"/>
    </linearGradient>
    <linearGradient id="linear-gradient-8" x1="573.57" y1="1043.66" x2="575.12" y2="381.2" gradientTransform="translate(-13.62 23.43) rotate(-1.84)" gradientUnits="userSpaceOnUse">
      <stop offset=".36" stop-color="#bfdff0"/>
      <stop offset=".45" stop-color="#89bcc1"/>
      <stop offset=".54" stop-color="#5d9f9a"/>
      <stop offset=".62" stop-color="#3d8b7f"/>
      <stop offset=".68" stop-color="#297e6e"/>
      <stop offset=".73" stop-color="#237a68"/>
    </linearGradient>
    <linearGradient id="linear-gradient-9" x1="254.12" y1="1027.96" x2="461.88" y2="530.8" gradientTransform="translate(45.47 -25.06) rotate(4.12)" gradientUnits="userSpaceOnUse">
      <stop offset=".29" stop-color="#bfdff0"/>
      <stop offset=".46" stop-color="#77abb6"/>
      <stop offset=".59" stop-color="#45878e"/>
      <stop offset=".65" stop-color="#32797f"/>
    </linearGradient>
    <linearGradient id="linear-gradient-10" x1="730.4" y1="951.21" x2="696.49" y2="643.14" gradientTransform="translate(-102.88 121.98) rotate(-10.27)" gradientUnits="userSpaceOnUse">
      <stop offset=".27" stop-color="#bfdff0"/>
      <stop offset=".4" stop-color="#90b7c3"/>
      <stop offset=".58" stop-color="#56868b"/>
      <stop offset=".72" stop-color="#326768"/>
      <stop offset=".79" stop-color="#255c5b"/>
    </linearGradient>
    <linearGradient id="linear-gradient-11" x1="335.78" y1="991.81" x2="277.71" y2="693.84" gradientTransform="translate(279.4 -38.2) rotate(22.38)" gradientUnits="userSpaceOnUse">
      <stop offset=".29" stop-color="#bfdff0"/>
      <stop offset=".36" stop-color="#b4d5e5"/>
      <stop offset=".48" stop-color="#96bcca"/>
      <stop offset=".64" stop-color="#67939d"/>
      <stop offset=".84" stop-color="#265b5f"/>
      <stop offset=".85" stop-color="#22585c"/>
    </linearGradient>
  </defs>
  <g id="Calque_4" data-name="Calque 4">
    <rect class="cls-1" x="149.42" width="794.6" height="816.29"/>
  </g>
  <g id="Calque_3" data-name="Calque 3" class="cls-17">
    <g class="cls-16">
      <g>
        <g>
          <polygon class="cls-8" points="709.68 581.99 618.71 533.29 377.22 680.18 703.97 680.18 709.68 581.99"/>
          <polygon class="cls-3" points="618.71 533.29 613.3 536.58 573.43 569.03 581.18 569.03 501.33 696.85 599.54 614.2 578.73 644.83 557.1 680.18 650.24 680.18 686.33 680.18 703.97 680.18 709.68 581.99 618.71 533.29"/>
        </g>
        <g>
          <polygon class="cls-9" points="965.73 601.17 787.51 525.35 314.38 754.02 954.55 754.02 965.73 601.17"/>
          <polygon class="cls-2" points="787.51 525.35 776.91 530.48 698.8 580.99 713.98 580.99 501.4 683.71 732.37 607.28 640.46 651.3 734.76 621.34 746.91 635.41 719.58 667.2 749.95 651.3 709.19 698.99 753.15 670.26 666.8 754.02 849.28 754.02 919.99 754.02 954.55 754.02 965.73 601.17 787.51 525.35"/>
        </g>
        <polygon class="cls-14" points="99.6 601.17 304.91 525.35 849.96 754.02 112.49 754.02 99.6 601.17"/>
        <g class="cls-15">
          <polygon class="cls-6" points="324.72 581.15 501.43 663.47 434.07 624.14 539.58 658.06 304.91 525.35 99.6 601.17 105.66 728.41 551.23 728.41 324.72 581.15"/>
        </g>
      </g>
      <path class="cls-4" d="m912.17,603.74c-1.79-.16-2.96-.64-4.77-.65-1.85,0-3.46-.15-5.38,0-1.86.14-3.47,1.84-5.44,2.11-1.84.25-3.44.22-5.41.57-1.81.32-3.3,1.07-5.26,1.47-1.8.36-4.29-.65-6.23-.23-1.79.38-3.9.33-5.84.75-1.75.38-4.91-1.65-6.63-1.27-1.74.39-2.25,2.85-3.97,3.23-1.74.39-1.99,3.22-3.7,3.61-1.74.39-4.24-.49-5.95-.1-1.74.4-2.43,2.42-4.14,2.81-1.74.4-6.03-3.24-7.74-2.85-1.74.4-3.64.55-5.35.95-1.74.4-3.73.43-5.43.83-1.74.41-2.73,1.92-4.43,2.32-1.73.41-2.75,1.86-4.45,2.26-1.73.41-3.75.39-5.45.8-1.73.42-3.48.78-5.18,1.19-1.73.42-1.68,3.27-3.37,3.69-1.73.42-4.07-.05-5.76.37-1.73.43-5.09-1.37-6.78-.95-1.73.43-2.31,2.33-4,2.76-1.72.43-4.78-.88-6.46-.45-1.72.44-2.19,2.44-3.87,2.87-1.72.44-2.34,2.21-4.01,2.64-1.72.44-2.84,1.55-4.51,1.98-1.72.45-6.74-3.12-8.4-2.68-1.72.45-2.49,2-4.15,2.44-1.72.46-3.23,1.11-4.89,1.56-1.71.46-.83,3.81-2.48,4.25-1.71.47-6.73-2.8-8.37-2.35-1.71.47-2.16,2.29-3.79,2.74-1.71.48-3.92.38-5.54.84-1.72.48-3.72.62-5.33,1.08-1.72.49-4.3.06-5.91.52-1.72.49-.86,3.49-2.45,3.96-1.73.5-5.08-.66-6.66-.2-1.74.51-1.35,2.93-2.9,3.39-1.76.53-4.2.27-5.72.73-1.8.55-5.68-.92-7.14-.46-1.9.59-.15,4-1.49,4.43-3.21,1.02-8.05-.98-8.05-.98-1.62.55-.82,2.9-2.4,3.44-1.62.55-4.46.16-6.04.7-1.62.55-1.41,2.44-3,2.98-1.62.55-4.23.33-5.81.87-1.62.55-5.54-.63-7.12-.09-1.62.55-.53,3.09-2.11,3.63-1.62.55-5.6-.66-7.17-.12-1.62.55-1.78,2.16-3.36,2.7-1.62.56-1.48,2.37-3.05,2.92-1.62.56-5.76-.76-7.33-.22-1.62.56-2.95,1.3-4.52,1.84-1.62.56-.76,2.89-2.32,3.43-1.62.56-1.7,2.19-3.26,2.74-1.62.56-7.18-1.75-8.74-1.21-1.62.56-1.76,2.15-3.32,2.69-1.62.56-1.65,2.22-3.2,2.77-1.62.57-3.05,1.22-4.6,1.77-1.62.57-2.6,1.54-4.15,2.08-1.62.57-3.71.76-5.26,1.3-1.62.57-5.16-.24-6.69.3-1.62.57-4.17.46-5.7,1.01-1.62.58-5.4-.37-6.93.18-1.62.58-2.84,1.4-4.36,1.95-1.62.58,2.35,4.91.84,5.45-1.63.59-3.11,1.19-4.62,1.74-1.63.59-4.31.4-5.81.95-1.64.6-6.9-1.28-8.39-.74-1.64.6-2.42,1.69-3.9,2.23-1.65.61-2.4,1.71-3.86,2.25-1.66.61-2.18,1.85-3.63,2.39-1.68.62-4.6.3-6.04.83-1.7.63-4.58.29-6.01.8-1.73.62-.06,3.42-1.51,3.92-1.73.59-5.7-.81-7.24-.33-1.67.52-1.31,3.03-3.03,3.48-1.6.42-4.65-.97-6.53-.53-1.58.37-2.41,2.25-4.34,2.67-1.77.38-3.86.18-5.62.54-1.78.37-3.46.95-5.22,1.3-1.79.35-3.32,1.34-5.09,1.68-1.79.34-3.13,2.06-4.9,2.38-1.8.33-5.16-4.04-6.94-3.73-1.8.31-2.61,3.91-4.4,4.21-1.81.3-4.18-1.82-5.97-1.54-1.81.28-3.26,2.18-5.05,2.44-1.81.27-3.29,2.96-5.08,3.21-1.81.26-4-2.27-5.79-2.03-1.82.24-3.54,1.9-5.33,2.13-1.82.23-3.75-3.15-5.54-2.94-1.82.21-3.58,2.6-5.37,2.8-1.82.2-3.72,2.21-5.51,2.39-1.82.19-3.74,1.06-5.53,1.23-1.82.18-3.45-1.76-5.24-1.6-1.82.17-3.49-.63-5.28-.48-1.82.16-4.2,3.74-5.98,3.88-1.82.14-2.55-5.41-4.33-5.28-1.82.14-3.58.41-5.36.53-1.82.13-4.79,5.31-6.57,5.42-1.82.12-3.76.66-5.54.77-1.82.11-2.71-3.15-4.48-3.04-1.82.11-3.03-1.76-4.8-1.66-1.82.1-5.2,5.67-6.96,5.76-1.82.1-2.98-1.92-4.74-1.83-1.82.1-2.65-3.1-4.41-3-1.83.1-4.4,2.94-6.16,3.05-1.83.11-3.54-.11-5.29,0-1.84.12-4.17,2.78-5.92,2.91-1.85.13-3.47.03-5.21.18-1.86.16-3.26-3.22-5-3.04-1.88.19-3.75,1.83-5.49,2.05-1.89.24-4.41-2.02-6.12-1.73-1.88.32-4.59.57-6.25.95-1.83.42-1.66,3.6-3.21,4.12-1.65.55.1,2.31-1.24,2.99-1.32.67-7.54-.17-8.54.64-.97.79,5.11,1.99,4.56,2.81-.54.81-4.04,1.34-4.2,2.17-.16.79,3.77.86,3.91,1.65.13.76-.29,1.32.07,2.08.35.72-9.58,3.77-9.06,4.48.51.69,9.83-.91,10.48-.23.63.66-5.76,3.42-5.01,4.07.73.64,7.97-.83,8.79-.21.81.61.88,1.43,1.76,2.03.88.6-4.87,3.67-3.95,4.24.94.58,7.62-1.06,8.59-.51,1,.57,1.63,1.24,2.63,1.77,1.05.55,3.08.64,4.1,1.15,1.1.55-.92,2.42.11,2.91,1.16.54,6.96-1.1,7.99-.64,1.26.56,2.45.97,3.44,1.39,1.68.7-1.44,3.3-.86,3.52,1.19.46,3.32.44,4.55.89,1.22.44-1.69,3.14-.42,3.57,1.26.42,4.91-.42,6.21-.02,1.29.4,1.37,1.57,2.7,1.96,1.32.39,6.49-1.52,7.85-1.15,1.35.37,4.04-.14,5.43.21,1.38.35,1.31,1.61,2.72,1.95,1.4.34,4.78-.71,6.21-.38,1.43.32-2,4.05-.54,4.35,1.45.3,4.09-.21,5.57.07,1.47.29,1.2,1.94,2.7,2.22,1.49.27,2.63.9,4.15,1.16,1.51.26,7.63-3.2,9.17-2.95,1.53.24,2.92.56,4.48.79,1.54.23,4.17-.54,5.74-.32,1.56.22-2.44,5.44-.85,5.65,1.57.2,8.76-4.8,10.36-4.61,1.59.19.42,3,2.03,3.18,1.6.18,2.37,1.22,3.99,1.38,1.61.16,2.9.72,4.54.87,1.63.15,3.03.6,4.68.75,1.64.14,5.17-1.78,6.83-1.65,1.65.13,4.86-1.56,6.52-1.44,1.66.12,3.46,0,5.13.11,1.67.11.12,4.16,1.8,4.25,1.68.1,4.58-1.32,6.27-1.24,1.69.09,3.53-.04,5.24.04,1.69.07,2.38,1.55,4.09,1.62,1.7.06,4.5-1.4,6.22-1.35,1.71.05,4.43-1.42,6.16-1.37,1.72.04,3.43.03,5.16.07,1.72.03,2.16,2.08,3.9,2.11,1.73.03,5-2.54,6.74-2.53,1.73.02,1.82,2.84,3.56,2.85,1.74,0,3.77-.49,5.52-.49,1.74,0,4.74-2.4,6.49-2.41,1.75-.01,3.45-.03,5.21-.05,1.75-.02,1.67,3.72,3.43,3.69,1.76-.03,4.79-2.8,6.56-2.84,1.76-.04,3.15.74,4.92.7,1.77-.05,3.81-.78,5.58-.84,1.77-.06,3.71-.6,5.48-.67,1.77-.06,2.94,1.46,4.72,1.38,1.78-.07,3.87-1.07,5.65-1.15,1.78-.08,2.7,2.47,4.49,2.38,1.78-.09,4.64-3.66,6.43-3.76,1.79-.1,3.11,1.35,4.9,1.24,1.79-.11,3.22,1.15,5.02,1.04,1.79-.11,4.32-3.28,6.11-3.4,1.79-.12,3.05,2.09,4.85,1.96,1.79-.13,3.4.76,5.2.62,1.8-.14,3.95-2.21,5.75-2.35,1.8-.15,3.86-2.14,5.66-2.3,1.8-.15,3.04,3.73,4.84,3.57,1.8-.16,4.02-4.04,5.82-4.21,1.8-.17,3.19,4.22,4.99,4.04,1.8-.18,3.64-.08,5.45-.26,1.8-.19,3.77-3.12,5.57-3.31,1.8-.19,3.61-.53,5.41-.73,1.8-.2,3.63,2.3,5.43,2.09,1.8-.21,3.61-2.12,5.42-2.33,1.8-.22,3.69.68,5.49.46,1.8-.23,3.56-1.7,5.36-1.93,1.8-.23,3.79,1.13,5.59.89,1.8-.24,3.6-1.01,5.4-1.26,1.8-.25,3.44-1.9,5.24-2.16,1.8-.26,3.65-.27,5.45-.54,1.8-.27,3.25-2.33,5.05-2.6,1.8-.27,3.45-1.05,5.25-1.34,1.8-.28,4.19,1.97,5.98,1.68,1.8-.29,2.69-3.89,4.47-4.19,1.79-.3,3.52-.6,5.3-.91,1.79-.31,3.78.17,5.56-.15,1.79-.32,4.68,2.53,6.46,2.2,1.79-.33,3.86-.04,5.63-.37,1.78-.33,2.34-3.69,4.11-4.03,1.78-.34,4.79,2.07,6.56,1.72,1.77-.35,1.86-4.28,3.62-4.64,1.77-.36,4.92,2.03,6.68,1.66,1.77-.37,3.7-.5,5.46-.88,1.76-.38,1.54-4.17,3.29-4.56,1.76-.39,4.04.18,5.78-.22,1.75-.4,3.83-.23,5.57-.64,1.74-.41,3.31-1.04,5.04-1.45,1.74-.42,5.48,1.88,7.2,1.45,1.73-.43,2.79-1.81,4.5-2.25,1.72-.44,3.52-.84,5.23-1.29,1.71-.45,3.05-1.38,4.74-1.84,1.7-.46,2.5-1.93,4.18-2.39,1.69-.47,5.8,1.52,7.47,1.04,1.68-.48.79-3.54,2.46-4.03,1.67-.49,4.46.05,6.11-.45,1.66-.51,4.48-.04,6.12-.55,1.65-.52.59-3.32,2.21-3.85,1.64-.53,2.25-1.8,3.87-2.34,1.62-.54,5.5.66,7.1.12,1.6-.55,4.33-.33,5.91-.89,1.59-.56,3.18-1.18,4.74-1.75,1.57-.58,2.77-1.43,4.31-2.02,1.55-.59,5.1-.04,6.62-.63,1.53-.6,2.96-1.36,4.46-1.97,1.51-.61-1.21-3.53.26-4.15,1.49-.62,4.03-.69,5.48-1.33,1.46-.64,4.71-.45,6.14-1.09,1.44-.65,1.26-2.04,2.66-2.7,1.41-.66-.44-2.64.94-3.31,1.38-.67,2.58-1.33,3.92-2.01,1.35-.69,2.77-1.26,4.08-1.95,1.31-.7,1.49-1.69,2.76-2.39,1.28-.71,6.46-.13,7.7-.85,1.24-.72,1.4-1.73,2.6-2.46,1.2-.73,2.49-1.41,3.65-2.15,1.16-.74,4.67-.91,5.79-1.66,1.12-.75-1.91-2.41-.83-3.17,1.07-.76,8.08-.32,9.11-1.09,1.03-.77-4.49-2.73-3.5-3.51.98-.78,8.87-.44,9.81-1.23.94-.79,3.77-1.37,4.67-2.17.89-.79.16-1.87,1.01-2.67.85-.8-.99-1.94-.18-2.75.81-.81-2.95-2.05-2.18-2.86.77-.81,7.96-1.06,8.69-1.88.73-.81-5.28-2.11-4.59-2.93.69-.82,3.94-1.45,4.59-2.27.65-.82.41-1.66,1.03-2.49.61-.82,5.5-1.48,6.07-2.3.58-.82,4.13-1.6,4.67-2.42.54-.82.11-1.71.61-2.54.5-.82-8.5-1.73-8.03-2.55s1.65-1.6,2.08-2.43c.43-.83,1.08-1.61,1.48-2.44.4-.83,6.33-1.74,6.7-2.56.37-.83-5.64-1.45-5.31-2.28.33-.82,10.07-1.99,10.37-2.81.3-.82-2.19-1.54-1.93-2.36.27-.82-1.19-1.56-.96-2.37.23-.82-1.4-1.51-1.2-2.33.2-.82-1.11-1.51-.95-2.32.16-.82,9.71-2.38,9.84-3.19.13-.81-1.17-1.55-1.07-2.35.09-.81-6.03-1.04-5.97-1.84.06-.81,6.46-2.29,6.49-3.09.02-.81-9.32-.54-9.33-1.34-.02-.8-.76-1.46-.82-2.25-.05-.8,4.06-2.11,3.97-2.89-.09-.79,7.03-2.63,6.9-3.41-.14-.79-3.03-1.2-3.21-1.96-.18-.78-6.17-.61-6.39-1.37-.23-.77,6.92-2.85,6.65-3.6-.28-.77.21-1.74-.11-2.48-.33-.76-4.6-.76-4.98-1.49-.38-.75-1.21-1.41-1.64-2.13-.44-.74-3.13-.94-3.63-1.64-.51-.72,5.86-3.21,5.29-3.89-.58-.7-6.71.05-7.35-.61-.67-.68,2.36-2.52,1.64-3.15-.76-.66-.22-1.88-1.04-2.48-.86-.63-6.4.35-7.32-.21-.97-.59-4.77.04-5.81-.47-1.1-.53.22-2.14-.96-2.58-1.24-.47-6.38,1.42-7.71,1.06-1.38-.38-2.79-.19-4.27-.46-1.52-.28-.72-2.05-2.35-2.2Z"/>
      <path class="cls-10" d="m561.82,886.88c-1.37-.06-2.29.25-3.67.04-1.41-.21-2.64-.26-4.1-.61-1.41-.34-2.54-2.07-4.02-2.54-1.38-.44-2.61-.59-4.09-1.13-1.36-.5-2.45-1.35-3.92-1.93-1.35-.53-3.3.1-4.76-.5-1.34-.55-2.95-.74-4.4-1.35-1.31-.55-3.82.94-5.11.4-1.31-.55-1.56-2.84-2.85-3.39-1.31-.55-1.34-3.15-2.62-3.69-1.3-.55-3.25-.04-4.54-.59-1.3-.56-1.72-2.47-3-3.02-1.3-.56-4.77,2.25-6.05,1.7-1.3-.56-2.74-.92-4.02-1.47-1.3-.57-2.81-.82-4.09-1.38-1.3-.57-1.97-2.05-3.25-2.61-1.3-.57-1.99-2-3.26-2.56-1.3-.57-2.83-.78-4.11-1.35-1.29-.58-2.61-1.11-3.88-1.67-1.29-.58-1.1-3.16-2.36-3.73-1.29-.58-3.1-.42-4.36-1-1.29-.58-3.95.66-5.21.09-1.29-.59-1.63-2.38-2.89-2.96-1.29-.59-3.68.25-4.94-.33-1.29-.59-1.54-2.47-2.79-3.05-1.29-.6-1.66-2.27-2.91-2.86-1.28-.6-2.08-1.73-3.33-2.31-1.28-.6-5.3,2.06-6.54,1.47-1.28-.61-1.79-2.1-3.03-2.69-1.28-.61-2.4-1.38-3.63-1.97-1.28-.61-.43-3.55-1.66-4.14-1.28-.62-5.27,1.77-6.5,1.17-1.28-.62-1.52-2.32-2.74-2.92-1.28-.63-2.96-.79-4.17-1.39-1.28-.63-2.8-.99-4-1.59-1.28-.64-3.27-.54-4.47-1.14-1.28-.65-.47-3.27-1.65-3.87-1.29-.65-3.91.02-5.08-.58-1.29-.66-.87-2.81-2.03-3.41-1.31-.68-3.18-.72-4.32-1.32-1.34-.7-4.37.18-5.46-.4-1.42-.75.11-3.64-.89-4.18-2.39-1.3-6.18-.04-6.18-.04-1.2-.68-.46-2.72-1.64-3.39-1.2-.68-3.38-.66-4.56-1.33-1.2-.68-.94-2.38-2.12-3.05-1.2-.68-3.21-.79-4.38-1.46-1.2-.68-4.25-.06-5.42-.73-1.2-.69-.23-2.87-1.4-3.54-1.2-.69-4.3-.04-5.47-.71-1.2-.69-1.24-2.16-2.41-2.83-1.2-.69-1-2.32-2.16-2.99-1.2-.69-4.42.03-5.59-.64-1.2-.69-2.17-1.52-3.34-2.19-1.2-.69-.42-2.71-1.58-3.38-1.2-.69-1.17-2.18-2.33-2.85-1.2-.69-5.56.77-6.72.1-1.2-.7-1.23-2.15-2.38-2.82-1.2-.7-1.13-2.21-2.29-2.88-1.2-.7-2.25-1.46-3.4-2.13-1.2-.7-1.9-1.69-3.04-2.36-1.2-.7-2.79-1.11-3.93-1.78-1.2-.7-3.94-.37-5.08-1.04-1.2-.71-3.15-.9-4.28-1.57-1.2-.71-4.13-.28-5.26-.95-1.2-.71-2.08-1.6-3.21-2.27-1.21-.71,2.06-4.18.93-4.85-1.21-.72-2.31-1.44-3.42-2.1-1.21-.72-3.26-.86-4.37-1.52-1.21-.73-5.32.37-6.42-.29-1.22-.73-1.75-1.81-2.85-2.47-1.22-.74-1.73-1.82-2.82-2.48-1.23-.75-1.56-1.93-2.64-2.58-1.25-.76-3.49-.8-4.55-1.45-1.26-.76-3.47-.78-4.53-1.42-1.28-.76.14-3.11-.94-3.73-1.28-.74-4.38.08-5.53-.53-1.25-.66-.83-2.9-2.11-3.5-1.2-.56-3.59.34-5-.26-1.19-.51-1.71-2.32-3.15-2.92-1.33-.55-2.93-.61-4.25-1.14-1.33-.54-2.58-1.26-3.9-1.78-1.34-.53-2.46-1.6-3.78-2.1-1.35-.51-2.27-2.22-3.6-2.72-1.35-.5-4.15,3.08-5.48,2.59-1.35-.49-1.78-3.85-3.12-4.32-1.36-.48-3.28,1.17-4.63.72-1.36-.46-2.36-2.35-3.71-2.79-1.36-.45-2.34-3.06-3.69-3.49-1.37-.44-3.17,1.6-4.52,1.18-1.37-.43-2.59-2.13-3.94-2.54-1.37-.41-3.02,2.43-4.38,2.03-1.37-.4-2.58-2.77-3.94-3.16-1.37-.39-2.71-2.43-4.06-2.8-1.37-.38-2.79-1.39-4.14-1.75-1.37-.37-2.73,1.2-4.08.85-1.38-.36-2.69.17-4.04-.17-1.38-.35-2.99-3.87-4.34-4.21-1.38-.34-2.23,4.62-3.58,4.3-1.38-.33-2.7-.78-4.05-1.1-1.38-.32-3.36-5.36-4.7-5.67-1.38-.32-2.83-1.03-4.17-1.33-1.38-.31-2.24,2.54-3.58,2.25-1.38-.3-2.4,1.25-3.74.95-1.38-.3-3.65-5.73-4.98-6.02-1.38-.3-2.38,1.4-3.71,1.11-1.38-.3-2.19,2.51-3.52,2.22-1.38-.3-3.19-3.17-4.52-3.47-1.39-.31-2.7-.31-4.03-.61-1.39-.32-3.02-3-4.35-3.31-1.4-.33-2.64-.42-3.96-.76-1.41-.36-2.66,2.55-3.98,2.19-1.42-.39-2.76-2.09-4.06-2.49-1.42-.44-3.47,1.33-4.75.87-1.41-.5-3.46-1.04-4.7-1.58-1.37-.59-1.07-3.46-2.22-4.1-1.23-.69.2-2.09-.78-2.85-.97-.76-5.75-.71-6.46-1.56-.69-.83,4-1.22,3.63-2.03-.36-.79-3-1.68-3.08-2.45-.08-.73,2.92-.35,3.07-1.05.14-.67-.15-1.23.17-1.88.3-.61-7.09-4.51-6.65-5.1.42-.57,7.43,1.95,7.97,1.41.52-.53-4.2-3.76-3.6-4.26.59-.49,6.02,1.66,6.68,1.2.65-.46.75-1.2,1.45-1.64.7-.44-3.51-3.89-2.77-4.3.75-.42,5.74,1.83,6.51,1.44.79-.4,1.31-.94,2.1-1.31.83-.38,2.38-.23,3.18-.58.87-.37-.57-2.3.24-2.63.91-.36,5.24,1.8,6.05,1.5.99-.36,1.91-.6,2.69-.86,1.32-.44-.92-3.15-.46-3.29.93-.28,2.55-.02,3.51-.29.96-.26-1.12-3.04-.13-3.29.98-.24,3.72.95,4.73.73,1-.22,1.13-1.27,2.16-1.47,1.03-.2,4.85,2.12,5.91,1.94,1.05-.18,3.07.59,4.15.43,1.07-.16,1.08-1.31,2.18-1.46,1.09-.14,3.6,1.19,4.71,1.06,1.1-.13-1.3-3.9-.18-4.01,1.12-.11,3.1.66,4.24.57,1.13-.09,1.02-1.63,2.18-1.7,1.15-.08,2.05-.52,3.22-.58,1.16-.06,5.64,3.77,6.82,3.73,1.18-.05,2.26-.17,3.45-.2,1.19-.03,3.15.96,4.35.95,1.2-.02-1.56-5.21-.34-5.22,1.21,0,6.41,5.36,7.64,5.37,1.22,0,.48-2.68,1.72-2.65,1.23.02,1.87-.83,3.11-.8,1.24.04,2.25-.32,3.5-.27,1.25.05,2.34-.2,3.6-.14,1.25.06,3.84,2.2,5.11,2.27,1.26.07,3.61,1.97,4.89,2.05,1.27.08,2.63.4,3.91.49,1.28.09.32-3.76,1.6-3.65,1.28.1,3.41,1.72,4.71,1.84,1.29.12,2.69.44,3.99.56,1.29.13,1.9-1.13,3.2-1,1.3.14,3.35,1.79,4.66,1.93,1.3.15,3.3,1.79,4.61,1.95,1.31.16,2.61.36,3.93.53,1.31.17,1.76-1.64,3.08-1.46,1.32.17,3.67,2.88,4.99,3.06,1.32.18,1.54-2.37,2.87-2.18,1.32.19,2.84.87,4.17,1.08,1.33.2,3.48,2.72,4.81,2.93,1.33.21,2.62.42,3.96.64,1.33.22,1.47-3.19,2.81-2.96,1.34.23,3.49,3.09,4.84,3.33,1.34.24,2.44-.31,3.78-.07,1.34.24,2.85,1.15,4.2,1.4,1.34.25,2.79.97,4.14,1.23,1.35.26,2.31-.99,3.67-.72,1.35.27,2.89,1.41,4.24,1.69,1.35.28,2.19-1.93,3.54-1.64,1.35.28,3.33,3.85,4.69,4.15,1.35.29,2.44-.87,3.8-.57,1.36.3,2.52-.67,3.88-.37,1.36.31,3.11,3.47,4.47,3.79,1.36.32,2.43-1.54,3.8-1.22,1.36.32,2.63-.3,3.99.03,1.36.33,2.89,2.45,4.25,2.79,1.36.34,2.82,2.39,4.18,2.73,1.36.34,2.52-3.04,3.88-2.69,1.36.35,2.84,4.13,4.2,4.49,1.36.36,2.65-3.46,4.02-3.09,1.36.37,2.77.49,4.13.86,1.36.37,2.7,3.26,4.06,3.64,1.36.38,2.72.89,4.08,1.28,1.36.39,2.89-1.67,4.25-1.28,1.36.4,2.64,2.33,4,2.74,1.36.4,2.85-.2,4.2.21,1.36.41,2.61,1.95,3.97,2.37,1.36.42,2.94-.59,4.3-.17,1.36.43,2.68,1.33,4.04,1.76,1.36.43,2.51,2.12,3.87,2.56,1.36.44,2.77.66,4.12,1.11,1.36.45,2.35,2.48,3.7,2.94,1.35.45,2.57,1.35,3.92,1.81,1.35.46,3.3-1.3,4.65-.84,1.35.47,1.83,3.83,3.18,4.31,1.35.48,2.64.95,3.99,1.43,1.35.48,2.88.28,4.22.77,1.34.49,3.7-1.76,5.04-1.26,1.34.5,2.93.47,4.27.98,1.34.51,1.58,3.61,2.91,4.12,1.34.52,3.76-1.33,5.09-.81,1.33.52,1.18,4.09,2.5,4.62,1.33.53,3.86-1.28,5.18-.74,1.32.54,2.79.88,4.11,1.42,1.32.55.95,3.96,2.26,4.51,1.32.56,3.08.3,4.39.86,1.31.56,2.91.65,4.2,1.22,1.3.57,2.46,1.32,3.76,1.9,1.3.58,4.27-1.08,5.56-.49,1.29.59,2.02,1.96,3.3,2.55,1.29.6,2.64,1.16,3.91,1.76,1.28.6,2.24,1.6,3.51,2.21,1.27.61,1.8,2.03,3.05,2.65,1.26.62,4.49-.71,5.74-.09,1.26.63.41,3.3,1.65,3.94,1.25.64,3.4.46,4.63,1.11,1.24.65,3.41.55,4.63,1.2,1.23.66.27,3.08,1.47,3.75,1.22.67,1.62,1.89,2.81,2.56,1.2.67,4.23.03,5.41.71,1.19.68,3.28.8,4.45,1.49,1.18.69,2.35,1.43,3.51,2.13,1.16.7,2.03,1.62,3.17,2.32,1.15.71,3.88.62,5.01,1.33,1.13.72,2.18,1.57,3.29,2.29,1.12.73-1.12,3.06-.03,3.79,1.1.74,3.03,1.09,4.1,1.83,1.08.74,3.56.94,4.61,1.69,1.06.75.85,1.99,1.88,2.75,1.04.76-.48,2.34.53,3.11,1.01.77,1.89,1.5,2.87,2.27.99.78,2.04,1.46,3,2.24.96.78,1.04,1.7,1.97,2.49.93.79,4.91.86,5.82,1.65.91.8.97,1.73,1.84,2.53.88.8,1.82,1.56,2.66,2.37.84.81,3.5,1.36,4.31,2.16.81.81-1.58,1.97-.81,2.78.78.81,6.13,1.22,6.87,2.03.74.82-3.57,1.96-2.86,2.79.71.82,6.73,1.41,7.4,2.24.67.82,2.8,1.68,3.44,2.51.64.82.02,1.72.62,2.54.6.82-.86,1.65-.29,2.47.57.82-2.36,1.52-1.81,2.35.54.82,6,1.87,6.51,2.7.51.82-4.13,1.31-3.65,2.14.48.82,2.92,1.76,3.37,2.58.45.82.23,1.56.65,2.37.42.81,4.1,1.97,4.5,2.78.39.81,3.06,1.92,3.42,2.73.37.81-.01,1.56.33,2.37.34.81-6.56.59-6.25,1.4.31.8,1.17,1.64,1.45,2.44.29.8.73,1.59.99,2.38.26.79,4.72,2.3,4.96,3.09.23.79-4.37.67-4.17,1.46.21.79,7.56,2.95,7.74,3.73.18.78-1.75,1.15-1.59,1.92.16.78-.99,1.28-.86,2.04.13.77-1.15,1.21-1.04,1.97.11.77-.93,1.24-.85,1.99.08.76,7.26,3.27,7.32,4.02.05.75-.97,1.27-.94,2.01.03.75-4.64.25-4.64.98,0,.74,4.8,2.82,4.77,3.54-.03.73-7.12-.57-7.18.15-.06.73-.66,1.24-.74,1.95-.08.72,2.98,2.38,2.86,3.08-.12.71,5.21,3.19,5.06,3.88-.15.7-2.37.74-2.55,1.42-.18.69-4.73-.15-4.94.51-.21.68,5.11,3.38,4.87,4.03-.25.66.07,1.6-.22,2.23-.29.65-3.54.17-3.87.78-.33.63-1,1.14-1.36,1.74-.38.62-2.44.49-2.85,1.07-.43.6,4.28,3.58,3.82,4.14-.48.57-5.11-.81-5.63-.29-.54.54,1.66,2.55,1.08,3.04-.61.51-.27,1.68-.93,2.13-.69.47-4.85-1.05-5.59-.64-.77.42-3.63-.58-4.45-.24-.86.36.05,1.96-.87,2.23-.97.28-4.78-2.02-5.81-1.84-1.07.19-2.13-.15-3.27-.07-1.17.08-.66,1.78-1.91,1.73Z"/>
      <path class="cls-12" d="m850.64,713.75c-1.49-.41-2.37-1-3.93-1.28-1.59-.29-2.94-.66-4.63-.83-1.64-.17-3.48,1.02-5.25.94-1.65-.07-3.02-.35-4.81-.36-1.65,0-3.13.39-4.92.42-1.65.03-3.52-1.21-5.3-1.16-1.65.05-3.45-.33-5.23-.27-1.61.05-3.78-2.15-5.36-2.09-1.61.06-2.71,2.05-4.3,2.11-1.61.06-2.58,2.41-4.16,2.47-1.61.06-3.51-1.07-5.1-1-1.61.06-2.75,1.66-4.33,1.73-1.6.07-4.31-3.66-5.89-3.6-1.6.07-3.28-.1-4.86-.03-1.6.07-3.33-.21-4.9-.14-1.6.08-2.87,1.2-4.45,1.27-1.6.08-2.87,1.14-4.44,1.22-1.6.08-3.34-.25-4.91-.17-1.6.08-3.21.12-4.78.21-1.6.09-2.33,2.5-3.9,2.59-1.6.09-3.49-.67-5.06-.58-1.6.09-4.01-1.94-5.57-1.85-1.6.1-2.62,1.61-4.19,1.71-1.6.1-3.87-1.48-5.44-1.38-1.6.1-2.55,1.72-4.11,1.82-1.6.11-2.61,1.5-4.17,1.61-1.6.11-2.87.87-4.42.97-1.6.11-4.96-3.67-6.51-3.55-1.6.12-2.69,1.3-4.24,1.41-1.6.12-3.08.44-4.63.56-1.6.12-1.75,3.08-3.29,3.2-1.6.13-5.03-3.4-6.57-3.27-1.6.13-2.48,1.6-4,1.73-1.6.14-3.47-.28-5-.15-1.61.14-3.37-.05-4.88.09-1.61.15-3.72-.62-5.22-.48-1.62.15-1.69,2.81-3.18,2.96-1.62.16-4.2-1.34-5.68-1.2-1.64.16-1.95,2.26-3.42,2.41-1.66.17-3.69-.42-5.12-.27-1.7.19-4.64-1.65-6.02-1.49-1.8.21-1.21,3.35-2.48,3.5-3.04.37-6.67-2.07-6.67-2.07-1.54.21-1.49,2.32-3,2.53-1.54.21-3.88-.55-5.39-.34-1.54.21-1.88,1.84-3.39,2.05-1.54.21-3.74-.37-5.24-.16-1.54.21-4.6-1.39-6.1-1.18-1.54.22-1.29,2.53-2.8,2.74-1.54.22-4.64-1.42-6.14-1.21-1.54.22-2.12,1.54-3.62,1.76-1.54.22-1.92,1.77-3.42,1.99-1.54.22-4.75-1.53-6.25-1.31-1.54.22-2.89.64-4.39.85-1.54.22-1.43,2.32-2.93,2.53-1.54.22-2.06,1.59-3.55,1.8-1.54.22-5.71-2.59-7.2-2.37-1.54.22-2.1,1.54-3.59,1.76-1.55.23-2.02,1.62-3.5,1.84-1.55.23-2.95.56-4.44.78-1.55.23-2.65.89-4.13,1.12-1.55.23-3.4.06-4.88.28-1.55.23-4.37-1-5.85-.78-1.55.23-3.71-.25-5.18-.03-1.55.24-4.55-1.14-6.01-.92-1.55.24-2.82.74-4.28.97-1.56.24.7,4.5-.76,4.73-1.56.24-3,.52-4.45.75-1.56.25-3.82-.33-5.26-.1-1.57.25-5.59-2.15-7.02-1.92-1.58.25-2.54,1.05-3.96,1.28-1.59.26-2.53,1.07-3.93,1.3-1.6.26-2.38,1.23-3.77,1.45-1.61.26-4.04-.45-5.42-.23-1.64.27-4.02-.47-5.39-.25-1.66.26-.98,2.88-2.37,3.07-1.65.23-4.69-1.56-6.14-1.4-1.58.18-1.94,2.35-3.55,2.47-1.49.11-3.74-1.53-5.48-1.46-1.46.06-2.68,1.53-4.46,1.58-1.63.05-3.37-.44-4.98-.41-1.63.04-3.23.27-4.84.29-1.63.02-3.22.62-4.84.63-1.63.01-3.25,1.25-4.86,1.25-1.63,0-3.35-4.2-4.96-4.22-1.64-.02-3.31,2.89-4.92,2.87-1.63-.03-3.11-2.18-4.72-2.22-1.63-.04-3.4,1.33-5.01,1.28-1.63-.05-3.63,1.99-5.24,1.92-1.63-.06-2.83-2.53-4.43-2.61-1.63-.08-3.56,1.06-5.16.97-1.63-.09-2.37-3.23-3.97-3.33-1.62-.1-3.79,1.64-5.38,1.53-1.62-.11-3.8,1.29-5.39,1.17-1.62-.12-3.51.32-5.09.19-1.61-.13-2.5-2.02-4.08-2.16-1.61-.14-2.83-1.07-4.41-1.22-1.61-.15-4.63,2.51-6.2,2.35-1.6-.16-.73-4.96-2.3-5.12-1.6-.17-3.19-.21-4.75-.38-1.6-.17-5.56,3.73-7.12,3.56-1.6-.18-3.42-.03-4.97-.21-1.59-.19-1.49-3.07-3.03-3.26-1.59-.19-2.14-1.95-3.68-2.14-1.59-.19-6.01,3.97-7.55,3.78-1.59-.2-2.05-2.08-3.59-2.27-1.6-.2-1.44-3.02-2.98-3.21-1.6-.2-4.59,1.8-6.13,1.62-1.61-.19-3.02-.63-4.56-.81-1.62-.18-4.34,1.7-5.88,1.54-1.63-.17-2.99-.51-4.53-.65-1.65-.15-1.94-3.22-3.49-3.34-1.67-.13-3.73.96-5.28.88-1.69-.09-3.25-2.38-4.8-2.4-1.71-.02-4.1-.23-5.64-.16-1.69.07-2.4,2.78-3.88,2.98-1.57.21-.54,1.96-1.87,2.33-1.32.36-6.45-1.31-7.52-.78-1.05.52,3.86,2.47,3.17,3.07-.68.6-3.84.51-4.21,1.18-.35.64,3.02,1.3,2.92,2-.09.66-.61,1.07-.5,1.76.1.66-9.27,1.7-9.01,2.38.25.66,8.71.75,9.09,1.42.37.65-5.88,1.99-5.42,2.65.46.65,7.09.53,7.62,1.18.53.64.37,1.34.97,1.98.6.64-5.19,2.34-4.55,2.97.65.63,6.85.28,7.53.9.7.63,1.07,1.3,1.78,1.9.75.63,2.48,1.02,3.22,1.6.8.63-1.45,1.9-.69,2.47.85.64,6.29.14,7.05.69.93.66,1.84,1.2,2.59,1.7,1.25.85-2.14,2.56-1.69,2.84.9.57,2.74.89,3.68,1.45.93.56-2.31,2.39-1.33,2.94.97.55,4.34.4,5.35.94,1,.54.76,1.53,1.8,2.07,1.03.53,6-.28,7.07.24,1.06.52,3.52.51,4.62,1.02,1.09.51.69,1.56,1.81,2.06,1.12.5,4.3.14,5.45.64,1.14.49-2.82,3.1-1.65,3.58,1.17.48,3.58.45,4.77.92,1.19.47.51,1.82,1.72,2.29,1.21.46,2.02,1.17,3.26,1.62,1.23.45,7.44-1.52,8.69-1.07,1.25.44,2.37.92,3.64,1.36,1.27.43,3.74.19,5.03.62,1.28.42-3.57,4.21-2.26,4.63,1.3.41,8.84-2.7,10.17-2.29,1.32.41-.45,2.6.89,2.99,1.33.4,1.71,1.39,3.06,1.78,1.35.39,2.3,1.05,3.67,1.43,1.36.38,2.45.98,3.83,1.35,1.37.37,4.93-.7,6.32-.33,1.38.36,4.6-.56,6.01-.21,1.4.36,2.98.53,4.39.88,1.41.35-1.02,3.52.4,3.86,1.42.34,4.3-.41,5.73-.08,1.43.33,3.05.51,4.5.84,1.44.32,1.63,1.67,3.09,1.99,1.45.32,4.26-.49,5.72-.18,1.46.31,4.2-.51,5.67-.21,1.46.3,2.94.56,4.42.85,1.47.3,1.3,2.09,2.79,2.38,1.48.29,4.99-1.37,6.49-1.09,1.49.28.8,2.68,2.3,2.95,1.5.27,3.38.17,4.88.44,1.5.27,4.73-1.29,6.24-1.03,1.51.26,2.98.51,4.5.76,1.52.25.43,3.39,1.96,3.64,1.52.25,4.88-1.62,6.41-1.38,1.53.24,2.51,1.11,4.04,1.35,1.53.23,3.49-.07,5.03.15,1.54.23,3.35.06,4.9.28,1.54.22,2.13,1.68,3.69,1.9,1.55.21,3.62-.3,5.18-.09,1.55.21,1.66,2.5,3.22,2.7,1.56.2,4.99-2.37,6.55-2.18,1.56.19,2.31,1.61,3.88,1.8,1.57.19,2.46,1.47,4.04,1.65,1.57.18,4.61-2.1,6.18-1.93,1.58.17,2.06,2.23,3.64,2.4,1.58.17,2.72,1.16,4.31,1.33,1.58.16,4-1.25,5.58-1.1,1.59.16,3.9-1.21,5.49-1.06,1.59.15,1.61,3.61,3.2,3.76,1.59.14,4.56-2.79,6.15-2.65,1.6.14,1.6,4.04,3.2,4.17,1.6.13,3.16.5,4.76.62,1.6.12,4.09-2.04,5.69-1.93,1.61.12,3.25.11,4.86.22,1.61.11,2.5,2.5,4.11,2.6,1.61.1,3.68-1.23,5.29-1.13,1.61.1,2.99,1.15,4.6,1.23,1.61.09,3.52-.88,5.14-.8,1.62.08,2.95,1.54,4.57,1.61,1.62.07,3.37-.3,4.99-.23,1.62.07,3.47-1.07,5.09-1.01,1.62.06,3.22.34,4.84.39,1.62.05,3.43-1.46,5.05-1.41,1.62.05,3.26-.36,4.88-.32,1.62.04,3.08,2.3,4.7,2.34,1.62.03,3.36-2.86,4.98-2.84,1.63.02,3.19.03,4.81.05,1.63.02,3.2.72,4.83.73,1.63,0,3.35,2.85,4.97,2.85,1.63,0,3.33.56,4.95.56,1.62,0,3.01-2.75,4.63-2.76,1.62-.02,3.56,2.49,5.18,2.46,1.62-.02,2.76-3.32,4.37-3.35,1.62-.03,3.69,2.47,5.3,2.43,1.62-.04,3.32.15,4.93.1,1.62-.05,2.46-3.28,4.07-3.34,1.62-.06,3.43.77,5.03.71,1.61-.07,3.36.39,4.97.32,1.61-.08,3.13-.36,4.73-.45,1.61-.09,4.21,2.43,5.8,2.33,1.61-.1,2.89-1.09,4.48-1.2,1.6-.11,3.26-.16,4.85-.28,1.6-.12,3-.7,4.58-.82,1.59-.13,2.67-1.24,4.25-1.37,1.59-.14,4.58,2.17,6.15,2.03,1.58-.15,1.64-2.86,3.21-3.02,1.57-.16,3.82.73,5.38.56,1.57-.17,3.86.66,5.41.48,1.56-.18,1.41-2.71,2.95-2.9,1.55-.19,2.43-1.17,3.96-1.37,1.54-.2,4.56,1.41,6.08,1.19,1.53-.22,3.82.39,5.33.16,1.52-.23,3.05-.5,4.55-.74,1.51-.24,2.77-.78,4.25-1.04,1.49-.26,4.4.76,5.87.49,1.48-.27,2.91-.69,4.37-.97,1.47-.28-.09-3.16,1.35-3.45,1.45-.3,3.65.04,5.08-.27,1.43-.31,4.17.35,5.58.03,1.41-.33,1.64-1.52,3.02-1.86,1.39-.34.34-2.29,1.7-2.65,1.37-.36,2.58-.72,3.92-1.09,1.34-.37,2.72-.63,4.04-1.02,1.32-.39,1.74-1.19,3.03-1.59,1.29-.4,5.6.89,6.86.47,1.26-.42,1.67-1.25,2.9-1.68,1.23-.43,2.52-.8,3.72-1.25,1.2-.45,4.26-.04,5.43-.5,1.17-.46-.99-2.32.14-2.8,1.13-.48,7.04.97,8.13.48,1.1-.49-3.13-2.99-2.06-3.5,1.06-.51,7.75,1,8.78.48,1.02-.52,3.62-.58,4.61-1.11.98-.53.64-1.55,1.6-2.1.95-.54-.33-1.79.59-2.35.91-.55-1.98-2.18-1.1-2.75.88-.56,7.14.33,7.99-.24.85-.57-3.97-2.6-3.16-3.18.81-.58,3.78-.61,4.56-1.2.78-.59.81-1.34,1.56-1.94.75-.6,5.13-.4,5.85-1,.72-.6,3.99-.71,4.68-1.32.69-.61.56-1.43,1.21-2.04.66-.62-6.85-2.77-6.22-3.39.63-.62,1.85-1.1,2.45-1.73.6-.63,1.36-1.19,1.93-1.83.57-.63,5.92-.49,6.46-1.13.54-.64-4.46-2.1-3.95-2.74.51-.64,9.21-.12,9.69-.77.48-.65-1.47-1.64-1.02-2.29.45-.65-.6-1.49-.18-2.15.42-.66-.8-1.49-.41-2.15.39-.66-.55-1.44-.19-2.1.36-.66,9.01-.51,9.33-1.17.33-.67-.58-1.48-.29-2.15.3-.67-4.91-1.8-4.64-2.47.27-.67,6.19-.93,6.42-1.6.24-.68-7.87-1.9-7.67-2.57.2-.68-.26-1.35-.09-2.02.17-.68,4.07-1.15,4.2-1.82.13-.68,6.77-1.13,6.86-1.81.1-.68-2.28-1.48-2.23-2.15.06-.69-5.14-1.47-5.13-2.14.01-.69,6.73-1.33,6.7-2.01-.03-.69.65-1.43.58-2.1-.08-.69-3.75-1.35-3.88-2.03-.13-.69-.66-1.38-.84-2.05-.18-.69-2.44-1.28-2.68-1.94-.25-.69,5.91-1.8,5.61-2.46-.31-.68-5.79-1-6.17-1.65-.39-.68,2.72-1.76,2.26-2.4-.47-.67.32-1.62-.23-2.25-.57-.66-5.6-.7-6.25-1.31-.68-.64-4.11-.7-4.88-1.29-.8-.62.77-1.77-.13-2.33-.94-.58-5.88.21-6.92-.3-1.09-.54-2.35-.59-3.55-1.04-1.24-.47-.07-1.84-1.43-2.22Z"/>
      <path class="cls-11" d="m145.6,675c1.49-.11,2.56-.53,4.03-.49,1.5.04,2.85-.05,4.37.13,1.47.18,2.37,1.81,3.91,2.12,1.43.28,2.74.29,4.26.66,1.4.35,2.42,1.09,3.92,1.5,1.37.38,3.64-.5,5.12-.06,1.36.4,3.09.4,4.56.85,1.33.4,4.39-1.43,5.69-1.03,1.32.41,1.14,2.72,2.45,3.13,1.32.41.84,3.06,2.14,3.47,1.32.41,3.56-.35,4.86.05,1.32.41,1.39,2.32,2.69,2.73,1.32.42,5.69-2.89,6.98-2.48,1.32.42,2.83.61,4.12,1.02,1.31.42,2.92.5,4.21.92,1.31.42,1.75,1.87,3.04,2.28,1.31.43,1.78,1.81,3.07,2.23,1.31.43,2.96.46,4.24.88,1.31.43,2.64.82,3.92,1.25,1.3.44.57,3.11,1.85,3.54,1.3.44,3.32.06,4.59.49,1.3.44,4.47-1.16,5.74-.73,1.3.44,1.32,2.24,2.58,2.68,1.3.45,4.09-.7,5.36-.26,1.29.45,1.19,2.34,2.45,2.78,1.29.45,1.36,2.13,2.62,2.58,1.29.46,1.94,1.52,3.19,1.97,1.29.46,6.23-2.75,7.47-2.3,1.29.47,1.54,1.93,2.79,2.39,1.28.47,2.36,1.12,3.59,1.58,1.28.47-.24,3.58.99,4.04,1.28.48,6.15-2.45,7.37-1.99,1.28.48,1.2,2.2,2.42,2.66,1.28.49,3.09.45,4.3.92,1.28.49,2.87.67,4.07,1.14,1.28.5,3.48.16,4.67.63,1.28.51-.14,3.29,1.04,3.77,1.28.51,4.29-.5,5.46-.02,1.29.52.39,2.77,1.54,3.25,1.3.54,3.35.35,4.47.83,1.33.56,4.84-.72,5.92-.25,1.4.6-.85,3.75.14,4.18,2.36,1.04,6.78-.71,6.78-.71,1.18.55-.04,2.74,1.12,3.28,1.18.55,3.58.26,4.74.81,1.18.55.56,2.32,1.71,2.87,1.18.56,3.36.42,4.51.96,1.18.56,4.66-.45,5.81.09,1.18.56-.32,2.91.83,3.45,1.18.56,4.71-.48,5.86.06,1.18.56.93,2.07,2.08,2.61,1.18.56.63,2.26,1.77,2.81,1.18.56,4.86-.57,6.01-.02,1.18.56,2.08,1.29,3.23,1.84,1.18.56-.08,2.72,1.06,3.27,1.18.56.85,2.1,1.99,2.64,1.18.57,6.26-1.46,7.4-.92,1.18.57.91,2.06,2.05,2.6,1.18.57.8,2.12,1.93,2.67,1.18.57,2.18,1.22,3.31,1.77,1.18.57,1.74,1.5,2.87,2.05,1.18.57,2.84.8,3.96,1.35,1.18.58,4.25-.1,5.37.45,1.18.58,3.27.54,4.39,1.09,1.18.58,4.48-.21,5.59.34,1.18.58,1.97,1.38,3.07,1.93,1.18.59-3.1,4.54-2,5.09,1.18.59,2.24,1.19,3.34,1.74,1.18.59,3.4.48,4.49,1.03,1.18.6,5.92-1.03,6.99-.48,1.19.6,1.56,1.64,2.63,2.19,1.19.61,1.54,1.66,2.6,2.2,1.2.62,1.32,1.79,2.37,2.33,1.22.62,3.67.4,4.71.93,1.23.63,3.65.38,4.69.9,1.25.63-.78,3.21.28,3.71,1.26.6,4.83-.61,5.96-.13,1.23.52.33,2.87,1.62,3.34,1.2.43,4.01-.79,5.43-.34,1.2.38,1.41,2.17,2.88,2.61,1.35.4,3.1.27,4.43.65,1.36.39,2.58.98,3.93,1.35,1.37.38,2.38,1.34,3.73,1.7,1.37.36,2.04,2.01,3.41,2.35,1.38.35,5.17-3.66,6.54-3.32,1.39.34,1.18,3.73,2.56,4.05,1.4.32,3.84-1.6,5.22-1.3,1.4.31,2.12,2.12,3.51,2.41,1.41.3,1.96,2.85,3.35,3.13,1.41.28,3.8-2.03,5.19-1.76,1.42.27,2.41,1.87,3.82,2.12,1.42.26,3.81-2.86,5.21-2.61,1.43.25,2.28,2.53,3.69,2.76,1.43.23,2.49,2.16,3.9,2.38,1.43.22,2.78,1.09,4.2,1.29,1.44.21,3.23-1.57,4.65-1.37,1.44.2,2.99-.51,4.4-.32,1.44.19,2.51,3.61,3.92,3.79,1.44.18,3.38-5.01,4.79-4.84,1.44.17,2.81.47,4.22.63,1.45.16,2.61,5.09,4.03,5.24,1.45.16,2.9.71,4.31.86,1.45.15,2.97-2.88,4.38-2.74,1.45.14,2.89-1.57,4.3-1.43,1.45.14,2.86,5.43,4.26,5.57,1.45.14,2.89-1.73,4.3-1.59,1.46.14,2.91-2.84,4.31-2.7,1.46.14,2.87,2.87,4.27,3.01,1.46.15,2.9-.01,4.3.14,1.47.16,2.72,2.71,4.11,2.87,1.47.17,2.81.11,4.19.3,1.48.19,3.43-2.93,4.8-2.72,1.48.23,2.61,1.8,3.96,2.06,1.47.28,4.07-1.78,5.39-1.47,1.45.35,3.59.64,4.85,1.05,1.38.44.48,3.41,1.61,3.94,1.21.56-.64,2.16.28,2.83.91.66,6.17.03,6.78.81.6.76-4.63,1.74-4.39,2.52.24.77,2.96,1.36,2.89,2.14-.06.74-3.27.71-3.58,1.45-.29.71-.08,1.24-.56,1.94-.46.67,6.88,3.76,6.28,4.42-.58.63-7.77-1.1-8.46-.47-.67.6,3.86,3.34,3.09,3.93-.75.58-6.28-.97-7.09-.42-.81.55-1.06,1.32-1.92,1.85-.86.54,3.07,3.56,2.18,4.07-.91.52-5.94-1.18-6.86-.69-.95.51-1.63,1.12-2.56,1.6-.98.49-2.66.53-3.61.98-1.03.48.17,2.29-.79,2.72-1.07.48-5.39-1.21-6.34-.8-1.16.49-2.22.85-3.13,1.21-1.53.62.38,3.12-.15,3.32-1.08.4-2.81.33-3.91.72-1.1.38.61,2.99-.52,3.35-1.12.36-3.89-.52-5.04-.17-1.15.35-1.49,1.43-2.67,1.77-1.17.33-4.9-1.59-6.1-1.27-1.19.31-3.25-.23-4.46.07-1.2.3-1.45,1.48-2.68,1.76-1.22.28-3.71-.78-4.96-.51-1.24.26.65,3.84-.61,4.09-1.25.25-3.27-.3-4.54-.07-1.26.23-1.44,1.79-2.73,2.01-1.28.22-2.36.78-3.65.99-1.29.2-5.43-3.18-6.74-2.99-1.3.19-2.51.45-3.83.63-1.31.18-3.26-.61-4.59-.44-1.32.16.66,5.16-.67,5.31-1.33.15-5.96-4.72-7.31-4.58-1.34.14-1.07,2.8-2.42,2.93-1.34.13-2.22,1.08-3.58,1.2-1.35.11-2.53.6-3.9.7-1.36.1-2.61.49-3.98.58-1.36.09-3.77-1.79-5.15-1.71-1.37.08-3.57-1.58-4.95-1.51-1.38.07-2.81-.09-4.2-.03-1.38.06-1.1,3.89-2.49,3.94-1.39.05-3.4-1.35-4.8-1.32-1.39.04-2.86-.12-4.26-.09-1.39.03-2.31,1.39-3.72,1.41-1.4.02-3.32-1.43-4.73-1.42-1.4,0-3.26-1.44-4.67-1.44-1.4,0-2.79-.06-4.21-.07-1.41-.01-2.26,1.89-3.68,1.88-1.41-.02-3.45-2.51-4.87-2.53-1.41-.03-2.17,2.62-3.59,2.58-1.41-.04-2.94-.55-4.36-.6-1.42-.05-3.27-2.36-4.69-2.42-1.42-.05-2.8-.11-4.22-.18-1.42-.06-2.26,3.44-3.68,3.37-1.42-.07-3.22-2.74-4.64-2.82-1.42-.08-2.74.62-4.16.53-1.42-.09-2.9-.83-4.33-.92-1.43-.1-2.87-.66-4.3-.76-1.43-.1-2.74,1.29-4.17,1.18-1.43-.11-2.89-1.09-4.32-1.21-1.43-.12-2.79,2.24-4.22,2.11-1.43-.13-2.89-3.54-4.32-3.68-1.43-.14-2.85,1.18-4.28,1.04-1.43-.14-2.9,1-4.33.85-1.43-.15-2.72-3.18-4.15-3.34-1.43-.16-2.98,1.88-4.41,1.71-1.43-.17-2.95.62-4.38.45-1.43-.17-2.68-2.16-4.1-2.35-1.43-.18-2.62-2.1-4.04-2.29-1.43-.19-3.37,3.42-4.8,3.22-1.42-.2-2.29-3.89-3.72-4.09-1.42-.2-3.61,3.87-5.03,3.66-1.42-.21-2.94-.16-4.36-.38-1.42-.22-2.31-3.01-3.73-3.24-1.42-.23-2.81-.59-4.22-.82-1.42-.23-3.5,2.07-4.92,1.83-1.42-.24-2.43-2.07-3.84-2.32-1.41-.25-3.16.55-4.57.29-1.41-.26-2.48-1.68-3.89-1.94-1.41-.26-3.35.97-4.76.7-1.41-.27-2.68-1.03-4.08-1.31-1.4-.28-2.33-1.87-3.73-2.15-1.4-.29-2.9-.34-4.3-.64-1.4-.29-2.08-2.26-3.47-2.56-1.4-.3-2.55-1.07-3.94-1.38-1.39-.31-3.88,1.74-5.27,1.42-1.39-.32-1.24-3.71-2.62-4.03-1.39-.33-2.71-.65-4.09-.98-1.38-.33-3.11.06-4.48-.28-1.38-.34-4.42,2.25-5.78,1.9-1.37-.35-3.13-.13-4.49-.49-1.37-.36-1.01-3.51-2.37-3.87-1.36-.37-4.4,1.82-5.75,1.45-1.36-.37-.48-4.05-1.82-4.43-1.35-.38-4.49,1.78-5.83,1.39-1.35-.39-2.89-.56-4.22-.96-1.34-.4-.24-3.95-1.57-4.35-1.33-.41-3.32.07-4.64-.35-1.33-.42-3.06-.31-4.37-.74-1.32-.43-2.44-1.05-3.74-1.49-1.31-.44-4.9,1.62-6.2,1.18-1.3-.45-1.83-1.76-3.11-2.22-1.29-.46-2.66-.87-3.94-1.33-1.28-.46-2.14-1.37-3.41-1.84-1.27-.47-1.56-1.86-2.82-2.35-1.26-.48-5.08,1.28-6.32.79-1.25-.49.21-3.34-1.02-3.84-1.24-.5-3.63-.06-4.86-.57-1.23-.51-3.63-.15-4.84-.67-1.22-.52.33-3.13-.87-3.66-1.2-.54-1.4-1.74-2.58-2.28-1.19-.55-4.63.49-5.8-.07-1.17-.56-3.44-.42-4.59-.98-1.15-.57-2.3-1.18-3.43-1.76-1.14-.58-1.9-1.41-3.01-2-1.12-.59-4.14-.16-5.23-.76-1.1-.6-2.07-1.35-3.15-1.95-1.08-.61,1.84-3.27.79-3.89-1.06-.62-3.1-.75-4.13-1.38-1.03-.63-3.72-.53-4.72-1.17-1.01-.64-.53-1.94-1.51-2.59-.98-.65.99-2.46.04-3.12-.96-.66-1.77-1.31-2.7-1.98-.93-.68-1.94-1.25-2.84-1.93-.9-.69-.8-1.62-1.67-2.31-.87-.7-5.22-.28-6.05-.99-.83-.71-.72-1.66-1.52-2.37-.8-.71-1.68-1.38-2.45-2.1-.76-.72-3.58-.96-4.3-1.69-.73-.73,2.13-2.21,1.44-2.95-.69-.74-6.49-.5-7.14-1.25-.65-.75,4.31-2.45,3.69-3.21-.61-.76-7.1-.63-7.67-1.39-.57-.76-2.74-1.38-3.27-2.15-.53-.77.32-1.76-.18-2.53-.5-.77,1.27-1.79.81-2.57-.46-.77,2.89-1.84,2.46-2.62-.43-.78-6.21-1.19-6.61-1.98-.39-.78,4.8-1.85,4.44-2.63-.36-.78-2.85-1.45-3.18-2.24-.33-.78.06-1.57-.23-2.35-.3-.78-4.11-1.52-4.38-2.3-.27-.78-2.97-1.6-3.21-2.38-.24-.78.33-1.61.12-2.39-.21-.78,7.32-1.41,7.14-2.19-.18-.78-.95-1.54-1.1-2.33-.15-.78-.49-1.54-.61-2.32-.13-.78-4.72-1.79-4.82-2.57-.1-.78,4.94-1.22,4.87-2-.07-.78-7.7-2.11-7.75-2.89-.04-.78,2.15-1.39,2.14-2.17-.02-.78,1.34-1.43,1.35-2.2.01-.77,1.5-1.38,1.54-2.15.04-.77,1.26-1.38,1.33-2.15.06-.77-7.32-2.47-7.23-3.23.09-.77,1.32-1.42,1.44-2.17.12-.76,5.15-.82,5.29-1.57.15-.76-4.7-2.31-4.52-3.05.18-.76,7.7-.28,7.91-1.02.21-.75.97-1.35,1.21-2.09.24-.75-2.79-2.08-2.52-2.81.27-.74-5.08-2.64-4.78-3.36.3-.73,2.75-1.05,3.08-1.76.34-.73,5.16-.42,5.52-1.12.37-.72-4.94-2.84-4.54-3.54.41-.71.25-1.63.69-2.32.45-.7,3.92-.6,4.4-1.27.49-.69,1.32-1.29,1.85-1.95.54-.68,2.77-.8,3.35-1.44.59-.66-3.98-3.15-3.36-3.78.64-.64,5.44.21,6.12-.39.71-.62-1.31-2.41-.57-2.99.77-.6.64-1.75,1.45-2.29.85-.56,5.12.48,6-.02.93-.52,3.86.16,4.84-.3,1.02-.47.34-2.01,1.41-2.39,1.12-.41,4.84,1.49,6.01,1.18,1.21-.32,2.31-.11,3.58-.32,1.3-.22,1.08-1.9,2.44-2Z"/>
      <path class="cls-13" d="m998.76,662.99c-1.87-.22-3.2-.81-5.04-.84-1.89-.04-3.57-.24-5.49-.1-1.85.14-3.03,2.1-4.97,2.38-1.8.26-3.45.19-5.37.57-1.76.34-3.07,1.2-4.96,1.62-1.74.39-4.56-.84-6.42-.39-1.72.42-3.89.31-5.75.78-1.68.42-5.46-2.02-7.11-1.61-1.67.42-1.52,3.3-3.17,3.72-1.67.43-1.14,3.74-2.79,4.16-1.67.43-4.46-.65-6.1-.22-1.67.43-1.81,2.79-3.45,3.22-1.67.44-7.04-3.91-8.68-3.48-1.66.44-3.56.58-5.2,1.02-1.66.44-3.68.44-5.31.88-1.66.45-2.26,2.2-3.89,2.64-1.66.45-2.29,2.13-3.92,2.57-1.65.45-3.72.39-5.34.84-1.65.46-3.34.85-4.96,1.31-1.65.46-.81,3.81-2.43,4.26-1.65.46-4.16-.13-5.77.33-1.64.47-5.57-1.7-7.17-1.24-1.64.47-1.72,2.69-3.32,3.16-1.64.48-5.11-1.12-6.71-.65-1.64.48-1.57,2.82-3.16,3.29-1.63.48-1.78,2.55-3.36,3.03-1.63.49-2.48,1.76-4.06,2.24-1.63.49-7.73-3.77-9.3-3.29-1.63.5-2,2.3-3.57,2.78-1.63.5-2.99,1.25-4.56,1.74-1.62.51.19,4.44-1.37,4.94-1.62.51-7.63-3.4-9.18-2.9-1.62.52-1.57,2.64-3.12,3.14-1.62.53-3.89.38-5.42.88-1.62.53-3.62.66-5.14,1.17-1.62.54-4.37-.01-5.88.5-1.62.55.08,4.08-1.42,4.59-1.62.56-5.37-.87-6.85-.35-1.63.57-.58,3.4-2.03,3.92-1.65.59-4.21.24-5.64.75-1.68.61-6.04-1.18-7.41-.67-1.78.66.94,4.68-.31,5.16-2.99,1.14-8.48-1.29-8.48-1.29-1.5.61-.04,3.38-1.51,3.99-1.5.61-4.5.11-5.97.71-1.5.61-.77,2.84-2.24,3.44-1.5.62-4.23.32-5.69.92-1.5.62-5.82-.84-7.29-.24-1.5.62.31,3.62-1.15,4.22-1.5.62-5.89-.88-7.35-.27-1.5.62-1.23,2.5-2.68,3.1-1.5.62-.86,2.76-2.31,3.36-1.5.62-6.08-.99-7.53-.39-1.5.62-2.65,1.47-4.1,2.08-1.5.63.02,3.37-1.43,3.98-1.5.63-1.13,2.54-2.58,3.15-1.5.63-7.8-2.18-9.25-1.57-1.5.63-1.21,2.49-2.65,3.09-1.5.63-1.07,2.58-2.51,3.19-1.5.63-2.77,1.38-4.21,1.99-1.49.64-2.23,1.76-3.66,2.37-1.5.64-3.58.82-5.01,1.43-1.49.64-5.33-.37-6.75.24-1.5.64-4.12.47-5.54,1.08-1.5.65-5.61-.53-7.02.08-1.5.65-2.51,1.59-3.92,2.2-1.5.65,3.74,5.79,2.35,6.41-1.5.66-2.85,1.34-4.24,1.95-1.5.66-4.29.39-5.67,1.01-1.51.67-7.39-1.63-8.76-1.02-1.51.67-2.01,1.94-3.37,2.55-1.52.68-1.98,1.96-3.33,2.56-1.53.69-1.72,2.13-3.05,2.74-1.54.7-4.61.27-5.93.87-1.57.7-4.6.25-5.91.83-1.59.7.87,4.01-.47,4.57-1.6.67-6.03-1.05-7.48-.52-1.56.57-.5,3.53-2.13,4.03-1.52.46-5.01-1.22-6.81-.74-1.52.4-1.84,2.6-3.69,3.05-1.7.42-3.89.14-5.58.54-1.71.4-3.27,1.05-4.97,1.43-1.72.38-3.02,1.51-4.73,1.87-1.73.37-2.63,2.36-4.35,2.7-1.74.35-6.37-4.83-8.1-4.5-1.75.33-1.59,4.54-3.33,4.85-1.76.32-4.77-2.21-6.51-1.91-1.77.3-2.73,2.49-4.48,2.77-1.77.28-2.55,3.41-4.3,3.67-1.78.27-4.7-2.73-6.46-2.49-1.79.25-3.09,2.16-4.85,2.4-1.79.23-4.68-3.76-6.45-3.54-1.8.22-2.94,2.99-4.71,3.19-1.8.2-3.19,2.52-4.96,2.7-1.8.19-3.53,1.18-5.3,1.35-1.81.18-4.01-2.13-5.78-1.97-1.81.16-3.73-.8-5.51-.66-1.81.15-3.26,4.31-5.04,4.44-1.81.14-4.08-6.39-5.86-6.27-1.82.13-3.54.42-5.32.53-1.82.12-3.44,6.13-5.21,6.24-1.82.11-3.66.71-5.44.8-1.82.1-3.63-3.74-5.41-3.65-1.82.09-3.58-2.11-5.35-2.03-1.83.09-3.75,6.55-5.52,6.63-1.83.08-3.57-2.31-5.34-2.23-1.83.08-3.56-3.68-5.32-3.6-1.84.09-3.69,3.37-5.45,3.46-1.84.09-3.64-.19-5.39-.09-1.85.11-3.49,3.18-5.24,3.3-1.85.12-3.53-.03-5.27.12-1.86.15-4.21-3.83-5.94-3.65-1.86.19-3.33,2.07-5.03,2.31-1.86.25-5.05-2.45-6.72-2.14-1.83.34-4.52.58-6.11,1-1.75.46-.7,4.19-2.14,4.77-1.54.62.73,2.71-.44,3.48-1.16.76-7.74-.33-8.53.6-.77.91,5.76,2.43,5.42,3.38-.33.94-3.75,1.5-3.69,2.47.05.92,4.08,1.07,4.44,2.01.34.89.06,1.54.64,2.44.55.85-8.75,4.24-8.01,5.09.71.82,9.78-.89,10.63-.08.83.79-4.94,3.9-4,4.68.92.76,7.9-.83,8.91-.09,1,.73,1.29,1.69,2.35,2.41,1.06.71-3.97,4.22-2.86,4.9,1.12.7,7.49-1.1,8.62-.44,1.17.68,2,1.49,3.17,2.12,1.22.67,3.32.81,4.5,1.42,1.27.66-.28,2.82.91,3.41,1.33.66,6.79-1.17,7.98-.61,1.44.68,2.76,1.18,3.89,1.69,1.9.85-.57,3.84.09,4.11,1.34.56,3.51.58,4.89,1.12,1.37.54-.86,3.65.55,4.17,1.4.52,4.89-.41,6.33.09,1.43.5,1.83,1.86,3.29,2.34,1.45.48,6.2-1.67,7.69-1.21,1.48.46,4.09-.09,5.6.35,1.5.44,1.78,1.91,3.31,2.34,1.52.42,4.68-.74,6.23-.34,1.54.4-.93,4.7.64,5.09,1.56.38,4.11-.18,5.7.19,1.58.36,1.76,2.3,3.36,2.65,1.59.35,2.93,1.11,4.55,1.44,1.61.33,6.91-3.61,8.55-3.3,1.62.31,3.14.71,4.78,1.01,1.64.3,4.11-.55,5.77-.27,1.65.28-.99,6.33.68,6.6,1.66.27,7.62-5.47,9.31-5.22,1.67.25,1.25,3.53,2.94,3.76,1.68.24,2.75,1.47,4.45,1.69,1.69.22,3.16.89,4.87,1.1,1.7.21,3.26.76,4.98.96,1.71.19,4.79-1.99,6.51-1.81,1.72.18,4.53-1.74,6.26-1.57,1.72.17,3.53.06,5.27.22,1.73.15,1.26,4.87,3,5.02,1.74.14,4.31-1.47,6.06-1.34,1.74.13,3.6.02,5.35.14,1.75.12,2.86,1.86,4.62,1.97,1.75.11,4.21-1.56,5.97-1.47,1.76.09,4.13-1.58,5.9-1.5,1.76.08,3.51.1,5.28.17,1.77.07,2.78,2.48,4.55,2.54,1.77.06,4.41-2.89,6.18-2.84,1.77.05,2.63,3.36,4.42,3.4,1.78.04,3.71-.51,5.49-.48,1.78.03,4.18-2.73,5.96-2.71,1.78.02,3.51.03,5.3.03,1.78,0,2.72,4.39,4.51,4.39,1.79,0,4.12-3.2,5.91-3.21,1.79-.01,3.41.93,5.21.9,1.79-.02,3.67-.85,5.46-.88,1.79-.03,3.62-.64,5.41-.68,1.79-.04,3.39,1.76,5.19,1.71,1.79-.05,3.65-1.18,5.45-1.24,1.79-.06,3.43,2.94,5.23,2.87,1.79-.07,3.73-4.21,5.53-4.29,1.8-.08,3.54,1.63,5.34,1.54,1.8-.09,3.6,1.4,5.4,1.3,1.8-.1,3.51-3.77,5.3-3.88,1.8-.11,3.68,2.5,5.48,2.38,1.8-.12,3.68.95,5.48.82,1.8-.13,3.42-2.52,5.22-2.65,1.79-.14,3.35-2.44,5.14-2.59,1.79-.15,4.12,4.43,5.92,4.27s3-4.67,4.79-4.83c1.79-.17,4.4,5,6.19,4.82,1.79-.18,3.69-.03,5.48-.21,1.79-.18,2.99-3.58,4.78-3.78,1.79-.19,3.54-.56,5.32-.76,1.79-.2,4.33,2.76,6.11,2.55,1.78-.21,3.11-2.42,4.89-2.64,1.78-.22,3.95.87,5.73.64,1.78-.23,3.16-1.93,4.94-2.17,1.78-.24,4.17,1.4,5.94,1.15,1.77-.25,3.39-1.12,5.16-1.38,1.77-.26,2.99-2.17,4.75-2.44,1.77-.27,3.65-.25,5.41-.53,1.76-.28,2.68-2.67,4.44-2.96,1.76-.29,3.23-1.17,4.98-1.47,1.76-.3,4.81,2.38,6.56,2.07,1.75-.31,1.67-4.51,3.42-4.83,1.75-.32,3.42-.64,5.16-.97,1.74-.33,3.9.27,5.63-.07,1.74-.34,5.47,3.04,7.2,2.7,1.73-.35,3.92.03,5.65-.33,1.73-.36,1.38-4.28,3.09-4.65,1.72-.37,5.46,2.52,7.16,2.14,1.71-.38.72-4.98,2.42-5.37,1.71-.39,5.58,2.47,7.27,2.07,1.7-.4,3.64-.52,5.32-.93,1.69-.41.43-4.86,2.11-5.29,1.68-.43,4.17.28,5.84-.15,1.68-.44,3.85-.21,5.51-.65,1.67-.45,3.09-1.16,4.74-1.61,1.66-.46,6.1,2.3,7.74,1.83,1.65-.47,2.35-2.07,3.98-2.55,1.64-.49,3.36-.92,4.98-1.41,1.62-.5,2.73-1.57,4.33-2.08,1.61-.51,2.02-2.21,3.61-2.73,1.6-.52,6.33,1.88,7.9,1.35,1.59-.54-.16-4.14,1.4-4.68,1.57-.55,4.56.14,6.11-.42,1.56-.56,4.56.03,6.09-.54,1.54-.58-.31-3.89,1.2-4.47,1.52-.59,1.81-2.07,3.3-2.67,1.51-.6,5.8.88,7.27.26,1.49-.62,4.33-.31,5.79-.94,1.47-.63,2.92-1.32,4.35-1.97,1.44-.65,2.43-1.63,3.84-2.29,1.42-.66,5.19.05,6.58-.62,1.4-.68,2.64-1.54,4.01-2.23,1.37-.69-2.2-4.15-.87-4.86,1.35-.71,3.92-.74,5.23-1.46,1.32-.72,4.68-.44,5.96-1.17,1.29-.74.73-2.37,1.98-3.11,1.25-.75-1.17-3.1.05-3.86,1.22-.76,2.26-1.51,3.44-2.29,1.19-.78,2.48-1.43,3.62-2.22,1.15-.79,1.06-1.95,2.16-2.75,1.11-.81,6.56-.04,7.62-.86,1.07-.82.95-2.01,1.98-2.84,1.03-.84,2.15-1.61,3.13-2.45.98-.85,4.51-.98,5.45-1.84.94-.86-2.6-2.86-1.72-3.73.89-.87,8.15-.23,8.99-1.12.84-.89-5.33-3.28-4.53-4.18.79-.9,8.92-.35,9.67-1.26.74-.91,3.47-1.54,4.17-2.46.69-.91-.35-2.19.3-3.12.65-.92-1.54-2.29-.93-3.23.6-.93-3.57-2.45-3.01-3.39.56-.93,7.83-1.1,8.35-2.05.52-.94-5.96-2.57-5.48-3.52.48-.94,3.62-1.62,4.06-2.57.44-.95-.03-1.94.37-2.89.4-.95,5.2-1.63,5.57-2.59.36-.95,3.77-1.8,4.1-2.76.32-.96-.36-2-.07-2.96.29-.96-9.14-2.17-8.89-3.13s1.24-1.85,1.46-2.81c.22-.96.66-1.87.84-2.83.18-.96,5.98-1.93,6.13-2.89.15-.96-6.15-1.81-6.04-2.76.11-.96,9.73-2.15,9.81-3.1.08-.96-2.66-1.85-2.61-2.8.05-.96-1.64-1.85-1.63-2.8.01-.96-1.84-1.8-1.87-2.75-.02-.96-1.54-1.79-1.6-2.73-.06-.95,9.26-2.61,9.16-3.56-.09-.95-1.61-1.83-1.74-2.77-.13-.95-6.43-1.32-6.59-2.26-.16-.95,5.97-2.57,5.77-3.5-.2-.94-9.65-.8-9.88-1.73-.24-.94-1.18-1.73-1.45-2.65-.27-.94,3.56-2.4,3.25-3.32-.31-.93,6.45-2.96,6.1-3.87-.35-.93-3.42-1.46-3.81-2.36-.4-.92-6.46-.83-6.89-1.72-.44-.91,6.28-3.21,5.8-4.1-.49-.9-.26-2.03-.79-2.91-.54-.89-4.9-.98-5.48-1.84-.6-.88-1.62-1.68-2.26-2.52-.66-.87-3.45-1.16-4.15-1.99-.72-.85,5.09-3.66,4.33-4.47-.79-.84-6.83-.06-7.67-.85-.87-.81,1.72-2.91.81-3.66-.95-.78-.74-2.21-1.74-2.92-1.05-.75-6.43.29-7.53-.38-1.15-.7-4.85-.04-6.06-.65-1.26-.65-.36-2.5-1.69-3.04-1.39-.57-6.12,1.55-7.57,1.1-1.51-.47-2.9-.27-4.48-.61-1.63-.35-1.3-2.42-3-2.62Z"/>
      <path class="cls-5" d="m452.59,965.48c-1.37-.06-2.29.25-3.67.04-1.41-.21-2.64-.26-4.1-.61-1.41-.34-2.54-2.07-4.02-2.54-1.38-.44-2.61-.59-4.09-1.13-1.36-.5-2.45-1.35-3.92-1.93-1.35-.53-3.3.1-4.76-.5-1.34-.55-2.95-.74-4.4-1.35-1.31-.55-3.82.94-5.11.4-1.31-.55-1.56-2.84-2.85-3.39-1.31-.55-1.34-3.15-2.62-3.69-1.3-.55-3.25-.04-4.54-.59-1.3-.56-1.72-2.47-3-3.02-1.3-.56-4.77,2.25-6.05,1.7-1.3-.56-2.74-.92-4.02-1.47-1.3-.57-2.81-.82-4.09-1.38-1.3-.57-1.97-2.05-3.25-2.61s-1.99-2-3.26-2.56c-1.3-.57-2.83-.78-4.11-1.35-1.29-.58-2.61-1.11-3.88-1.67-1.29-.58-1.1-3.16-2.36-3.73-1.29-.58-3.1-.42-4.36-1-1.29-.58-3.95.66-5.21.09-1.29-.59-1.63-2.38-2.89-2.96-1.29-.59-3.68.25-4.94-.33-1.29-.59-1.54-2.47-2.79-3.05-1.29-.6-1.66-2.27-2.91-2.86-1.28-.6-2.08-1.73-3.33-2.31-1.28-.6-5.3,2.06-6.54,1.47-1.28-.61-1.79-2.1-3.03-2.69-1.28-.61-2.4-1.38-3.63-1.97-1.28-.61-.43-3.55-1.66-4.14-1.28-.62-5.27,1.77-6.5,1.17-1.28-.62-1.52-2.32-2.74-2.92-1.28-.63-2.96-.79-4.17-1.39-1.28-.63-2.8-.99-4-1.59-1.28-.64-3.27-.54-4.47-1.14-1.28-.65-.47-3.27-1.65-3.87-1.29-.65-3.91.02-5.08-.58-1.29-.66-.87-2.81-2.03-3.41-1.31-.68-3.18-.72-4.32-1.32-1.34-.7-4.37.18-5.46-.4-1.42-.75.11-3.64-.89-4.18-2.39-1.3-6.18-.04-6.18-.04-1.2-.68-.46-2.72-1.64-3.39-1.2-.68-3.38-.66-4.56-1.33-1.2-.68-.94-2.38-2.12-3.05-1.2-.68-3.21-.79-4.38-1.46-1.2-.68-4.25-.06-5.42-.73-1.2-.69-.23-2.87-1.4-3.54-1.2-.69-4.3-.04-5.47-.71-1.2-.69-1.24-2.16-2.41-2.83-1.2-.69-1-2.32-2.16-2.99-1.2-.69-4.42.03-5.59-.64-1.2-.69-2.17-1.52-3.34-2.19-1.2-.69-.42-2.71-1.58-3.38-1.2-.69-1.17-2.18-2.33-2.85-1.2-.69-5.56.77-6.72.1-1.2-.7-1.23-2.15-2.38-2.82-1.2-.7-1.13-2.21-2.29-2.88-1.2-.7-2.25-1.46-3.4-2.13-1.2-.7-1.9-1.69-3.04-2.36-1.2-.7-2.79-1.11-3.93-1.78-1.2-.7-3.94-.37-5.08-1.04-1.2-.71-3.15-.9-4.28-1.57-1.2-.71-4.13-.28-5.26-.95-1.2-.71-2.08-1.6-3.21-2.27-1.21-.71,2.06-4.18.93-4.85-1.21-.72-2.31-1.44-3.42-2.1-1.21-.72-3.26-.86-4.37-1.52-1.21-.73-5.32.37-6.42-.29-1.22-.73-1.75-1.81-2.85-2.47-1.22-.74-1.73-1.82-2.82-2.48-1.23-.75-1.56-1.93-2.64-2.58-1.25-.76-3.49-.8-4.55-1.45-1.26-.76-3.47-.78-4.53-1.42-1.28-.76.14-3.11-.94-3.73-1.28-.74-4.38.08-5.53-.53-1.25-.66-.83-2.9-2.11-3.5-1.2-.56-3.59.34-5-.26-1.19-.51-1.71-2.32-3.15-2.92-1.33-.55-2.93-.61-4.25-1.14-1.33-.54-2.58-1.26-3.9-1.78-1.34-.53-2.46-1.6-3.78-2.1-1.35-.51-2.27-2.22-3.6-2.72-1.35-.5-4.15,3.08-5.48,2.59-1.35-.49-1.78-3.85-3.12-4.32-1.36-.48-3.28,1.17-4.63.72-1.36-.46-2.36-2.35-3.71-2.79-1.36-.45-2.34-3.06-3.69-3.49-1.37-.44-3.17,1.6-4.52,1.18-1.37-.43-2.59-2.13-3.94-2.54-1.37-.41-3.02,2.43-4.38,2.03-1.37-.4-2.58-2.77-3.94-3.16-1.37-.39-2.71-2.43-4.06-2.8-1.37-.38-2.79-1.39-4.14-1.75-1.37-.37-2.73,1.2-4.08.85-1.38-.36-2.69.17-4.04-.17-1.38-.35-2.99-3.87-4.34-4.21-1.38-.34-2.23,4.62-3.58,4.3-1.38-.33-2.7-.78-4.05-1.1-1.38-.32-3.36-5.36-4.7-5.67-1.38-.32-2.83-1.03-4.17-1.33-1.38-.31-2.24,2.54-3.58,2.25-1.38-.3-2.4,1.25-3.74.95-1.38-.3-3.65-5.73-4.98-6.02-1.38-.3-2.38,1.4-3.71,1.11-1.38-.3-2.19,2.51-3.52,2.22-1.38-.3-3.19-3.17-4.52-3.47-1.39-.31-2.7-.31-4.03-.61-1.39-.32-3.02-3-4.35-3.31-1.4-.33-2.64-.42-3.96-.76-1.41-.36-2.66,2.55-3.98,2.19-1.42-.39-2.76-2.09-4.06-2.49-1.42-.44-3.47,1.33-4.75.87-1.41-.5-3.46-1.04-4.7-1.58-1.37-.59-1.07-3.46-2.22-4.1-1.23-.69.2-2.09-.78-2.85-.97-.76-5.75-.71-6.46-1.56-.69-.83,4-1.22,3.63-2.03-.36-.79-3-1.68-3.08-2.45-.08-.73,2.92-.35,3.07-1.05.14-.67-.15-1.23.17-1.88.3-.61-7.09-4.51-6.65-5.1.42-.57,7.43,1.95,7.97,1.41.52-.53-4.2-3.76-3.6-4.26.59-.49,6.02,1.66,6.68,1.2.65-.46.75-1.2,1.45-1.64.7-.44-3.51-3.89-2.77-4.3.75-.42,5.74,1.83,6.51,1.44.79-.4,1.31-.94,2.1-1.31.83-.38,2.38-.23,3.18-.58.87-.37-.57-2.3.24-2.63.91-.36,5.24,1.8,6.05,1.5.99-.36,1.91-.6,2.69-.86,1.32-.44-.92-3.15-.46-3.29.93-.28,2.55-.02,3.51-.29.96-.26-1.12-3.04-.13-3.29.98-.24,3.72.95,4.73.73,1-.22,1.13-1.27,2.16-1.47,1.03-.2,4.85,2.12,5.91,1.94,1.05-.18,3.07.59,4.15.43,1.07-.16,1.08-1.31,2.18-1.46,1.09-.14,3.6,1.19,4.71,1.06,1.1-.13-1.3-3.9-.18-4.01,1.12-.11,3.1.66,4.24.57,1.13-.09,1.02-1.63,2.18-1.7,1.15-.08,2.05-.52,3.22-.58,1.16-.06,5.64,3.77,6.82,3.73,1.18-.05,2.26-.17,3.45-.2,1.19-.03,3.15.96,4.35.95,1.2-.02-1.56-5.21-.34-5.22,1.21,0,6.41,5.36,7.64,5.37,1.22,0,.48-2.68,1.72-2.65,1.23.02,1.87-.83,3.11-.8,1.24.04,2.25-.32,3.5-.27,1.25.05,2.34-.2,3.6-.14,1.25.06,3.84,2.2,5.11,2.27,1.26.07,3.61,1.97,4.89,2.05,1.27.08,2.63.4,3.91.49,1.28.09.32-3.76,1.6-3.65,1.28.1,3.41,1.72,4.71,1.84,1.29.12,2.69.44,3.99.56,1.29.13,1.9-1.13,3.2-1,1.3.14,3.35,1.79,4.66,1.93,1.3.15,3.3,1.79,4.61,1.95,1.31.16,2.61.36,3.93.53,1.31.17,1.76-1.64,3.08-1.46,1.32.17,3.67,2.88,4.99,3.06,1.32.18,1.54-2.37,2.87-2.18,1.32.19,2.84.87,4.17,1.08,1.33.2,3.48,2.72,4.81,2.93,1.33.21,2.62.42,3.96.64,1.33.22,1.47-3.19,2.81-2.96,1.34.23,3.49,3.09,4.84,3.33,1.34.24,2.44-.31,3.78-.07,1.34.24,2.85,1.15,4.2,1.4,1.34.25,2.79.97,4.14,1.23,1.35.26,2.31-.99,3.67-.72,1.35.27,2.89,1.41,4.24,1.69,1.35.28,2.19-1.93,3.54-1.64,1.35.28,3.33,3.85,4.69,4.15,1.35.29,2.44-.87,3.8-.57,1.36.3,2.52-.67,3.88-.37,1.36.31,3.11,3.47,4.47,3.79,1.36.32,2.43-1.54,3.8-1.22,1.36.32,2.63-.3,3.99.03,1.36.33,2.89,2.45,4.25,2.79,1.36.34,2.82,2.39,4.18,2.73,1.36.34,2.52-3.04,3.88-2.69,1.36.35,2.84,4.13,4.2,4.49,1.36.36,2.65-3.46,4.02-3.09,1.36.37,2.77.49,4.13.86,1.36.37,2.7,3.26,4.06,3.64,1.36.38,2.72.89,4.08,1.28,1.36.39,2.89-1.67,4.25-1.28,1.36.4,2.64,2.33,4,2.74,1.36.4,2.85-.2,4.2.21,1.36.41,2.61,1.95,3.97,2.37,1.36.42,2.94-.59,4.3-.17,1.36.43,2.68,1.33,4.04,1.76,1.36.43,2.51,2.12,3.87,2.56,1.36.44,2.77.66,4.12,1.11,1.36.45,2.35,2.48,3.7,2.94,1.35.45,2.57,1.35,3.92,1.81,1.35.46,3.3-1.3,4.65-.84,1.35.47,1.83,3.83,3.18,4.31,1.35.48,2.64.95,3.99,1.43,1.35.48,2.88.28,4.22.77,1.34.49,3.7-1.76,5.04-1.26,1.34.5,2.93.47,4.27.98,1.34.51,1.58,3.61,2.91,4.12,1.34.52,3.76-1.33,5.09-.81,1.33.52,1.18,4.09,2.5,4.62,1.33.53,3.86-1.28,5.18-.74,1.32.54,2.79.88,4.11,1.42,1.32.55.95,3.96,2.26,4.51,1.32.56,3.08.3,4.39.86,1.31.56,2.91.65,4.2,1.22,1.3.57,2.46,1.32,3.76,1.9,1.3.58,4.27-1.08,5.56-.49,1.29.59,2.02,1.96,3.3,2.55,1.29.6,2.64,1.16,3.91,1.76,1.28.6,2.24,1.6,3.51,2.21,1.27.61,1.8,2.03,3.05,2.65,1.26.62,4.49-.71,5.74-.09,1.26.63.41,3.3,1.65,3.94,1.25.64,3.4.46,4.63,1.11,1.24.65,3.41.55,4.63,1.2,1.23.66.27,3.08,1.47,3.75,1.22.67,1.62,1.89,2.81,2.56,1.2.67,4.23.03,5.41.71,1.19.68,3.28.8,4.45,1.49,1.18.69,2.35,1.43,3.51,2.13,1.16.7,2.03,1.62,3.17,2.32,1.15.71,3.88.62,5.01,1.33,1.13.72,2.18,1.57,3.29,2.29,1.12.73-1.12,3.06-.03,3.79,1.1.74,3.03,1.09,4.1,1.83,1.08.74,3.56.94,4.61,1.69,1.06.75.85,1.99,1.88,2.75,1.04.76-.48,2.34.53,3.11,1.01.77,1.89,1.5,2.87,2.27.99.78,2.04,1.46,3,2.24.96.78,1.04,1.7,1.97,2.49.93.79,4.91.86,5.82,1.65.91.8.97,1.73,1.84,2.53.88.8,1.82,1.56,2.66,2.37.84.81,3.5,1.36,4.31,2.16.81.81-1.58,1.97-.81,2.78.78.81,6.13,1.22,6.87,2.03.74.82-3.57,1.96-2.86,2.79.71.82,6.73,1.41,7.4,2.24.67.82,2.8,1.68,3.44,2.51.64.82.02,1.72.62,2.54.6.82-.86,1.65-.29,2.47.57.82-2.36,1.52-1.81,2.35.54.82,6,1.87,6.51,2.7.51.82-4.13,1.31-3.65,2.14.48.82,2.92,1.76,3.37,2.58.45.82.23,1.56.65,2.37.42.81,4.1,1.97,4.5,2.78.39.81,3.06,1.92,3.42,2.73.37.81-.01,1.56.33,2.37.34.81-6.56.59-6.25,1.4.31.8,1.17,1.64,1.45,2.44.29.8.73,1.59.99,2.38.26.79,4.72,2.3,4.96,3.09.23.79-4.37.67-4.17,1.46.21.79,7.56,2.95,7.74,3.73.18.78-1.75,1.15-1.59,1.92.16.78-.99,1.28-.86,2.04.13.77-1.15,1.21-1.04,1.97.11.77-.93,1.24-.85,1.99.08.76,7.26,3.27,7.32,4.02.05.75-.97,1.27-.94,2.01.03.75-4.64.25-4.64.98,0,.74,4.8,2.82,4.77,3.54-.03.73-7.12-.57-7.18.15-.06.73-.66,1.24-.74,1.95-.08.72,2.98,2.38,2.86,3.08-.12.71,5.21,3.19,5.06,3.88-.15.7-2.37.74-2.55,1.42-.18.69-4.73-.15-4.94.51-.21.68,5.11,3.38,4.87,4.03-.25.66.07,1.6-.22,2.23-.29.65-3.54.17-3.87.78-.33.63-1,1.14-1.36,1.74-.38.62-2.44.49-2.85,1.07-.43.6,4.28,3.58,3.82,4.14-.48.57-5.11-.81-5.63-.29-.54.54,1.66,2.55,1.08,3.04-.61.51-.27,1.68-.93,2.13-.69.47-4.85-1.05-5.59-.64-.77.42-3.63-.58-4.45-.24-.86.36.05,1.96-.87,2.23-.97.28-4.78-2.02-5.81-1.84-1.07.19-2.13-.15-3.27-.07-1.17.08-.66,1.78-1.91,1.73Z"/>
    </g>
  </g>
</svg>