<?xml version="1.0" encoding="UTF-8"?>
<svg id="Calque_1" data-name="Calque 1" xmlns="http://www.w3.org/2000/svg" viewBox="0 0 114.07 114">
  <defs>
    <style>
      .cls-1 {
        fill: #1d1d1b;
        font-family: MyriadPro-Regular, 'Myriad Pro';
        font-size: 12px;
      }
    </style>
  </defs>
  <text class="cls-1" transform="translate(35.93 14.95) rotate(-24.94)"><tspan x="0" y="0">I</tspan></text>
  <text class="cls-1" transform="translate(38.26 13.7) rotate(-18.63)"><tspan x="0" y="0">N</tspan></text>
  <text class="cls-1" transform="translate(45.48 11.29) rotate(-9.99)"><tspan x="0" y="0">d</tspan></text>
  <text class="cls-1" transform="translate(51.91 10.17) rotate(-2.54)"><tspan x="0" y="0">e</tspan></text>
  <text class="cls-1" transform="translate(57.68 9.9) rotate(4.4)"><tspan x="0" y="0">e</tspan></text>
  <text class="cls-1" transform="translate(63.41 10.29) rotate(11.88)"><tspan x="0" y="0">p</tspan></text>
  <text class="cls-1" transform="translate(69.89 11.75) rotate(17.41)"><tspan x="0" y="0"> </tspan></text>
  <text class="cls-1" transform="translate(72.21 12.45) rotate(21.08)"><tspan x="0" y="0">-</tspan></text>
  <text class="cls-1" transform="translate(75.51 13.74) rotate(24.72)"><tspan x="0" y="0"> </tspan></text>
  <text class="cls-1" transform="translate(77.7 14.66) rotate(29.68)"><tspan x="0" y="0">S</tspan></text>
  <text class="cls-1" transform="translate(82.67 17.56) rotate(34.79)"><tspan x="0" y="0">i</tspan></text>
  <text class="cls-1" transform="translate(84.93 18.83) rotate(42.27)"><tspan x="0" y="0">m</tspan></text>
  <text class="cls-1" transform="translate(92.01 25.42) rotate(52.05)"><tspan x="0" y="0">p</tspan></text>
  <text class="cls-1" transform="translate(96.02 30.7) rotate(57.68)"><tspan x="0" y="0">l</tspan></text>
  <text class="cls-1" transform="translate(97.47 32.98) rotate(60.97)"><tspan x="0" y="0">i</tspan></text>
  <text class="cls-1" transform="translate(98.82 35.23) rotate(66.28)"><tspan x="0" y="0">fi</tspan></text>
  <text class="cls-1" transform="translate(101.25 40.75) rotate(73.52)"><tspan x="0" y="0">e</tspan></text>
  <text class="cls-1" transform="translate(102.89 46.32) rotate(80.1)"><tspan x="0" y="0">z</tspan></text>
  <text class="cls-1" transform="translate(103.7 51.23) rotate(84.58)"><tspan x="0" y="0"> </tspan></text>
  <text class="cls-1" transform="translate(103.97 53.15) rotate(89.07)"><tspan x="0" y="0">V</tspan></text>
  <text class="cls-1" transform="translate(104.09 59.23) rotate(96.66)"><tspan x="0" y="0">o</tspan></text>
  <text class="cls-1" transform="translate(103.3 65.54) rotate(102.84)"><tspan x="0" y="0">t</tspan></text>
  <text class="cls-1" transform="translate(102.45 69.27) rotate(107.5)"><tspan x="0" y="0">r</tspan></text>
  <text class="cls-1" transform="translate(101.44 72.72) rotate(113.19)"><tspan x="0" y="0">e</tspan></text>
  <text class="cls-1" transform="translate(99.08 78.05) rotate(118.21)"><tspan x="0" y="0"> </tspan></text>
  <text class="cls-1" transform="translate(98.08 80.19) rotate(124)"><tspan x="0" y="0">A</tspan></text>
  <text class="cls-1" transform="translate(94.15 85.94) rotate(131.24)"><tspan x="0" y="0">c</tspan></text>
  <text class="cls-1" transform="translate(90.82 89.77) rotate(137.39)"><tspan x="0" y="0">c</tspan></text>
  <text class="cls-1" transform="translate(87.1 93.24) rotate(143.94)"><tspan x="0" y="0">è</tspan></text>
  <text class="cls-1" transform="translate(82.39 96.64) rotate(150.23)"><tspan x="0" y="0">s</tspan></text>
  <text class="cls-1" transform="translate(78.49 98.83) rotate(154.32)"><tspan x="0" y="0">.</tspan></text>
  <text class="cls-1" transform="translate(76.33 99.88) rotate(157.29)"><tspan x="0" y="0"> </tspan></text>
  <text class="cls-1" transform="translate(74.28 100.95) rotate(163.97)"><tspan x="0" y="0">w</tspan></text>
  <text class="cls-1" transform="translate(65.97 103.35) rotate(174.52)"><tspan x="0" y="0">w</tspan></text>
  <text class="cls-1" transform="translate(57.36 104.2) rotate(-175.11)"><tspan x="0" y="0">w</tspan></text>
  <text class="cls-1" transform="translate(49.28 103.37) rotate(-169.06)"><tspan x="0" y="0">.</tspan></text>
  <text class="cls-1" transform="translate(46.92 102.92) rotate(-165.93)"><tspan x="0" y="0">i</tspan></text>
  <text class="cls-1" transform="translate(44.38 102.39) rotate(-160.38)"><tspan x="0" y="0">n</tspan></text>
  <text class="cls-1" transform="translate(38.31 100.16) rotate(-154.27)"><tspan x="0" y="0">-</tspan></text>
  <text class="cls-1" transform="translate(34.95 98.63) rotate(-147.9)"><tspan x="0" y="0">d</tspan></text>
  <text class="cls-1" transform="translate(29.45 95.17) rotate(-140.47)"><tspan x="0" y="0">e</tspan></text>
  <text class="cls-1" transform="translate(24.97 91.5) rotate(-133.46)"><tspan x="0" y="0">e</tspan></text>
  <text class="cls-1" transform="translate(20.98 87.35) rotate(-126)"><tspan x="0" y="0">p</tspan></text>
  <text class="cls-1" transform="translate(17.3 82.15) rotate(-120.89)"><tspan x="0" y="0">.</tspan></text>
  <text class="cls-1" transform="translate(16.07 80.13) rotate(-117.38)"><tspan x="0" y="0">f</tspan></text>
  <text class="cls-1" transform="translate(14.51 77.15) rotate(-113.01)"><tspan x="0" y="0">r</tspan></text>
  <text class="cls-1" transform="translate(13.05 73.67) rotate(-109.23)"><tspan x="0" y="0"> </tspan></text>
  <text class="cls-1" transform="translate(12.23 71.39) rotate(-105.54)"><tspan x="0" y="0">-</tspan></text>
  <text class="cls-1" transform="translate(11.29 67.96) rotate(-101.88)"><tspan x="0" y="0"> </tspan></text>
  <text class="cls-1" transform="translate(10.72 65.66) rotate(-96.79)"><tspan x="0" y="0">2</tspan></text>
  <text class="cls-1" transform="translate(9.98 59.8) rotate(-89.07)"><tspan x="0" y="0">0</tspan></text>
  <text class="cls-1" transform="translate(10.03 53.87) rotate(-82.53)"><tspan x="0" y="0">2</tspan></text>
  <text class="cls-1" transform="translate(10.78 48.01) rotate(-75.3)"><tspan x="0" y="0">4</tspan></text>
  <text class="cls-1" transform="translate(12.34 42.27) rotate(-69.51)"><tspan x="0" y="0">-</tspan></text>
  <text class="cls-1" transform="translate(13.49 38.97) rotate(-63.73)"><tspan x="0" y="0">2</tspan></text>
  <text class="cls-1" transform="translate(16.1 33.66) rotate(-56.52)"><tspan x="0" y="0">0</tspan></text>
  <text class="cls-1" transform="translate(19.34 28.72) rotate(-49.36)"><tspan x="0" y="0">2</tspan></text>
  <text class="cls-1" transform="translate(23.19 24.21) rotate(-42.18)"><tspan x="0" y="0">5</tspan></text>
  <text class="cls-1" transform="translate(27.66 20.26) rotate(-37.13)"><tspan x="0" y="0"> </tspan></text>
  <text class="cls-1" transform="translate(29.58 18.78) rotate(-33.5)"><tspan x="0" y="0">-</tspan></text>
  <text/>
</svg>