<?xml version="1.0" encoding="UTF-8"?>
<svg xmlns="http://www.w3.org/2000/svg" xmlns:xlink="http://www.w3.org/1999/xlink" viewBox="0 0 2822.08 1003.5">
  <defs>
    <style>
      .cls-1 {
        fill: url(#linear-gradient-38);
      }

      .cls-1, .cls-2, .cls-3, .cls-4, .cls-5, .cls-6, .cls-7, .cls-8, .cls-9, .cls-10, .cls-11, .cls-12, .cls-13, .cls-14, .cls-15, .cls-16, .cls-17, .cls-18, .cls-19, .cls-20, .cls-21, .cls-22, .cls-23, .cls-24, .cls-25, .cls-26, .cls-27, .cls-28, .cls-29, .cls-30, .cls-31, .cls-32, .cls-33, .cls-34, .cls-35, .cls-36, .cls-37, .cls-38, .cls-39, .cls-40, .cls-41, .cls-42, .cls-43, .cls-44, .cls-45, .cls-46, .cls-47, .cls-48, .cls-49, .cls-50, .cls-51, .cls-52, .cls-53, .cls-54, .cls-55, .cls-56, .cls-57, .cls-58, .cls-59, .cls-60, .cls-61, .cls-62, .cls-63, .cls-64, .cls-65, .cls-66, .cls-67, .cls-68, .cls-69, .cls-70, .cls-71, .cls-72, .cls-73, .cls-74, .cls-75, .cls-76, .cls-77, .cls-78, .cls-79, .cls-80, .cls-81, .cls-82, .cls-83, .cls-84, .cls-85, .cls-86, .cls-87, .cls-88, .cls-89, .cls-90, .cls-91, .cls-92, .cls-93, .cls-94, .cls-95, .cls-96, .cls-97, .cls-98, .cls-99, .cls-100, .cls-101, .cls-102, .cls-103, .cls-104, .cls-105, .cls-106, .cls-107, .cls-108, .cls-109, .cls-110, .cls-111, .cls-112, .cls-113, .cls-114, .cls-115, .cls-116, .cls-117 {
        stroke-width: 0px;
      }

      .cls-2 {
        fill: url(#linear-gradient-12);
      }

      .cls-3 {
        opacity: .84;
      }

      .cls-3, .cls-17, .cls-51 {
        fill: #fff;
      }

      .cls-4 {
        fill: url(#linear-gradient-17);
      }

      .cls-5 {
        fill: url(#linear-gradient-88);
      }

      .cls-6 {
        fill: url(#linear-gradient-19);
      }

      .cls-7 {
        fill: url(#linear-gradient-33);
      }

      .cls-8 {
        fill: url(#linear-gradient);
      }

      .cls-9 {
        fill: url(#linear-gradient-62);
      }

      .cls-10 {
        fill: url(#linear-gradient-3);
        opacity: .69;
      }

      .cls-10, .cls-15, .cls-18, .cls-24, .cls-40, .cls-60, .cls-73, .cls-74, .cls-89, .cls-100, .cls-102, .cls-103, .cls-111, .cls-115 {
        mix-blend-mode: multiply;
      }

      .cls-11 {
        fill: url(#linear-gradient-92);
      }

      .cls-12 {
        fill: url(#linear-gradient-98);
      }

      .cls-13 {
        fill: url(#linear-gradient-67);
      }

      .cls-14 {
        fill: url(#linear-gradient-57);
      }

      .cls-15 {
        fill: url(#Dégradé_sans_nom_307);
      }

      .cls-16 {
        fill: url(#linear-gradient-21);
      }

      .cls-17 {
        opacity: .38;
      }

      .cls-18 {
        fill: url(#linear-gradient-95);
        opacity: .66;
      }

      .cls-19 {
        fill: url(#linear-gradient-6);
      }

      .cls-20 {
        fill: url(#linear-gradient-76);
      }

      .cls-21 {
        fill: url(#Dégradé_sans_nom_263);
      }

      .cls-118 {
        clip-path: url(#clippath-2);
      }

      .cls-119 {
        isolation: isolate;
      }

      .cls-22 {
        fill: url(#linear-gradient-42);
      }

      .cls-23 {
        fill: url(#linear-gradient-104);
      }

      .cls-24 {
        fill: url(#linear-gradient-101);
      }

      .cls-25 {
        fill: url(#linear-gradient-15);
      }

      .cls-26 {
        fill: url(#linear-gradient-11);
      }

      .cls-27 {
        fill: url(#linear-gradient-106);
      }

      .cls-28 {
        fill: url(#linear-gradient-81);
      }

      .cls-29 {
        fill: url(#linear-gradient-73);
      }

      .cls-30 {
        fill: url(#linear-gradient-91);
      }

      .cls-31 {
        fill: none;
      }

      .cls-32 {
        fill: url(#linear-gradient-31);
      }

      .cls-33 {
        fill: url(#linear-gradient-71);
      }

      .cls-34 {
        fill: url(#linear-gradient-58);
      }

      .cls-35 {
        fill: url(#linear-gradient-63);
      }

      .cls-36 {
        fill: url(#linear-gradient-34);
      }

      .cls-37 {
        fill: url(#linear-gradient-96);
      }

      .cls-120 {
        clip-path: url(#clippath-1);
      }

      .cls-38 {
        fill: url(#linear-gradient-41);
      }

      .cls-39 {
        fill: url(#linear-gradient-89);
      }

      .cls-40 {
        fill: url(#linear-gradient-111);
      }

      .cls-41 {
        fill: url(#linear-gradient-40);
      }

      .cls-42 {
        fill: url(#linear-gradient-66);
      }

      .cls-43 {
        fill: url(#linear-gradient-13);
      }

      .cls-44 {
        fill: url(#linear-gradient-23);
      }

      .cls-45 {
        fill: url(#linear-gradient-25);
      }

      .cls-46 {
        fill: url(#linear-gradient-43);
      }

      .cls-47 {
        fill: url(#linear-gradient-16);
      }

      .cls-48 {
        fill: url(#linear-gradient-22);
      }

      .cls-49 {
        fill: url(#linear-gradient-54);
      }

      .cls-50 {
        fill: url(#linear-gradient-55);
      }

      .cls-52 {
        fill: url(#linear-gradient-110);
      }

      .cls-53 {
        fill: url(#linear-gradient-35);
      }

      .cls-54 {
        fill: url(#linear-gradient-50);
      }

      .cls-55 {
        fill: url(#linear-gradient-32);
      }

      .cls-56 {
        fill: url(#linear-gradient-60);
      }

      .cls-57 {
        fill: url(#linear-gradient-59);
      }

      .cls-58 {
        fill: url(#linear-gradient-20);
      }

      .cls-59 {
        fill: url(#linear-gradient-14);
      }

      .cls-60 {
        fill: url(#linear-gradient-105);
      }

      .cls-61 {
        fill: url(#linear-gradient-2);
      }

      .cls-62 {
        fill: url(#linear-gradient-52);
      }

      .cls-63 {
        fill: url(#linear-gradient-45);
      }

      .cls-64 {
        fill: url(#linear-gradient-93);
      }

      .cls-65 {
        fill: url(#linear-gradient-39);
      }

      .cls-66 {
        fill: url(#linear-gradient-77);
      }

      .cls-67 {
        fill: url(#linear-gradient-69);
      }

      .cls-121 {
        clip-path: url(#clippath);
      }

      .cls-68 {
        fill: url(#linear-gradient-94);
      }

      .cls-69 {
        fill: url(#linear-gradient-27);
      }

      .cls-70 {
        fill: url(#linear-gradient-100);
      }

      .cls-71 {
        fill: url(#linear-gradient-82);
      }

      .cls-72 {
        fill: url(#linear-gradient-83);
      }

      .cls-73 {
        fill: url(#linear-gradient-9);
        opacity: .72;
      }

      .cls-74 {
        fill: url(#linear-gradient-99);
      }

      .cls-75 {
        fill: url(#linear-gradient-53);
      }

      .cls-76 {
        fill: url(#linear-gradient-90);
      }

      .cls-77 {
        fill: url(#linear-gradient-85);
      }

      .cls-78 {
        fill: url(#linear-gradient-65);
      }

      .cls-79 {
        fill: url(#linear-gradient-36);
      }

      .cls-80 {
        fill: url(#linear-gradient-48);
      }

      .cls-81 {
        fill: url(#linear-gradient-49);
      }

      .cls-82 {
        fill: url(#linear-gradient-8);
      }

      .cls-83 {
        fill: url(#linear-gradient-47);
      }

      .cls-84 {
        fill: url(#linear-gradient-24);
      }

      .cls-85 {
        fill: url(#linear-gradient-26);
      }

      .cls-86 {
        fill: url(#linear-gradient-61);
      }

      .cls-87 {
        fill: url(#linear-gradient-18);
      }

      .cls-88 {
        fill: url(#linear-gradient-51);
      }

      .cls-89 {
        fill: url(#linear-gradient-109);
      }

      .cls-90 {
        fill: url(#linear-gradient-30);
      }

      .cls-91 {
        fill: url(#linear-gradient-44);
      }

      .cls-92 {
        fill: url(#linear-gradient-84);
      }

      .cls-93 {
        fill: url(#linear-gradient-68);
      }

      .cls-94 {
        fill: url(#linear-gradient-72);
      }

      .cls-95 {
        fill: url(#linear-gradient-29);
      }

      .cls-96 {
        fill: url(#linear-gradient-46);
      }

      .cls-97 {
        fill: url(#linear-gradient-64);
      }

      .cls-98 {
        fill: url(#linear-gradient-28);
      }

      .cls-99 {
        fill: url(#linear-gradient-56);
      }

      .cls-100 {
        fill: url(#linear-gradient-103);
      }

      .cls-101 {
        fill: url(#linear-gradient-10);
      }

      .cls-102 {
        fill: url(#linear-gradient-5);
        opacity: .79;
      }

      .cls-103 {
        fill: url(#linear-gradient-7);
        opacity: .82;
      }

      .cls-104 {
        fill: url(#linear-gradient-87);
      }

      .cls-105 {
        fill: url(#linear-gradient-70);
      }

      .cls-106 {
        fill: url(#linear-gradient-78);
      }

      .cls-107 {
        fill: url(#linear-gradient-86);
      }

      .cls-108 {
        fill: url(#linear-gradient-74);
      }

      .cls-109 {
        fill: url(#linear-gradient-102);
      }

      .cls-110 {
        fill: url(#linear-gradient-4);
      }

      .cls-111 {
        fill: url(#linear-gradient-97);
      }

      .cls-112 {
        fill: url(#linear-gradient-37);
      }

      .cls-113 {
        fill: url(#linear-gradient-80);
      }

      .cls-114 {
        fill: url(#linear-gradient-79);
      }

      .cls-115 {
        fill: url(#linear-gradient-107);
      }

      .cls-116 {
        fill: url(#linear-gradient-108);
      }

      .cls-117 {
        fill: url(#linear-gradient-75);
      }
    </style>
    <clipPath id="clippath">
      <rect class="cls-31" x="364.45" width="1988.14" height="846.01"/>
    </clipPath>
    <clipPath id="clippath-1">
      <rect class="cls-31" x="364.45" width="1988.14" height="846.01"/>
    </clipPath>
    <radialGradient id="Dégradé_sans_nom_263" data-name="Dégradé sans nom 263" cx="1681.29" cy="639.09" fx="1681.29" fy="639.09" r="787.96" gradientTransform="translate(-709.93 164.08) scale(1.23 .81)" gradientUnits="userSpaceOnUse">
      <stop offset="0" stop-color="#f6e48a"/>
      <stop offset=".19" stop-color="#f3da88"/>
      <stop offset=".5" stop-color="#eec082"/>
      <stop offset=".9" stop-color="#e5977a"/>
      <stop offset="1" stop-color="#e38c78"/>
    </radialGradient>
    <linearGradient id="linear-gradient" x1="1609.18" y1="760.31" x2="1663.55" y2="293.36" gradientTransform="translate(-265.8 1.92) scale(1.11 1)" gradientUnits="userSpaceOnUse">
      <stop offset="0" stop-color="#bc8fae"/>
      <stop offset="1" stop-color="#fff"/>
    </linearGradient>
    <clipPath id="clippath-2">
      <polygon class="cls-31" points="2482.27 825.08 2102.89 422.31 1988.22 548.49 1877.37 422.31 1851.98 422.31 1758.75 317.15 1618.33 434.39 1449.09 278.59 1169.78 489.52 1141.27 469.11 996.17 568.91 920.77 522.32 554.39 766.05 2482.27 825.08"/>
    </clipPath>
    <linearGradient id="Dégradé_sans_nom_307" data-name="Dégradé sans nom 307" x1="1636.6" y1="841.69" x2="1629.77" y2="356.56" gradientTransform="translate(-239.54 -46.4) rotate(1.48) scale(1.11 1) skewX(-.31)" gradientUnits="userSpaceOnUse">
      <stop offset="0" stop-color="#cd877c"/>
      <stop offset=".22" stop-color="#d69c93"/>
      <stop offset=".67" stop-color="#edd3cf"/>
      <stop offset="1" stop-color="#fff"/>
    </linearGradient>
    <linearGradient id="linear-gradient-2" x1="534.47" y1="912.09" x2="439.94" y2="645.33" gradientTransform="translate(-22.69 38.55) rotate(-1.35)" gradientUnits="userSpaceOnUse">
      <stop offset="0" stop-color="#516eaf"/>
      <stop offset=".15" stop-color="#6072ae"/>
      <stop offset=".49" stop-color="#807cac"/>
      <stop offset=".68" stop-color="#8d80ac"/>
    </linearGradient>
    <linearGradient id="linear-gradient-3" x1="595.03" y1="793.01" x2="543.02" y2="716.53" gradientTransform="translate(-22.69 38.55) rotate(-1.35)" gradientUnits="userSpaceOnUse">
      <stop offset="0" stop-color="#8d80ac"/>
      <stop offset="1" stop-color="#bc8fae" stop-opacity=".3"/>
    </linearGradient>
    <linearGradient id="linear-gradient-4" x1="1160.88" y1="890.32" x2="1032.32" y2="548.79" xlink:href="#linear-gradient-2"/>
    <linearGradient id="linear-gradient-5" x1="969.2" y1="626.84" x2="1254" y2="810.23" gradientTransform="translate(-33.18 59.32) rotate(-2.1)" gradientUnits="userSpaceOnUse">
      <stop offset=".21" stop-color="#bc8fae" stop-opacity=".3"/>
      <stop offset="1" stop-color="#8d80ac"/>
    </linearGradient>
    <linearGradient id="linear-gradient-6" x1="1608.12" y1="847.77" x2="1525.65" y2="583" gradientTransform="translate(-22.69 38.55) rotate(-1.35)" gradientUnits="userSpaceOnUse">
      <stop offset="0" stop-color="#516eaf"/>
      <stop offset="1" stop-color="#8d80ac"/>
    </linearGradient>
    <linearGradient id="linear-gradient-7" x1="1360.49" y1="652.76" x2="1595.75" y2="895.48" gradientTransform="translate(-22.69 38.55) rotate(-1.35)" gradientUnits="userSpaceOnUse">
      <stop offset="0" stop-color="#bc8fae" stop-opacity=".3"/>
      <stop offset=".3" stop-color="#a989ad" stop-opacity=".57"/>
      <stop offset=".61" stop-color="#9a84ac" stop-opacity=".8"/>
      <stop offset=".85" stop-color="#9081ac" stop-opacity=".95"/>
      <stop offset="1" stop-color="#8d80ac"/>
    </linearGradient>
    <linearGradient id="linear-gradient-8" x1="2246.58" y1="914.39" x2="2118.03" y2="572.86" gradientTransform="translate(-22.69 38.55) rotate(-1.35)" gradientUnits="userSpaceOnUse">
      <stop offset=".11" stop-color="#516eaf"/>
      <stop offset=".38" stop-color="#6674ad"/>
      <stop offset=".77" stop-color="#827cac"/>
      <stop offset="1" stop-color="#8d80ac"/>
    </linearGradient>
    <linearGradient id="linear-gradient-9" x1="2081.88" y1="661.48" x2="2475.05" y2="914.65" gradientTransform="translate(-33.18 59.32) rotate(-2.1)" gradientUnits="userSpaceOnUse">
      <stop offset="0" stop-color="#bc8fae" stop-opacity=".3"/>
      <stop offset="1" stop-color="#8d80ac"/>
    </linearGradient>
    <linearGradient id="linear-gradient-10" x1="347.99" y1="813.33" x2="325.47" y2="670.37" gradientUnits="userSpaceOnUse">
      <stop offset="0" stop-color="#2a3a54"/>
      <stop offset="1" stop-color="#516eaf"/>
    </linearGradient>
    <linearGradient id="linear-gradient-11" x1="386.03" y1="812.37" x2="371.8" y2="721.97" xlink:href="#linear-gradient-10"/>
    <linearGradient id="linear-gradient-12" x1="417.58" y1="811.01" x2="395.46" y2="670.53" xlink:href="#linear-gradient-10"/>
    <linearGradient id="linear-gradient-13" x1="510.67" y1="810.93" x2="494.41" y2="707.63" xlink:href="#linear-gradient-10"/>
    <linearGradient id="linear-gradient-14" x1="442.41" y1="811.93" x2="431.94" y2="745.46" xlink:href="#linear-gradient-10"/>
    <linearGradient id="linear-gradient-15" x1="561.62" y1="812.94" x2="542.42" y2="691.01" xlink:href="#linear-gradient-10"/>
    <linearGradient id="linear-gradient-16" x1="605.95" y1="812.37" x2="591.71" y2="721.97" xlink:href="#linear-gradient-10"/>
    <linearGradient id="linear-gradient-17" x1="663.62" y1="810.92" x2="648.17" y2="712.84" xlink:href="#linear-gradient-10"/>
    <linearGradient id="linear-gradient-18" x1="680.95" y1="811.56" x2="673.64" y2="765.15" xlink:href="#linear-gradient-10"/>
    <linearGradient id="linear-gradient-19" x1="465.61" y1="810.93" x2="449.34" y2="707.63" xlink:href="#linear-gradient-10"/>
    <linearGradient id="linear-gradient-20" x1="753.61" y1="813.33" x2="731.1" y2="670.37" xlink:href="#linear-gradient-10"/>
    <linearGradient id="linear-gradient-21" x1="791.66" y1="812.37" x2="777.42" y2="721.97" xlink:href="#linear-gradient-10"/>
    <linearGradient id="linear-gradient-22" x1="823.21" y1="811.01" x2="801.09" y2="670.53" xlink:href="#linear-gradient-10"/>
    <linearGradient id="linear-gradient-23" x1="916.3" y1="810.93" x2="900.03" y2="707.63" xlink:href="#linear-gradient-10"/>
    <linearGradient id="linear-gradient-24" x1="848.04" y1="811.93" x2="837.57" y2="745.46" xlink:href="#linear-gradient-10"/>
    <linearGradient id="linear-gradient-25" x1="967.25" y1="812.94" x2="948.04" y2="691.01" xlink:href="#linear-gradient-10"/>
    <linearGradient id="linear-gradient-26" x1="1011.58" y1="812.37" x2="997.34" y2="721.97" xlink:href="#linear-gradient-10"/>
    <linearGradient id="linear-gradient-27" x1="1069.24" y1="810.92" x2="1053.8" y2="712.84" xlink:href="#linear-gradient-10"/>
    <linearGradient id="linear-gradient-28" x1="1086.58" y1="811.56" x2="1079.27" y2="765.15" xlink:href="#linear-gradient-10"/>
    <linearGradient id="linear-gradient-29" x1="871.24" y1="810.93" x2="854.97" y2="707.63" xlink:href="#linear-gradient-10"/>
    <linearGradient id="linear-gradient-30" x1="1140.6" y1="812.64" x2="1124.04" y2="707.52" xlink:href="#linear-gradient-10"/>
    <linearGradient id="linear-gradient-31" x1="1168.57" y1="811.93" x2="1158.1" y2="745.46" xlink:href="#linear-gradient-10"/>
    <linearGradient id="linear-gradient-32" x1="1191.77" y1="810.93" x2="1175.5" y2="707.63" xlink:href="#linear-gradient-10"/>
    <linearGradient id="linear-gradient-33" x1="1260.22" y1="810.87" x2="1248.26" y2="734.92" xlink:href="#linear-gradient-10"/>
    <linearGradient id="linear-gradient-34" x1="1210.03" y1="811.6" x2="1202.33" y2="762.73" xlink:href="#linear-gradient-10"/>
    <linearGradient id="linear-gradient-35" x1="1297.68" y1="812.35" x2="1283.56" y2="722.69" xlink:href="#linear-gradient-10"/>
    <linearGradient id="linear-gradient-36" x1="1330.27" y1="811.93" x2="1319.81" y2="745.46" xlink:href="#linear-gradient-10"/>
    <linearGradient id="linear-gradient-37" x1="1372.68" y1="810.86" x2="1361.32" y2="738.75" xlink:href="#linear-gradient-10"/>
    <linearGradient id="linear-gradient-38" x1="1385.42" y1="811.33" x2="1380.05" y2="777.21" xlink:href="#linear-gradient-10"/>
    <linearGradient id="linear-gradient-39" x1="1425.17" y1="812.23" x2="1412.11" y2="729.3" xlink:href="#linear-gradient-10"/>
    <linearGradient id="linear-gradient-40" x1="1455.32" y1="811.83" x2="1445.64" y2="750.36" xlink:href="#linear-gradient-10"/>
    <linearGradient id="linear-gradient-41" x1="1494.54" y1="810.85" x2="1484.04" y2="744.15" xlink:href="#linear-gradient-10"/>
    <linearGradient id="linear-gradient-42" x1="1506.33" y1="811.29" x2="1501.36" y2="779.73" xlink:href="#linear-gradient-10"/>
    <linearGradient id="linear-gradient-43" x1="1227.08" y1="810.87" x2="1215.12" y2="734.92" xlink:href="#linear-gradient-10"/>
    <linearGradient id="linear-gradient-44" x1="1531.56" y1="812.64" x2="1515.01" y2="707.52" xlink:href="#linear-gradient-10"/>
    <linearGradient id="linear-gradient-45" x1="1559.54" y1="811.93" x2="1549.07" y2="745.46" xlink:href="#linear-gradient-10"/>
    <linearGradient id="linear-gradient-46" x1="1582.74" y1="810.93" x2="1566.47" y2="707.63" xlink:href="#linear-gradient-10"/>
    <linearGradient id="linear-gradient-47" x1="1651.18" y1="810.87" x2="1639.22" y2="734.92" xlink:href="#linear-gradient-10"/>
    <linearGradient id="linear-gradient-48" x1="1600.99" y1="811.6" x2="1593.29" y2="762.73" xlink:href="#linear-gradient-10"/>
    <linearGradient id="linear-gradient-49" x1="1688.64" y1="812.35" x2="1674.52" y2="722.69" xlink:href="#linear-gradient-10"/>
    <linearGradient id="linear-gradient-50" x1="1721.24" y1="811.93" x2="1710.77" y2="745.46" xlink:href="#linear-gradient-10"/>
    <linearGradient id="linear-gradient-51" x1="1618.05" y1="810.87" x2="1606.09" y2="734.92" xlink:href="#linear-gradient-10"/>
    <linearGradient id="linear-gradient-52" x1="1097.64" y1="813.33" x2="1075.13" y2="670.37" xlink:href="#linear-gradient-10"/>
    <linearGradient id="linear-gradient-53" x1="1135.68" y1="812.37" x2="1121.45" y2="721.97" xlink:href="#linear-gradient-10"/>
    <linearGradient id="linear-gradient-54" x1="1167.24" y1="811.01" x2="1145.11" y2="670.53" xlink:href="#linear-gradient-10"/>
    <linearGradient id="linear-gradient-55" x1="1260.32" y1="810.93" x2="1244.06" y2="707.63" xlink:href="#linear-gradient-10"/>
    <linearGradient id="linear-gradient-56" x1="1192.06" y1="811.93" x2="1181.6" y2="745.46" xlink:href="#linear-gradient-10"/>
    <linearGradient id="linear-gradient-57" x1="1311.27" y1="812.94" x2="1292.07" y2="691.01" xlink:href="#linear-gradient-10"/>
    <linearGradient id="linear-gradient-58" x1="1355.6" y1="812.37" x2="1341.37" y2="721.97" xlink:href="#linear-gradient-10"/>
    <linearGradient id="linear-gradient-59" x1="1413.27" y1="810.92" x2="1397.83" y2="712.84" xlink:href="#linear-gradient-10"/>
    <linearGradient id="linear-gradient-60" x1="1430.6" y1="811.56" x2="1423.3" y2="765.15" xlink:href="#linear-gradient-10"/>
    <linearGradient id="linear-gradient-61" x1="1215.26" y1="810.93" x2="1199" y2="707.63" xlink:href="#linear-gradient-10"/>
    <linearGradient id="linear-gradient-62" x1="1503.27" y1="813.33" x2="1480.75" y2="670.37" xlink:href="#linear-gradient-10"/>
    <linearGradient id="linear-gradient-63" x1="1541.31" y1="812.37" x2="1527.07" y2="721.97" xlink:href="#linear-gradient-10"/>
    <linearGradient id="linear-gradient-64" x1="1572.86" y1="811.01" x2="1550.74" y2="670.53" xlink:href="#linear-gradient-10"/>
    <linearGradient id="linear-gradient-65" x1="1665.95" y1="810.93" x2="1649.68" y2="707.63" xlink:href="#linear-gradient-10"/>
    <linearGradient id="linear-gradient-66" x1="1597.69" y1="811.93" x2="1587.22" y2="745.46" xlink:href="#linear-gradient-10"/>
    <linearGradient id="linear-gradient-67" x1="1716.9" y1="812.94" x2="1697.7" y2="691.01" xlink:href="#linear-gradient-10"/>
    <linearGradient id="linear-gradient-68" x1="1761.23" y1="812.37" x2="1746.99" y2="721.97" xlink:href="#linear-gradient-10"/>
    <linearGradient id="linear-gradient-69" x1="1818.9" y1="810.92" x2="1803.45" y2="712.84" xlink:href="#linear-gradient-10"/>
    <linearGradient id="linear-gradient-70" x1="1836.23" y1="811.56" x2="1828.92" y2="765.15" xlink:href="#linear-gradient-10"/>
    <linearGradient id="linear-gradient-71" x1="1620.89" y1="810.93" x2="1604.62" y2="707.63" xlink:href="#linear-gradient-10"/>
    <linearGradient id="linear-gradient-72" x1="1890.25" y1="812.64" x2="1873.69" y2="707.52" xlink:href="#linear-gradient-10"/>
    <linearGradient id="linear-gradient-73" x1="1918.22" y1="811.93" x2="1907.76" y2="745.46" xlink:href="#linear-gradient-10"/>
    <linearGradient id="linear-gradient-74" x1="1941.42" y1="810.93" x2="1925.16" y2="707.63" xlink:href="#linear-gradient-10"/>
    <linearGradient id="linear-gradient-75" x1="2009.87" y1="810.87" x2="1997.91" y2="734.92" xlink:href="#linear-gradient-10"/>
    <linearGradient id="linear-gradient-76" x1="1959.68" y1="811.6" x2="1951.98" y2="762.73" xlink:href="#linear-gradient-10"/>
    <linearGradient id="linear-gradient-77" x1="2047.33" y1="812.35" x2="2033.21" y2="722.69" xlink:href="#linear-gradient-10"/>
    <linearGradient id="linear-gradient-78" x1="2079.93" y1="811.93" x2="2069.46" y2="745.46" xlink:href="#linear-gradient-10"/>
    <linearGradient id="linear-gradient-79" x1="2122.33" y1="810.86" x2="2110.97" y2="738.75" xlink:href="#linear-gradient-10"/>
    <linearGradient id="linear-gradient-80" x1="2135.07" y1="811.33" x2="2129.7" y2="777.21" xlink:href="#linear-gradient-10"/>
    <linearGradient id="linear-gradient-81" x1="2174.83" y1="812.23" x2="2161.77" y2="729.3" xlink:href="#linear-gradient-10"/>
    <linearGradient id="linear-gradient-82" x1="2204.98" y1="811.83" x2="2195.29" y2="750.36" xlink:href="#linear-gradient-10"/>
    <linearGradient id="linear-gradient-83" x1="2244.19" y1="810.85" x2="2233.69" y2="744.15" xlink:href="#linear-gradient-10"/>
    <linearGradient id="linear-gradient-84" x1="2255.98" y1="811.29" x2="2251.01" y2="779.73" xlink:href="#linear-gradient-10"/>
    <linearGradient id="linear-gradient-85" x1="1976.74" y1="810.87" x2="1964.78" y2="734.92" xlink:href="#linear-gradient-10"/>
    <linearGradient id="linear-gradient-86" x1="2281.21" y1="812.64" x2="2264.66" y2="707.52" xlink:href="#linear-gradient-10"/>
    <linearGradient id="linear-gradient-87" x1="2309.19" y1="811.93" x2="2298.72" y2="745.46" xlink:href="#linear-gradient-10"/>
    <linearGradient id="linear-gradient-88" x1="2332.39" y1="810.93" x2="2316.12" y2="707.63" xlink:href="#linear-gradient-10"/>
    <linearGradient id="linear-gradient-89" x1="2400.84" y1="810.87" x2="2388.87" y2="734.92" xlink:href="#linear-gradient-10"/>
    <linearGradient id="linear-gradient-90" x1="2350.64" y1="811.6" x2="2342.95" y2="762.73" xlink:href="#linear-gradient-10"/>
    <linearGradient id="linear-gradient-91" x1="2438.3" y1="812.35" x2="2424.18" y2="722.69" xlink:href="#linear-gradient-10"/>
    <linearGradient id="linear-gradient-92" x1="2470.89" y1="811.93" x2="2460.42" y2="745.46" xlink:href="#linear-gradient-10"/>
    <linearGradient id="linear-gradient-93" x1="2367.7" y1="810.87" x2="2355.74" y2="734.92" xlink:href="#linear-gradient-10"/>
    <linearGradient id="linear-gradient-94" x1="1356.89" y1="849.6" x2="1357.68" y2="600.41" gradientUnits="userSpaceOnUse">
      <stop offset="0" stop-color="#2a3a54"/>
      <stop offset=".24" stop-color="#314365"/>
      <stop offset=".72" stop-color="#445d91"/>
      <stop offset="1" stop-color="#516eaf"/>
    </linearGradient>
    <linearGradient id="linear-gradient-95" x1="1399.13" y1="874.95" x2="1395.23" y2="683.92" gradientUnits="userSpaceOnUse">
      <stop offset=".22" stop-color="#2a3a54"/>
      <stop offset=".37" stop-color="#2c3d59" stop-opacity=".94"/>
      <stop offset=".56" stop-color="#33466a" stop-opacity=".75"/>
      <stop offset=".76" stop-color="#3f5685" stop-opacity=".45"/>
      <stop offset=".98" stop-color="#4f6cab" stop-opacity=".04"/>
      <stop offset="1" stop-color="#516eaf" stop-opacity="0"/>
    </linearGradient>
    <linearGradient id="linear-gradient-96" x1="2109.86" y1="835.63" x2="2122.58" y2="431.92" xlink:href="#linear-gradient-10"/>
    <linearGradient id="linear-gradient-97" x1="2107.91" y1="897.53" x2="2120.63" y2="493.82" gradientUnits="userSpaceOnUse">
      <stop offset="0" stop-color="#2a3a54"/>
      <stop offset="1" stop-color="#516eaf" stop-opacity="0"/>
    </linearGradient>
    <linearGradient id="linear-gradient-98" x1="1959.37" y1="854.08" x2="1967.74" y2="588.55" xlink:href="#linear-gradient-10"/>
    <linearGradient id="linear-gradient-99" x1="1958.09" y1="894.79" x2="1966.45" y2="629.26" gradientUnits="userSpaceOnUse">
      <stop offset="0" stop-color="#2a3a54"/>
      <stop offset=".19" stop-color="#2d3e5b" stop-opacity=".92"/>
      <stop offset=".46" stop-color="#364a70" stop-opacity=".69"/>
      <stop offset=".78" stop-color="#445d92" stop-opacity=".31"/>
      <stop offset="1" stop-color="#516eaf" stop-opacity="0"/>
    </linearGradient>
    <linearGradient id="linear-gradient-100" x1="1520.68" y1="884.45" x2="1529.04" y2="618.92" xlink:href="#linear-gradient-10"/>
    <linearGradient id="linear-gradient-101" x1="1519.39" y1="925.16" x2="1527.76" y2="659.63" xlink:href="#linear-gradient-99"/>
    <linearGradient id="linear-gradient-102" x1="1215.77" y1="875.77" x2="1224.13" y2="610.24" xlink:href="#linear-gradient-10"/>
    <linearGradient id="linear-gradient-103" x1="1214.49" y1="916.48" x2="1222.85" y2="650.95" xlink:href="#linear-gradient-99"/>
    <linearGradient id="linear-gradient-104" x1="534.96" y1="860.04" x2="545.5" y2="525.42" xlink:href="#linear-gradient-10"/>
    <linearGradient id="linear-gradient-105" x1="531.14" y1="981.35" x2="541.68" y2="646.73" xlink:href="#linear-gradient-97"/>
    <linearGradient id="linear-gradient-106" x1="874.09" y1="829.67" x2="884.63" y2="495.05" xlink:href="#linear-gradient-10"/>
    <linearGradient id="linear-gradient-107" x1="871.92" y1="898.61" x2="882.46" y2="563.99" xlink:href="#linear-gradient-97"/>
    <linearGradient id="linear-gradient-108" x1="1409.24" y1="862.21" x2="1419.78" y2="527.59" xlink:href="#linear-gradient-10"/>
    <linearGradient id="linear-gradient-109" x1="1408.17" y1="896.26" x2="1418.71" y2="561.64" gradientUnits="userSpaceOnUse">
      <stop offset=".15" stop-color="#2a3a54"/>
      <stop offset="1" stop-color="#516eaf" stop-opacity="0"/>
    </linearGradient>
    <linearGradient id="linear-gradient-110" x1="758.98" y1="901.26" x2="769.51" y2="566.64" xlink:href="#linear-gradient-10"/>
    <linearGradient id="linear-gradient-111" x1="759.11" y1="896.96" x2="769.65" y2="562.34" gradientUnits="userSpaceOnUse">
      <stop offset="0" stop-color="#2a3a54"/>
      <stop offset=".2" stop-color="#2c3d59" stop-opacity=".94"/>
      <stop offset=".43" stop-color="#324568" stop-opacity=".77"/>
      <stop offset=".68" stop-color="#3d5482" stop-opacity=".49"/>
      <stop offset=".94" stop-color="#4d68a5" stop-opacity=".1"/>
      <stop offset="1" stop-color="#516eaf" stop-opacity="0"/>
    </linearGradient>
  </defs>
  <g class="cls-119">
    <g id="Calque_1" data-name="Calque 1">
      <g class="cls-121">
        <g>
          <g class="cls-120">
            <rect class="cls-21" x="364.45" width="1988.14" height="846.01"/>
            <path class="cls-17" d="m1778.74,792.13L0,790.63s63.09-180.82,295.31-182.19c107.66-.64,169.49,39.16,203.99,77.32,20.01,22.13,57.62,22.86,78.55,1.4,30.76-31.52,85.31-61.99,181.03-60.51,69.43,1.08,109.06,37.67,130.89,71.37,15.07,23.28,49.7,29.35,74.24,13.59,33.52-21.52,83.83-42.94,150.51-41.9,94.31,1.47,145.34,35.61,171.29,63.25,21.24,22.63,52.06,36.53,85.26,38.23l407.67,20.91Z"/>
            <g>
              <g>
                <polygon class="cls-8" points="2482.27 825.08 2102.89 422.31 1988.22 548.49 1877.37 422.31 1851.98 422.31 1758.75 317.15 1618.33 434.39 1449.09 278.59 1169.78 489.52 1141.27 469.11 996.17 568.91 920.77 522.32 554.39 766.05 2482.27 825.08"/>
                <g class="cls-118">
                  <path class="cls-15" d="m2102.89,422.31l90.15,149.03-69.36-35.69-77.13,35.69,67.61-8.06,52.29,55.79-42.77-15.38,54.34,56.26-89.12-44.31-17.53,6.41-193.99-199.75h-25.38l-93.23-105.16,88.71,125.3-34.96-20.14,31.21,40.28-84.95-64.54-91.59,48.43,86.11-24.17,128,120.83-97.66-60.42,100.81,100.61-125.67-78.94-36.05,9.7-273.61-235.51,97.87,131.64-90.15-80.56,27.12,92.64,49.77,46.81-114.46-66.94-174.34,86.6,155.56-46.32,127.56,109.39-135.07-61.06-148.05,47.89,134.68-10.58,138.74,104.77-253.09-69.57-15.37,5.66-108.61-99.83,23.57,50.65-19.8-3.77,27.26,52.21-67.08-16.36-80.77,44.92-28.27-27.85-75.4-46.59,35.4,61.1-25.84-.08,4.97,35.73-147.06,58.4-236.68,90.62,1736.69,48.94h265.4l-450.75-394.72Z"/>
                </g>
              </g>
              <g>
                <path class="cls-61" d="m794.86,764.92s-174.63-81.6-197.98-78.94c-23.35,2.67-448.82,128.35-448.82,128.35l674.03-4.88-27.23-44.53Z"/>
                <path class="cls-10" d="m744.32,742.4l-76.75-33.51s36.8,36.97-6.45,28.55c-43.25-8.42-86.43-14.56-70.43-3.41,16,11.15,51.91,33.39,16.62,29.4-35.29-3.99-54.74-1.39-46.62,7.61,8.12,9-54.35,10.02-86.05-3.16-31.7-13.18-43.98-7.1-19.54,11.25,24.44,18.35,13.27,34.51-22.26,23.68-35.52-10.83-52.49,9.83-52.49,9.83l215.52-3.19,148.45-67.06Z"/>
              </g>
              <g>
                <polygon class="cls-110" points="508.96 811.52 964.6 632.84 1074 643.89 1224.62 598.35 1436.64 690.34 1736.06 811.42 508.96 811.52"/>
                <path class="cls-102" d="m1503.48,717.37l-225.87-96.03s109.69,77.08,47.93,64.82c-61.77-12.27-62.89,3.49-42.57,36.86,20.32,33.37-104.91-59.95-122.27-47.78-17.36,12.17-161.7-57.2-196.1-42.4-34.39,14.8,169.53,127.81,79.8,117.96-89.73-9.85-136.2-31.33-113.64,3.78,22.56,35.12,27.02,45.44-32.44,29.57-59.46-15.87-99.78,27.34-99.78,27.34l680.72-1.15,24.23-92.98Z"/>
              </g>
              <path class="cls-19" d="m2156.38,826.53l-375.29-123.97-89.49,10.49-91.59-21.76-565.39,123.24s1121.13-6.95,1121.77,12Z"/>
              <path class="cls-103" d="m1857.45,826.53l-319.43-105.52s80.69,30.9,44.11,28.47c-36.58-2.42-39.77,1.66-2.74,15.15,37.03,13.49,114.34,38.4,71.01,35.08-43.34-3.32-203.45-73.32-203.45-73.32l-63.07-14.98s104.28,38.6,64.91,40.26c-39.37,1.65-62.76-1.99-35.57,15.69,27.2,17.68,22.7,33.95-26.53,27.67-49.23-6.29-8.8,9.16-25.42,9.43-16.62.27-123.7-20.12-119.84-4.08,3.87,16.05-64.72,14.95-64.72,14.95l680.73,11.2Z"/>
              <g>
                <polygon class="cls-82" points="1594.9 810.06 2050.54 631.39 2159.95 642.43 2310.56 596.89 2522.58 688.89 2822 809.96 1594.9 810.06"/>
                <path class="cls-73" d="m2822.08,812.08l-458.52-192.19s109.69,77.08,47.93,64.82c-61.77-12.27-62.89,3.49-42.57,36.86,20.32,33.37-104.91-59.95-122.27-47.78-17.36,12.17-161.7-57.2-196.1-42.4-34.39,14.8,169.53,127.81,79.8,117.96-89.73-9.85-136.2-31.33-113.64,3.78,22.56,35.12,27.02,45.44-32.44,29.57-59.46-15.87-99.78,27.34-99.78,27.34l680.72-1.15,256.88,3.18Z"/>
              </g>
            </g>
            <g>
              <g>
                <polygon class="cls-101" points="347.57 675.99 305.25 810.71 389.9 810.71 347.57 675.99"/>
                <polygon class="cls-26" points="385.77 725.52 359.01 810.71 412.53 810.71 385.77 725.52"/>
                <polygon class="cls-2" points="417.54 675.99 390.77 810.71 444.3 810.71 417.54 675.99"/>
                <polygon class="cls-43" points="510.64 711.65 490.96 810.71 530.32 810.71 510.64 711.65"/>
                <polygon class="cls-59" points="442.22 748.07 422.54 810.71 461.9 810.71 442.22 748.07"/>
                <polygon class="cls-25" points="561.27 695.8 525.17 810.71 597.37 810.71 561.27 695.8"/>
                <polygon class="cls-47" points="605.69 725.52 578.93 810.71 632.45 810.71 605.69 725.52"/>
                <polygon class="cls-4" points="663.59 716.66 644.9 810.71 682.27 810.71 663.59 716.66"/>
                <polygon class="cls-87" points="680.82 766.98 667.08 810.71 694.55 810.71 680.82 766.98"/>
                <polygon class="cls-6" points="465.58 711.65 445.9 810.71 485.25 810.71 465.58 711.65"/>
                <polygon class="cls-58" points="753.2 675.99 710.88 810.71 795.52 810.71 753.2 675.99"/>
                <polygon class="cls-16" points="791.4 725.52 764.63 810.71 818.16 810.71 791.4 725.52"/>
                <polygon class="cls-48" points="823.16 675.99 796.4 810.71 849.93 810.71 823.16 675.99"/>
                <polygon class="cls-44" points="916.26 711.65 896.58 810.71 935.94 810.71 916.26 711.65"/>
                <polygon class="cls-84" points="847.84 748.07 828.17 810.71 867.52 810.71 847.84 748.07"/>
                <polygon class="cls-45" points="966.89 695.8 930.79 810.71 1002.99 810.71 966.89 695.8"/>
                <polygon class="cls-85" points="1011.32 725.52 984.55 810.71 1038.08 810.71 1011.32 725.52"/>
                <polygon class="cls-69" points="1069.21 716.66 1050.53 810.71 1087.9 810.71 1069.21 716.66"/>
                <polygon class="cls-98" points="1086.44 766.98 1072.7 810.71 1100.18 810.71 1086.44 766.98"/>
                <polygon class="cls-95" points="871.2 711.65 851.52 810.71 890.88 810.71 871.2 711.65"/>
                <polygon class="cls-90" points="1140.29 711.65 1109.17 810.71 1171.41 810.71 1140.29 711.65"/>
                <polygon class="cls-32" points="1168.38 748.07 1148.7 810.71 1188.06 810.71 1168.38 748.07"/>
                <polygon class="cls-55" points="1191.74 711.65 1172.06 810.71 1211.41 810.71 1191.74 711.65"/>
                <polygon class="cls-7" points="1260.19 737.87 1245.72 810.71 1274.66 810.71 1260.19 737.87"/>
                <polygon class="cls-36" points="1209.88 764.65 1195.41 810.71 1224.35 810.71 1209.88 764.65"/>
                <polygon class="cls-53" points="1297.42 726.22 1270.88 810.71 1323.96 810.71 1297.42 726.22"/>
                <polygon class="cls-79" points="1330.08 748.07 1310.4 810.71 1349.76 810.71 1330.08 748.07"/>
                <polygon class="cls-112" points="1372.65 741.55 1358.92 810.71 1386.39 810.71 1372.65 741.55"/>
                <polygon class="cls-1" points="1385.32 778.55 1375.22 810.71 1395.43 810.71 1385.32 778.55"/>
                <polygon class="cls-65" points="1424.93 732.56 1400.38 810.71 1449.48 810.71 1424.93 732.56"/>
                <polygon class="cls-41" points="1455.14 752.77 1436.94 810.71 1473.35 810.71 1455.14 752.77"/>
                <polygon class="cls-38" points="1494.52 746.75 1481.81 810.71 1507.23 810.71 1494.52 746.75"/>
                <polygon class="cls-22" points="1506.24 780.97 1496.89 810.71 1515.58 810.71 1506.24 780.97"/>
                <polygon class="cls-46" points="1227.06 737.87 1212.59 810.71 1241.53 810.71 1227.06 737.87"/>
                <polygon class="cls-91" points="1531.26 711.65 1500.14 810.71 1562.38 810.71 1531.26 711.65"/>
                <polygon class="cls-63" points="1559.34 748.07 1539.66 810.71 1579.02 810.71 1559.34 748.07"/>
                <polygon class="cls-96" points="1582.7 711.65 1563.02 810.71 1602.38 810.71 1582.7 711.65"/>
                <polygon class="cls-83" points="1651.16 737.87 1636.69 810.71 1665.63 810.71 1651.16 737.87"/>
                <polygon class="cls-80" points="1600.85 764.65 1586.38 810.71 1615.32 810.71 1600.85 764.65"/>
                <polygon class="cls-81" points="1688.38 726.22 1661.84 810.71 1714.93 810.71 1688.38 726.22"/>
                <polygon class="cls-54" points="1721.05 748.07 1701.37 810.71 1740.73 810.71 1721.05 748.07"/>
                <polygon class="cls-88" points="1618.02 737.87 1603.55 810.71 1632.49 810.71 1618.02 737.87"/>
              </g>
              <g>
                <polygon class="cls-62" points="1097.23 675.99 1054.9 810.71 1139.55 810.71 1097.23 675.99"/>
                <polygon class="cls-75" points="1135.42 725.52 1108.66 810.71 1162.19 810.71 1135.42 725.52"/>
                <polygon class="cls-49" points="1167.19 675.99 1140.43 810.71 1193.95 810.71 1167.19 675.99"/>
                <polygon class="cls-50" points="1260.29 711.65 1240.61 810.71 1279.97 810.71 1260.29 711.65"/>
                <polygon class="cls-99" points="1191.87 748.07 1172.19 810.71 1211.55 810.71 1191.87 748.07"/>
                <polygon class="cls-14" points="1310.92 695.8 1274.82 810.71 1347.02 810.71 1310.92 695.8"/>
                <polygon class="cls-34" points="1355.34 725.52 1328.58 810.71 1382.1 810.71 1355.34 725.52"/>
                <polygon class="cls-57" points="1413.24 716.66 1394.55 810.71 1431.92 810.71 1413.24 716.66"/>
                <polygon class="cls-56" points="1430.47 766.98 1416.73 810.71 1444.21 810.71 1430.47 766.98"/>
                <polygon class="cls-86" points="1215.23 711.65 1195.55 810.71 1234.91 810.71 1215.23 711.65"/>
                <polygon class="cls-9" points="1502.85 675.99 1460.53 810.71 1545.18 810.71 1502.85 675.99"/>
                <polygon class="cls-35" points="1541.05 725.52 1514.29 810.71 1567.81 810.71 1541.05 725.52"/>
                <polygon class="cls-97" points="1572.82 675.99 1546.05 810.71 1599.58 810.71 1572.82 675.99"/>
                <polygon class="cls-78" points="1665.92 711.65 1646.24 810.71 1685.6 810.71 1665.92 711.65"/>
                <polygon class="cls-42" points="1597.5 748.07 1577.82 810.71 1617.18 810.71 1597.5 748.07"/>
                <polygon class="cls-13" points="1716.55 695.8 1680.45 810.71 1752.65 810.71 1716.55 695.8"/>
                <polygon class="cls-93" points="1760.97 725.52 1734.2 810.71 1787.73 810.71 1760.97 725.52"/>
                <polygon class="cls-67" points="1818.86 716.66 1800.18 810.71 1837.55 810.71 1818.86 716.66"/>
                <polygon class="cls-105" points="1836.1 766.98 1822.36 810.71 1849.83 810.71 1836.1 766.98"/>
                <polygon class="cls-33" points="1620.85 711.65 1601.18 810.71 1640.53 810.71 1620.85 711.65"/>
                <polygon class="cls-94" points="1889.94 711.65 1858.82 810.71 1921.06 810.71 1889.94 711.65"/>
                <polygon class="cls-29" points="1918.03 748.07 1898.35 810.71 1937.71 810.71 1918.03 748.07"/>
                <polygon class="cls-108" points="1941.39 711.65 1921.71 810.71 1961.07 810.71 1941.39 711.65"/>
                <polygon class="cls-117" points="2009.84 737.87 1995.37 810.71 2024.31 810.71 2009.84 737.87"/>
                <polygon class="cls-20" points="1959.54 764.65 1945.07 810.71 1974.01 810.71 1959.54 764.65"/>
                <polygon class="cls-66" points="2047.07 726.22 2020.53 810.71 2073.62 810.71 2047.07 726.22"/>
                <polygon class="cls-106" points="2079.74 748.07 2060.06 810.71 2099.41 810.71 2079.74 748.07"/>
                <polygon class="cls-114" points="2122.31 741.55 2108.57 810.71 2136.05 810.71 2122.31 741.55"/>
                <polygon class="cls-113" points="2134.98 778.55 2124.87 810.71 2145.08 810.71 2134.98 778.55"/>
                <polygon class="cls-28" points="2174.59 732.56 2150.04 810.71 2199.14 810.71 2174.59 732.56"/>
                <polygon class="cls-71" points="2204.8 752.77 2186.6 810.71 2223 810.71 2204.8 752.77"/>
                <polygon class="cls-72" points="2244.17 746.75 2231.47 810.71 2256.88 810.71 2244.17 746.75"/>
                <polygon class="cls-92" points="2255.89 780.97 2246.55 810.71 2265.23 810.71 2255.89 780.97"/>
                <polygon class="cls-77" points="1976.71 737.87 1962.24 810.71 1991.18 810.71 1976.71 737.87"/>
                <polygon class="cls-107" points="2280.91 711.65 2249.79 810.71 2312.03 810.71 2280.91 711.65"/>
                <polygon class="cls-104" points="2309 748.07 2289.32 810.71 2328.68 810.71 2309 748.07"/>
                <polygon class="cls-5" points="2332.35 711.65 2312.67 810.71 2352.03 810.71 2332.35 711.65"/>
                <polygon class="cls-39" points="2400.81 737.87 2386.34 810.71 2415.28 810.71 2400.81 737.87"/>
                <polygon class="cls-76" points="2350.5 764.65 2336.03 810.71 2364.97 810.71 2350.5 764.65"/>
                <polygon class="cls-30" points="2438.04 726.22 2411.49 810.71 2464.58 810.71 2438.04 726.22"/>
                <polygon class="cls-11" points="2470.7 748.07 2451.02 810.71 2490.38 810.71 2470.7 748.07"/>
                <polygon class="cls-64" points="2367.68 737.87 2353.21 810.71 2382.15 810.71 2367.68 737.87"/>
              </g>
            </g>
            <path class="cls-3" d="m1916.64,395.38l611.76-.42s-21.7-50.74-101.57-51.13c-37.03-.18-58.29,10.99-70.16,21.7-6.88,6.21-19.82,6.41-27.02.39-10.58-8.85-29.34-17.4-62.26-16.98-23.88.3-37.51,10.57-45.02,20.03-5.18,6.53-17.09,8.24-25.53,3.81-11.53-6.04-28.83-12.05-51.76-11.76-32.44.41-49.99,9.99-58.91,17.75-7.31,6.35-17.9,10.25-29.32,10.73l-140.21,5.87Z"/>
            <path class="cls-17" d="m2269.5,331.61l-824.29-.57s29.24-68.37,136.85-68.89c49.89-.24,78.54,14.81,94.53,29.24,9.27,8.37,26.7,8.64,36.4.53,14.25-11.92,39.54-23.44,83.89-22.88,32.17.41,50.54,14.24,60.66,26.99,6.99,8.8,23.03,11.1,34.4,5.14,15.53-8.14,38.85-16.24,69.75-15.84,43.71.56,67.35,13.46,79.38,23.92,9.84,8.56,24.12,13.81,39.51,14.46l188.92,7.91Z"/>
            <rect class="cls-68" x="308.45" y="806.96" width="2097.03" height="39.05"/>
            <path class="cls-51" d="m1815.67,240.78l372.18-.26s-13.2-30.87-61.79-31.1c-22.53-.11-35.46,6.69-42.68,13.2-4.19,3.78-12.06,3.9-16.44.24-6.44-5.38-17.85-10.58-37.88-10.33-14.53.18-22.82,6.43-27.39,12.18-3.15,3.97-10.4,5.01-15.53,2.32-7.01-3.67-17.54-7.33-31.49-7.15-19.73.25-30.41,6.08-35.84,10.8-4.44,3.86-10.89,6.24-17.84,6.53l-85.3,3.57Z"/>
          </g>
          <polygon class="cls-18" points="2470.7 748.07 2457.8 789.13 2438.04 726.22 2413.81 803.33 2400.81 737.87 2387.08 806.96 2381.4 806.96 2367.68 737.87 2357.76 787.77 2350.5 764.65 2345.83 779.51 2332.35 711.65 2318.87 779.51 2309 748.07 2300.67 774.56 2280.91 711.65 2257.51 786.13 2255.89 780.97 2252.88 790.56 2244.17 746.75 2232.21 806.96 2221.82 806.96 2204.8 752.77 2192.87 790.75 2174.59 732.56 2151.21 806.96 2143.9 806.96 2134.98 778.55 2131.72 788.93 2122.31 741.55 2109.31 806.96 2098.24 806.96 2079.74 748.07 2066.84 789.13 2047.07 726.22 2022.85 803.33 2009.84 737.87 1996.12 806.96 1990.44 806.96 1976.71 737.87 1966.8 787.77 1959.54 764.65 1954.87 779.51 1941.39 711.65 1927.91 779.51 1918.03 748.07 1909.71 774.56 1889.94 711.65 1860 806.96 1848.66 806.96 1836.1 766.98 1831.66 781.08 1818.86 716.66 1800.92 806.96 1786.55 806.96 1760.97 725.52 1743.42 781.36 1716.55 695.8 1697.69 755.83 1688.38 726.22 1676.39 764.39 1665.92 711.65 1655.93 761.91 1651.16 737.87 1638.61 801.03 1620.85 711.65 1607.37 779.51 1597.5 748.07 1592.87 762.81 1582.7 711.65 1581.3 718.7 1572.82 675.99 1557.04 755.4 1553.74 765.91 1541.05 725.52 1538.33 734.17 1531.26 711.65 1522.66 739.03 1502.85 675.99 1466.94 790.31 1455.14 752.77 1443.21 790.75 1424.93 732.56 1419.7 749.21 1413.24 716.66 1395.3 806.96 1394.25 806.96 1385.32 778.55 1382.07 788.93 1372.65 741.55 1367.9 765.49 1355.34 725.52 1339.17 776.99 1330.08 748.07 1328.71 752.43 1310.92 695.8 1299.39 732.5 1297.42 726.22 1276.45 792.98 1260.29 711.65 1241.36 806.96 1240.78 806.96 1227.06 737.87 1223.75 754.54 1215.23 711.65 1203.48 770.78 1191.74 711.65 1183 755.6 1167.19 675.99 1152.43 750.29 1140.29 711.65 1135.68 726.33 1135.42 725.52 1124.1 761.55 1097.23 675.99 1075.11 746.37 1069.21 716.66 1051.27 806.96 1036.9 806.96 1011.32 725.52 993.77 781.36 966.89 695.8 933.95 800.67 916.26 711.65 897.33 806.96 890.14 806.96 871.2 711.65 857.72 779.51 847.84 748.07 841.5 768.28 823.16 675.99 804.83 768.28 791.4 725.52 780.08 761.55 753.2 675.99 712.05 806.96 693.38 806.96 680.82 766.98 676.38 781.08 663.59 716.66 645.64 806.96 631.28 806.96 605.69 725.52 588.15 781.36 561.27 695.8 528.32 800.67 510.64 711.65 491.7 806.96 484.51 806.96 465.58 711.65 452.1 779.51 442.22 748.07 435.87 768.28 417.54 675.99 399.2 768.28 385.77 725.52 374.45 761.55 347.57 675.99 305.25 810.71 308.45 810.71 308.45 846.01 2405.48 846.01 2405.48 810.71 2411.49 810.71 2415.28 810.71 2451.02 810.71 2464.58 810.71 2490.38 810.71 2470.7 748.07"/>
        </g>
        <g>
          <path class="cls-37" d="m2270.14,935.24c-17.73-5.07-30.31-10.62-39.19-15.69,10.85-1.86,17.56-5.28,17.56-5.28-12.19-.58-25.97-5.61-37.02-10.69-.44-.65-.62-1.02-.62-1.02h8.98c-14.09-5.23-18.11-13.07-18.11-13.07,12.07,5.23,34.21,3.92,34.21,3.92-34.21-11.76-48.29-31.36-48.29-31.36,12.07,7.84,36.22,6.53,36.22,6.53-12.07-3.92-16.1-13.07-16.1-13.07,8.05,5.23,28.17,5.23,28.17,5.23-16.1-1.31-16.1-10.45-16.1-10.45,14.09,3.92,34.21,2.61,34.21,2.61-19.38-4.2-34.64-10.73-46.41-17.68,12.25-1.77,20.08-5.54,20.08-5.54-12.34-.59-26.73-5.74-38.27-10.88h11.37c-7.2-2.87-13.77-7.43-17.94-10.68,16.54,3.31,51.05,1.65,51.05,1.65-34.21-7.84-54.33-28.75-54.33-28.75,24.15,18.29,82.5,15.68,82.5,15.68-24.8-2.01-48.41-13.53-67.14-26.11.04,0,.07,0,.11,0,2.46-.03,4.03-.13,4.03-.13-.19-.07-.37-.15-.56-.22,13.5-1.61,22.25-5.83,22.25-5.83-19.25-.92-43.49-12.93-54.1-18.7,23.61,8.62,49.14,5.24,49.14,5.24l-21.13-10.87c2.63.16,4.4.16,4.4.16-9.43-.82-12.44-4.99-13.4-7.58h10.93c9.38.93,18.08.33,18.08.33-14.04-3.26-25.56-8.06-34.91-13.33,9.34-1.91,15-4.8,15-4.8-4.31-.21-8.83-.98-13.35-2.1,10.42-1.88,16.82-5.15,16.82-5.15-18.71-.89-41.17-12.25-51.72-18.19-1.21-2.11-1.23-2.75-.26-1.15,4.36,7.25,51.09,4.83,51.09,4.83-29.46-7.25-46.79-26.58-46.79-26.58,20.8,16.92,71.06,14.5,71.06,14.5-55.46-4.83-103.98-68.88-90.12-55.59,1.13,1.09,2.42,2.09,3.82,3,15.75,10.29,46.44,10.29,46.44,10.29l-30.62-16.92h21.95c-36.39-4.83-66.51-55.31-66.51-55.31,0,0-31.52,63.94-66.62,68.6h21.95l-30.62,16.92s30.68,0,46.44-10.29c1.4-.92,2.69-1.91,3.82-3,13.86-13.29-34.66,50.75-90.12,55.59,0,0,50.26,2.42,71.06-14.5,0,0-17.33,19.33-46.79,26.58,0,0,46.73,2.42,51.09-4.83,4.36-7.25-11.23,31.42-68.42,44.71,0,0,8.69.6,18.08-.33h10.93c-.96,2.59-3.98,6.76-13.4,7.58,0,0,1.77,0,4.4-.16l-21.13,10.87s16.16,0,32.31-3.41c5.39-.1,13.99-.75,20.89-3.44-5.77,5.8-14.42,13.59-25.1,21.41-3.46,1.74-7.24,3.41-11.37,4.93,0,0,1.61.1,4.15.13-18.74,12.58-42.35,24.1-67.16,26.11,0,0,58.35,2.61,82.5-15.68,0,0-20.12,20.91-54.33,28.75,0,0,34.51,1.66,51.05-1.65-4.17,3.24-10.74,7.81-17.94,10.68h14.98c-11.89,11.51-33.42,26.57-68.2,34.1,0,0,20.12,1.31,34.21-2.61,0,0,0,9.15-16.1,10.45,0,0,20.12,0,28.17-5.23,0,0-4.02,9.15-16.1,13.07,0,0,24.15,1.31,36.22-6.53,0,0-14.09,19.6-48.29,31.36,0,0,22.13,1.31,34.21-3.92,0,0-4.02,7.84-18.11,13.07h8.98s-8.98,18.29-59.28,32.67c0,0,42.26,1.31,58.35-5.23,0,0-12.07,10.45-26.16,15.68h132.45l-.24-13.29h130.65c-14.09-5.23-26.16-15.68-26.16-15.68,16.1,6.53,58.35,5.23,58.35,5.23Z"/>
          <path class="cls-111" d="m2270.14,935.24c-17.73-5.07-30.31-10.62-39.19-15.69,10.85-1.86,17.56-5.28,17.56-5.28-12.19-.58-25.97-5.61-37.02-10.69-.44-.65-.62-1.02-.62-1.02h8.98c-14.09-5.23-18.11-13.07-18.11-13.07,12.07,5.23,34.21,3.92,34.21,3.92-34.21-11.76-48.29-31.36-48.29-31.36,12.07,7.84,36.22,6.53,36.22,6.53-12.07-3.92-16.1-13.07-16.1-13.07,8.05,5.23,28.17,5.23,28.17,5.23-16.1-1.31-16.1-10.45-16.1-10.45,14.09,3.92,34.21,2.61,34.21,2.61-19.38-4.2-34.64-10.73-46.41-17.68,12.25-1.77,20.08-5.54,20.08-5.54-12.34-.59-26.73-5.74-38.27-10.88h11.37c-7.2-2.87-13.77-7.43-17.94-10.68,16.54,3.31,51.05,1.65,51.05,1.65-34.21-7.84-54.33-28.75-54.33-28.75,24.15,18.29,82.5,15.68,82.5,15.68-24.8-2.01-48.41-13.53-67.14-26.11.04,0,.07,0,.11,0,2.46-.03,4.03-.13,4.03-.13-.19-.07-.37-.15-.56-.22,13.5-1.61,22.25-5.83,22.25-5.83-19.25-.92-43.49-12.93-54.1-18.7,23.61,8.62,49.14,5.24,49.14,5.24l-21.13-10.87c2.63.16,4.4.16,4.4.16-9.43-.82-12.44-4.99-13.4-7.58h10.93c9.38.93,18.08.33,18.08.33-14.04-3.26-25.56-8.06-34.91-13.33,9.34-1.91,15-4.8,15-4.8-4.31-.21-8.83-.98-13.35-2.1,10.42-1.88,16.82-5.15,16.82-5.15-18.71-.89-41.17-12.25-51.72-18.19-1.21-2.11-1.23-2.75-.26-1.15,4.36,7.25,51.09,4.83,51.09,4.83-29.46-7.25-46.79-26.58-46.79-26.58,20.8,16.92,71.06,14.5,71.06,14.5-55.46-4.83-103.98-68.88-90.12-55.59,1.13,1.09,2.42,2.09,3.82,3,15.75,10.29,46.44,10.29,46.44,10.29l-30.62-16.92h21.95c-36.39-4.83-66.51-55.31-66.51-55.31,0,0-31.52,63.94-66.62,68.6h21.95l-30.62,16.92s30.68,0,46.44-10.29c1.4-.92,2.69-1.91,3.82-3,13.86-13.29-34.66,50.75-90.12,55.59,0,0,50.26,2.42,71.06-14.5,0,0-17.33,19.33-46.79,26.58,0,0,46.73,2.42,51.09-4.83,4.36-7.25-11.23,31.42-68.42,44.71,0,0,8.69.6,18.08-.33h10.93c-.96,2.59-3.98,6.76-13.4,7.58,0,0,1.77,0,4.4-.16l-21.13,10.87s16.16,0,32.31-3.41c5.39-.1,13.99-.75,20.89-3.44-5.77,5.8-14.42,13.59-25.1,21.41-3.46,1.74-7.24,3.41-11.37,4.93,0,0,1.61.1,4.15.13-18.74,12.58-42.35,24.1-67.16,26.11,0,0,58.35,2.61,82.5-15.68,0,0-20.12,20.91-54.33,28.75,0,0,34.51,1.66,51.05-1.65-4.17,3.24-10.74,7.81-17.94,10.68h14.98c-11.89,11.51-33.42,26.57-68.2,34.1,0,0,20.12,1.31,34.21-2.61,0,0,0,9.15-16.1,10.45,0,0,20.12,0,28.17-5.23,0,0-4.02,9.15-16.1,13.07,0,0,24.15,1.31,36.22-6.53,0,0-14.09,19.6-48.29,31.36,0,0,22.13,1.31,34.21-3.92,0,0-4.02,7.84-18.11,13.07h8.98s-8.98,18.29-59.28,32.67c0,0,42.26,1.31,58.35-5.23,0,0-12.07,10.45-26.16,15.68h132.45l-.24-13.29h130.65c-14.09-5.23-26.16-15.68-26.16-15.68,16.1,6.53,58.35,5.23,58.35,5.23Z"/>
        </g>
        <g>
          <path class="cls-12" d="m2064.79,919.59c-11.66-3.33-19.94-6.98-25.78-10.32,7.14-1.22,11.55-3.47,11.55-3.47-8.02-.38-17.08-3.69-24.35-7.03-.29-.43-.41-.67-.41-.67h5.9c-9.26-3.44-11.91-8.6-11.91-8.6,7.94,3.44,22.5,2.58,22.5,2.58-22.5-7.74-31.76-20.63-31.76-20.63,7.94,5.16,23.82,4.3,23.82,4.3-7.94-2.58-10.59-8.6-10.59-8.6,5.29,3.44,18.53,3.44,18.53,3.44-10.59-.86-10.59-6.88-10.59-6.88,9.26,2.58,22.5,1.72,22.5,1.72-12.75-2.76-22.78-7.06-30.53-11.63,8.06-1.17,13.21-3.64,13.21-3.64-8.12-.39-17.58-3.77-25.17-7.15h7.48c-4.74-1.89-9.06-4.89-11.8-7.02,10.88,2.18,33.57,1.09,33.57,1.09-22.5-5.16-35.73-18.91-35.73-18.91,15.88,12.03,54.26,10.31,54.26,10.31-16.31-1.32-31.84-8.9-44.16-17.17.02,0,.05,0,.07,0,1.62-.02,2.65-.08,2.65-.08-.13-.05-.24-.1-.37-.14,8.88-1.06,14.64-3.83,14.64-3.83-12.66-.6-28.6-8.5-35.58-12.3,15.53,5.67,32.32,3.45,32.32,3.45l-13.89-7.15c1.73.1,2.89.1,2.89.1-6.2-.54-8.18-3.28-8.82-4.99h7.19c6.17.61,11.89.22,11.89.22-9.23-2.15-16.81-5.3-22.96-8.76,6.15-1.26,9.87-3.16,9.87-3.16-2.84-.13-5.81-.64-8.78-1.38,6.85-1.24,11.06-3.39,11.06-3.39-12.3-.59-27.08-8.06-34.02-11.96-.8-1.39-.81-1.81-.17-.76,2.87,4.77,33.61,3.18,33.61,3.18-19.38-4.77-30.78-17.49-30.78-17.49,13.68,11.13,46.74,9.54,46.74,9.54-36.48-3.18-68.39-45.3-59.27-36.56.75.72,1.59,1.37,2.51,1.97,10.36,6.77,30.54,6.77,30.54,6.77l-20.14-11.13h14.44c-23.94-3.18-43.75-36.38-43.75-36.38,0,0-20.73,42.05-43.82,45.12h14.44l-20.14,11.13s20.18,0,30.54-6.77c.92-.6,1.77-1.26,2.51-1.97,9.12-8.74-22.8,33.38-59.27,36.56,0,0,33.06,1.59,46.74-9.54,0,0-11.4,12.72-30.78,17.49,0,0,30.73,1.59,33.61-3.18,2.87-4.77-7.39,20.66-45,29.41,0,0,5.72.4,11.89-.22h7.19c-.63,1.7-2.62,4.45-8.82,4.99,0,0,1.16,0,2.89-.1l-13.89,7.15s10.63,0,21.25-2.24c3.55-.07,9.2-.49,13.74-2.26-3.79,3.82-9.48,8.94-16.51,14.08-2.28,1.14-4.76,2.24-7.48,3.24,0,0,1.06.07,2.73.08-12.32,8.27-27.85,15.85-44.17,17.18,0,0,38.38,1.72,54.26-10.31,0,0-13.23,13.75-35.73,18.91,0,0,22.69,1.09,33.57-1.09-2.74,2.13-7.06,5.13-11.8,7.02h9.85c-7.82,7.57-21.98,17.47-44.86,22.43,0,0,13.23.86,22.5-1.72,0,0,0,6.02-10.59,6.88,0,0,13.23,0,18.53-3.44,0,0-2.65,6.02-10.59,8.6,0,0,15.88.86,23.82-4.3,0,0-9.26,12.89-31.76,20.63,0,0,14.56.86,22.5-2.58,0,0-2.65,5.16-11.91,8.6h5.9s-5.9,12.03-38.99,21.49c0,0,27.79.86,38.38-3.44,0,0-7.94,6.88-17.2,10.31h87.11l-.16-8.74h85.93c-9.26-3.44-17.21-10.31-17.21-10.31,10.59,4.3,38.38,3.44,38.38,3.44Z"/>
          <path class="cls-74" d="m2064.79,919.59c-11.66-3.33-19.94-6.98-25.78-10.32,7.14-1.22,11.55-3.47,11.55-3.47-8.02-.38-17.08-3.69-24.35-7.03-.29-.43-.41-.67-.41-.67h5.9c-9.26-3.44-11.91-8.6-11.91-8.6,7.94,3.44,22.5,2.58,22.5,2.58-22.5-7.74-31.76-20.63-31.76-20.63,7.94,5.16,23.82,4.3,23.82,4.3-7.94-2.58-10.59-8.6-10.59-8.6,5.29,3.44,18.53,3.44,18.53,3.44-10.59-.86-10.59-6.88-10.59-6.88,9.26,2.58,22.5,1.72,22.5,1.72-12.75-2.76-22.78-7.06-30.53-11.63,8.06-1.17,13.21-3.64,13.21-3.64-8.12-.39-17.58-3.77-25.17-7.15h7.48c-4.74-1.89-9.06-4.89-11.8-7.02,10.88,2.18,33.57,1.09,33.57,1.09-22.5-5.16-35.73-18.91-35.73-18.91,15.88,12.03,54.26,10.31,54.26,10.31-16.31-1.32-31.84-8.9-44.16-17.17.02,0,.05,0,.07,0,1.62-.02,2.65-.08,2.65-.08-.13-.05-.24-.1-.37-.14,8.88-1.06,14.64-3.83,14.64-3.83-12.66-.6-28.6-8.5-35.58-12.3,15.53,5.67,32.32,3.45,32.32,3.45l-13.89-7.15c1.73.1,2.89.1,2.89.1-6.2-.54-8.18-3.28-8.82-4.99h7.19c6.17.61,11.89.22,11.89.22-9.23-2.15-16.81-5.3-22.96-8.76,6.15-1.26,9.87-3.16,9.87-3.16-2.84-.13-5.81-.64-8.78-1.38,6.85-1.24,11.06-3.39,11.06-3.39-12.3-.59-27.08-8.06-34.02-11.96-.8-1.39-.81-1.81-.17-.76,2.87,4.77,33.61,3.18,33.61,3.18-19.38-4.77-30.78-17.49-30.78-17.49,13.68,11.13,46.74,9.54,46.74,9.54-36.48-3.18-68.39-45.3-59.27-36.56.75.72,1.59,1.37,2.51,1.97,10.36,6.77,30.54,6.77,30.54,6.77l-20.14-11.13h14.44c-23.94-3.18-43.75-36.38-43.75-36.38,0,0-20.73,42.05-43.82,45.12h14.44l-20.14,11.13s20.18,0,30.54-6.77c.92-.6,1.77-1.26,2.51-1.97,9.12-8.74-22.8,33.38-59.27,36.56,0,0,33.06,1.59,46.74-9.54,0,0-11.4,12.72-30.78,17.49,0,0,30.73,1.59,33.61-3.18,2.87-4.77-7.39,20.66-45,29.41,0,0,5.72.4,11.89-.22h7.19c-.63,1.7-2.62,4.45-8.82,4.99,0,0,1.16,0,2.89-.1l-13.89,7.15s10.63,0,21.25-2.24c3.55-.07,9.2-.49,13.74-2.26-3.79,3.82-9.48,8.94-16.51,14.08-2.28,1.14-4.76,2.24-7.48,3.24,0,0,1.06.07,2.73.08-12.32,8.27-27.85,15.85-44.17,17.18,0,0,38.38,1.72,54.26-10.31,0,0-13.23,13.75-35.73,18.91,0,0,22.69,1.09,33.57-1.09-2.74,2.13-7.06,5.13-11.8,7.02h9.85c-7.82,7.57-21.98,17.47-44.86,22.43,0,0,13.23.86,22.5-1.72,0,0,0,6.02-10.59,6.88,0,0,13.23,0,18.53-3.44,0,0-2.65,6.02-10.59,8.6,0,0,15.88.86,23.82-4.3,0,0-9.26,12.89-31.76,20.63,0,0,14.56.86,22.5-2.58,0,0-2.65,5.16-11.91,8.6h5.9s-5.9,12.03-38.99,21.49c0,0,27.79.86,38.38-3.44,0,0-7.94,6.88-17.2,10.31h87.11l-.16-8.74h85.93c-9.26-3.44-17.21-10.31-17.21-10.31,10.59,4.3,38.38,3.44,38.38,3.44Z"/>
        </g>
        <g>
          <path class="cls-70" d="m1626.09,949.96c-11.66-3.33-19.94-6.98-25.78-10.32,7.14-1.22,11.55-3.47,11.55-3.47-8.02-.38-17.08-3.69-24.35-7.03-.29-.43-.41-.67-.41-.67h5.9c-9.26-3.44-11.91-8.6-11.91-8.6,7.94,3.44,22.5,2.58,22.5,2.58-22.5-7.74-31.76-20.63-31.76-20.63,7.94,5.16,23.82,4.3,23.82,4.3-7.94-2.58-10.59-8.6-10.59-8.6,5.29,3.44,18.53,3.44,18.53,3.44-10.59-.86-10.59-6.88-10.59-6.88,9.26,2.58,22.5,1.72,22.5,1.72-12.75-2.76-22.78-7.06-30.53-11.63,8.06-1.17,13.21-3.64,13.21-3.64-8.12-.39-17.58-3.77-25.17-7.15h7.48c-4.74-1.89-9.06-4.89-11.8-7.02,10.88,2.18,33.57,1.09,33.57,1.09-22.5-5.16-35.73-18.91-35.73-18.91,15.88,12.03,54.26,10.31,54.26,10.31-16.31-1.32-31.84-8.9-44.16-17.17.02,0,.05,0,.07,0,1.62-.02,2.65-.08,2.65-.08-.13-.05-.24-.1-.37-.14,8.88-1.06,14.64-3.83,14.64-3.83-12.66-.6-28.6-8.5-35.58-12.3,15.53,5.67,32.32,3.45,32.32,3.45l-13.89-7.15c1.73.1,2.89.1,2.89.1-6.2-.54-8.18-3.28-8.82-4.99h7.19c6.17.61,11.89.22,11.89.22-9.23-2.15-16.81-5.3-22.96-8.76,6.15-1.26,9.87-3.16,9.87-3.16-2.84-.13-5.81-.64-8.78-1.38,6.85-1.24,11.06-3.39,11.06-3.39-12.3-.59-27.08-8.06-34.02-11.96-.8-1.39-.81-1.81-.17-.76,2.87,4.77,33.61,3.18,33.61,3.18-19.38-4.77-30.78-17.49-30.78-17.49,13.68,11.13,46.74,9.54,46.74,9.54-36.48-3.18-68.39-45.3-59.27-36.56.75.72,1.59,1.37,2.51,1.97,10.36,6.77,30.54,6.77,30.54,6.77l-20.14-11.13h14.44c-23.94-3.18-43.75-36.38-43.75-36.38,0,0-20.73,42.05-43.82,45.12h14.44l-20.14,11.13s20.18,0,30.54-6.77c.92-.6,1.77-1.26,2.51-1.97,9.12-8.74-22.8,33.38-59.27,36.56,0,0,33.06,1.59,46.74-9.54,0,0-11.4,12.72-30.78,17.49,0,0,30.73,1.59,33.61-3.18,2.87-4.77-7.39,20.66-45,29.41,0,0,5.72.4,11.89-.22h7.19c-.63,1.7-2.62,4.45-8.82,4.99,0,0,1.16,0,2.89-.1l-13.89,7.15s10.63,0,21.25-2.24c3.55-.07,9.2-.49,13.74-2.26-3.79,3.82-9.48,8.94-16.51,14.08-2.28,1.14-4.76,2.24-7.48,3.24,0,0,1.06.07,2.73.08-12.32,8.27-27.85,15.85-44.17,17.18,0,0,38.38,1.72,54.26-10.31,0,0-13.23,13.75-35.73,18.91,0,0,22.69,1.09,33.57-1.09-2.74,2.13-7.06,5.13-11.8,7.02h9.85c-7.82,7.57-21.98,17.47-44.86,22.43,0,0,13.23.86,22.5-1.72,0,0,0,6.02-10.59,6.88,0,0,13.23,0,18.53-3.44,0,0-2.65,6.02-10.59,8.6,0,0,15.88.86,23.82-4.3,0,0-9.26,12.89-31.76,20.63,0,0,14.56.86,22.5-2.58,0,0-2.65,5.16-11.91,8.6h5.9s-5.9,12.03-38.99,21.49c0,0,27.79.86,38.38-3.44,0,0-7.94,6.88-17.2,10.31h87.11l-.16-8.74h85.93c-9.26-3.44-17.21-10.31-17.21-10.31,10.59,4.3,38.38,3.44,38.38,3.44Z"/>
          <path class="cls-24" d="m1626.09,949.96c-11.66-3.33-19.94-6.98-25.78-10.32,7.14-1.22,11.55-3.47,11.55-3.47-8.02-.38-17.08-3.69-24.35-7.03-.29-.43-.41-.67-.41-.67h5.9c-9.26-3.44-11.91-8.6-11.91-8.6,7.94,3.44,22.5,2.58,22.5,2.58-22.5-7.74-31.76-20.63-31.76-20.63,7.94,5.16,23.82,4.3,23.82,4.3-7.94-2.58-10.59-8.6-10.59-8.6,5.29,3.44,18.53,3.44,18.53,3.44-10.59-.86-10.59-6.88-10.59-6.88,9.26,2.58,22.5,1.72,22.5,1.72-12.75-2.76-22.78-7.06-30.53-11.63,8.06-1.17,13.21-3.64,13.21-3.64-8.12-.39-17.58-3.77-25.17-7.15h7.48c-4.74-1.89-9.06-4.89-11.8-7.02,10.88,2.18,33.57,1.09,33.57,1.09-22.5-5.16-35.73-18.91-35.73-18.91,15.88,12.03,54.26,10.31,54.26,10.31-16.31-1.32-31.84-8.9-44.16-17.17.02,0,.05,0,.07,0,1.62-.02,2.65-.08,2.65-.08-.13-.05-.24-.1-.37-.14,8.88-1.06,14.64-3.83,14.64-3.83-12.66-.6-28.6-8.5-35.58-12.3,15.53,5.67,32.32,3.45,32.32,3.45l-13.89-7.15c1.73.1,2.89.1,2.89.1-6.2-.54-8.18-3.28-8.82-4.99h7.19c6.17.61,11.89.22,11.89.22-9.23-2.15-16.81-5.3-22.96-8.76,6.15-1.26,9.87-3.16,9.87-3.16-2.84-.13-5.81-.64-8.78-1.38,6.85-1.24,11.06-3.39,11.06-3.39-12.3-.59-27.08-8.06-34.02-11.96-.8-1.39-.81-1.81-.17-.76,2.87,4.77,33.61,3.18,33.61,3.18-19.38-4.77-30.78-17.49-30.78-17.49,13.68,11.13,46.74,9.54,46.74,9.54-36.48-3.18-68.39-45.3-59.27-36.56.75.72,1.59,1.37,2.51,1.97,10.36,6.77,30.54,6.77,30.54,6.77l-20.14-11.13h14.44c-23.94-3.18-43.75-36.38-43.75-36.38,0,0-20.73,42.05-43.82,45.12h14.44l-20.14,11.13s20.18,0,30.54-6.77c.92-.6,1.77-1.26,2.51-1.97,9.12-8.74-22.8,33.38-59.27,36.56,0,0,33.06,1.59,46.74-9.54,0,0-11.4,12.72-30.78,17.49,0,0,30.73,1.59,33.61-3.18,2.87-4.77-7.39,20.66-45,29.41,0,0,5.72.4,11.89-.22h7.19c-.63,1.7-2.62,4.45-8.82,4.99,0,0,1.16,0,2.89-.1l-13.89,7.15s10.63,0,21.25-2.24c3.55-.07,9.2-.49,13.74-2.26-3.79,3.82-9.48,8.94-16.51,14.08-2.28,1.14-4.76,2.24-7.48,3.24,0,0,1.06.07,2.73.08-12.32,8.27-27.85,15.85-44.17,17.18,0,0,38.38,1.72,54.26-10.31,0,0-13.23,13.75-35.73,18.91,0,0,22.69,1.09,33.57-1.09-2.74,2.13-7.06,5.13-11.8,7.02h9.85c-7.82,7.57-21.98,17.47-44.86,22.43,0,0,13.23.86,22.5-1.72,0,0,0,6.02-10.59,6.88,0,0,13.23,0,18.53-3.44,0,0-2.65,6.02-10.59,8.6,0,0,15.88.86,23.82-4.3,0,0-9.26,12.89-31.76,20.63,0,0,14.56.86,22.5-2.58,0,0-2.65,5.16-11.91,8.6h5.9s-5.9,12.03-38.99,21.49c0,0,27.79.86,38.38-3.44,0,0-7.94,6.88-17.2,10.31h87.11l-.16-8.74h85.93c-9.26-3.44-17.21-10.31-17.21-10.31,10.59,4.3,38.38,3.44,38.38,3.44Z"/>
        </g>
        <g>
          <path class="cls-109" d="m1321.18,941.29c-11.66-3.33-19.94-6.98-25.78-10.32,7.14-1.22,11.55-3.47,11.55-3.47-8.02-.38-17.08-3.69-24.35-7.03-.29-.43-.41-.67-.41-.67h5.9c-9.26-3.44-11.91-8.6-11.91-8.6,7.94,3.44,22.5,2.58,22.5,2.58-22.5-7.74-31.76-20.63-31.76-20.63,7.94,5.16,23.82,4.3,23.82,4.3-7.94-2.58-10.59-8.6-10.59-8.6,5.29,3.44,18.53,3.44,18.53,3.44-10.59-.86-10.59-6.88-10.59-6.88,9.26,2.58,22.5,1.72,22.5,1.72-12.75-2.76-22.78-7.06-30.53-11.63,8.06-1.17,13.21-3.64,13.21-3.64-8.12-.39-17.58-3.77-25.17-7.15h7.48c-4.74-1.89-9.06-4.89-11.8-7.02,10.88,2.18,33.57,1.09,33.57,1.09-22.5-5.16-35.73-18.91-35.73-18.91,15.88,12.03,54.26,10.31,54.26,10.31-16.31-1.32-31.84-8.9-44.16-17.17.02,0,.05,0,.07,0,1.62-.02,2.65-.08,2.65-.08-.13-.05-.24-.1-.37-.14,8.88-1.06,14.64-3.83,14.64-3.83-12.66-.6-28.6-8.5-35.58-12.3,15.53,5.67,32.32,3.45,32.32,3.45l-13.89-7.15c1.73.1,2.89.1,2.89.1-6.2-.54-8.18-3.28-8.82-4.99h7.19c6.17.61,11.89.22,11.89.22-9.23-2.15-16.81-5.3-22.96-8.76,6.15-1.26,9.87-3.16,9.87-3.16-2.84-.13-5.81-.64-8.78-1.38,6.85-1.24,11.06-3.39,11.06-3.39-12.3-.59-27.08-8.06-34.02-11.96-.8-1.39-.81-1.81-.17-.76,2.87,4.77,33.61,3.18,33.61,3.18-19.38-4.77-30.78-17.49-30.78-17.49,13.68,11.13,46.74,9.54,46.74,9.54-36.48-3.18-68.39-45.3-59.27-36.56.75.72,1.59,1.37,2.51,1.97,10.36,6.77,30.54,6.77,30.54,6.77l-20.14-11.13h14.44c-23.94-3.18-43.75-36.38-43.75-36.38,0,0-20.73,42.05-43.82,45.12h14.44l-20.14,11.13s20.18,0,30.54-6.77c.92-.6,1.77-1.26,2.51-1.97,9.12-8.74-22.8,33.38-59.27,36.56,0,0,33.06,1.59,46.74-9.54,0,0-11.4,12.72-30.78,17.49,0,0,30.73,1.59,33.61-3.18,2.87-4.77-7.39,20.66-45,29.41,0,0,5.72.4,11.89-.22h7.19c-.63,1.7-2.62,4.45-8.82,4.99,0,0,1.16,0,2.89-.1l-13.89,7.15s10.63,0,21.25-2.24c3.55-.07,9.2-.49,13.74-2.26-3.79,3.82-9.48,8.94-16.51,14.08-2.28,1.14-4.76,2.24-7.48,3.24,0,0,1.06.07,2.73.08-12.32,8.27-27.85,15.85-44.17,17.18,0,0,38.38,1.72,54.26-10.31,0,0-13.23,13.75-35.73,18.91,0,0,22.69,1.09,33.57-1.09-2.74,2.13-7.06,5.13-11.8,7.02h9.85c-7.82,7.57-21.98,17.47-44.86,22.43,0,0,13.23.86,22.5-1.72,0,0,0,6.02-10.59,6.88,0,0,13.23,0,18.53-3.44,0,0-2.65,6.02-10.59,8.6,0,0,15.88.86,23.82-4.3,0,0-9.26,12.89-31.76,20.63,0,0,14.56.86,22.5-2.58,0,0-2.65,5.16-11.91,8.6h5.9s-5.9,12.03-38.99,21.49c0,0,27.79.86,38.38-3.44,0,0-7.94,6.88-17.2,10.31h87.11l-.16-8.74h85.93c-9.26-3.44-17.21-10.31-17.21-10.31,10.59,4.3,38.38,3.44,38.38,3.44Z"/>
          <path class="cls-100" d="m1321.18,941.29c-11.66-3.33-19.94-6.98-25.78-10.32,7.14-1.22,11.55-3.47,11.55-3.47-8.02-.38-17.08-3.69-24.35-7.03-.29-.43-.41-.67-.41-.67h5.9c-9.26-3.44-11.91-8.6-11.91-8.6,7.94,3.44,22.5,2.58,22.5,2.58-22.5-7.74-31.76-20.63-31.76-20.63,7.94,5.16,23.82,4.3,23.82,4.3-7.94-2.58-10.59-8.6-10.59-8.6,5.29,3.44,18.53,3.44,18.53,3.44-10.59-.86-10.59-6.88-10.59-6.88,9.26,2.58,22.5,1.72,22.5,1.72-12.75-2.76-22.78-7.06-30.53-11.63,8.06-1.17,13.21-3.64,13.21-3.64-8.12-.39-17.58-3.77-25.17-7.15h7.48c-4.74-1.89-9.06-4.89-11.8-7.02,10.88,2.18,33.57,1.09,33.57,1.09-22.5-5.16-35.73-18.91-35.73-18.91,15.88,12.03,54.26,10.31,54.26,10.31-16.31-1.32-31.84-8.9-44.16-17.17.02,0,.05,0,.07,0,1.62-.02,2.65-.08,2.65-.08-.13-.05-.24-.1-.37-.14,8.88-1.06,14.64-3.83,14.64-3.83-12.66-.6-28.6-8.5-35.58-12.3,15.53,5.67,32.32,3.45,32.32,3.45l-13.89-7.15c1.73.1,2.89.1,2.89.1-6.2-.54-8.18-3.28-8.82-4.99h7.19c6.17.61,11.89.22,11.89.22-9.23-2.15-16.81-5.3-22.96-8.76,6.15-1.26,9.87-3.16,9.87-3.16-2.84-.13-5.81-.64-8.78-1.38,6.85-1.24,11.06-3.39,11.06-3.39-12.3-.59-27.08-8.06-34.02-11.96-.8-1.39-.81-1.81-.17-.76,2.87,4.77,33.61,3.18,33.61,3.18-19.38-4.77-30.78-17.49-30.78-17.49,13.68,11.13,46.74,9.54,46.74,9.54-36.48-3.18-68.39-45.3-59.27-36.56.75.72,1.59,1.37,2.51,1.97,10.36,6.77,30.54,6.77,30.54,6.77l-20.14-11.13h14.44c-23.94-3.18-43.75-36.38-43.75-36.38,0,0-20.73,42.05-43.82,45.12h14.44l-20.14,11.13s20.18,0,30.54-6.77c.92-.6,1.77-1.26,2.51-1.97,9.12-8.74-22.8,33.38-59.27,36.56,0,0,33.06,1.59,46.74-9.54,0,0-11.4,12.72-30.78,17.49,0,0,30.73,1.59,33.61-3.18,2.87-4.77-7.39,20.66-45,29.41,0,0,5.72.4,11.89-.22h7.19c-.63,1.7-2.62,4.45-8.82,4.99,0,0,1.16,0,2.89-.1l-13.89,7.15s10.63,0,21.25-2.24c3.55-.07,9.2-.49,13.74-2.26-3.79,3.82-9.48,8.94-16.51,14.08-2.28,1.14-4.76,2.24-7.48,3.24,0,0,1.06.07,2.73.08-12.32,8.27-27.85,15.85-44.17,17.18,0,0,38.38,1.72,54.26-10.31,0,0-13.23,13.75-35.73,18.91,0,0,22.69,1.09,33.57-1.09-2.74,2.13-7.06,5.13-11.8,7.02h9.85c-7.82,7.57-21.98,17.47-44.86,22.43,0,0,13.23.86,22.5-1.72,0,0,0,6.02-10.59,6.88,0,0,13.23,0,18.53-3.44,0,0-2.65,6.02-10.59,8.6,0,0,15.88.86,23.82-4.3,0,0-9.26,12.89-31.76,20.63,0,0,14.56.86,22.5-2.58,0,0-2.65,5.16-11.91,8.6h5.9s-5.9,12.03-38.99,21.49c0,0,27.79.86,38.38-3.44,0,0-7.94,6.88-17.2,10.31h87.11l-.16-8.74h85.93c-9.26-3.44-17.21-10.31-17.21-10.31,10.59,4.3,38.38,3.44,38.38,3.44Z"/>
        </g>
        <g>
          <path class="cls-23" d="m667.81,942.6c-14.7-4.2-25.12-8.8-32.48-13,9-1.54,14.55-4.37,14.55-4.37-10.1-.48-21.53-4.65-30.69-8.86-.36-.54-.52-.85-.52-.85h7.44c-11.67-4.33-15.01-10.83-15.01-10.83,10.01,4.33,28.35,3.25,28.35,3.25-28.35-9.75-40.03-26-40.03-26,10.01,6.5,30.02,5.42,30.02,5.42-10.01-3.25-13.34-10.83-13.34-10.83,6.67,4.33,23.35,4.33,23.35,4.33-13.34-1.08-13.34-8.67-13.34-8.67,11.67,3.25,28.35,2.17,28.35,2.17-16.07-3.48-28.71-8.89-38.47-14.66,10.16-1.47,16.64-4.59,16.64-4.59-10.23-.49-22.15-4.75-31.72-9.01h9.43c-5.97-2.38-11.42-6.16-14.87-8.85,13.71,2.74,42.31,1.37,42.31,1.37-28.35-6.5-45.03-23.83-45.03-23.83,20.01,15.16,68.38,13,68.38,13-20.56-1.67-40.12-11.22-55.65-21.64.03,0,.06,0,.09,0,2.04-.02,3.34-.1,3.34-.1-.16-.06-.31-.12-.47-.18,11.19-1.33,18.44-4.83,18.44-4.83-15.96-.76-36.04-10.71-44.84-15.5,19.57,7.14,40.73,4.35,40.73,4.35l-17.51-9.01c2.18.13,3.65.13,3.65.13-7.82-.68-10.31-4.14-11.11-6.28h9.06c7.78.77,14.98.27,14.98.27-11.64-2.7-21.19-6.68-28.93-11.05,7.74-1.58,12.44-3.98,12.44-3.98-3.58-.17-7.32-.81-11.07-1.74,8.64-1.56,13.94-4.27,13.94-4.27-15.5-.74-34.12-10.15-42.87-15.07-1.01-1.75-1.02-2.28-.22-.95,3.62,6.01,42.35,4.01,42.35,4.01-24.42-6.01-38.79-22.03-38.79-22.03,17.24,14.02,58.9,12.02,58.9,12.02-45.97-4.01-86.19-57.09-74.7-46.07.94.9,2,1.73,3.17,2.49,13.06,8.53,38.49,8.53,38.49,8.53l-25.38-14.02h18.19c-30.17-4.01-55.13-45.84-55.13-45.84,0,0-26.13,52.99-55.22,56.86h18.19l-25.38,14.02s25.43,0,38.49-8.53c1.16-.76,2.23-1.59,3.17-2.49,11.49-11.02-28.73,42.07-74.7,46.07,0,0,41.66,2,58.9-12.02,0,0-14.36,16.03-38.78,22.03,0,0,38.73,2,42.35-4.01,3.62-6.01-9.31,26.04-56.71,37.06,0,0,7.21.5,14.98-.27h9.06c-.8,2.14-3.3,5.6-11.11,6.28,0,0,1.47,0,3.65-.13l-17.51,9.01s13.4,0,26.78-2.82c4.47-.09,11.59-.62,17.31-2.85-4.78,4.81-11.95,11.27-20.8,17.74-2.87,1.44-6,2.83-9.42,4.09,0,0,1.34.08,3.44.11-15.53,10.43-35.1,19.98-55.66,21.65,0,0,48.37,2.17,68.38-13,0,0-16.68,17.33-45.03,23.83,0,0,28.6,1.37,42.31-1.37-3.45,2.69-8.9,6.47-14.87,8.85h12.41c-9.86,9.54-27.7,22.02-56.53,28.26,0,0,16.68,1.08,28.35-2.17,0,0,0,7.58-13.34,8.67,0,0,16.68,0,23.35-4.33,0,0-3.34,7.58-13.34,10.83,0,0,20.01,1.08,30.02-5.42,0,0-11.67,16.25-40.03,26,0,0,18.35,1.08,28.35-3.25,0,0-3.34,6.5-15.01,10.83h7.44s-7.44,15.16-49.14,27.08c0,0,35.02,1.08,48.37-4.33,0,0-10.01,8.67-21.68,13h109.78l-.2-11.02h108.29c-11.67-4.33-21.68-13-21.68-13,13.34,5.42,48.37,4.33,48.37,4.33Z"/>
          <path class="cls-60" d="m667.81,942.6c-14.7-4.2-25.12-8.8-32.48-13,9-1.54,14.55-4.37,14.55-4.37-10.1-.48-21.53-4.65-30.69-8.86-.36-.54-.52-.85-.52-.85h7.44c-11.67-4.33-15.01-10.83-15.01-10.83,10.01,4.33,28.35,3.25,28.35,3.25-28.35-9.75-40.03-26-40.03-26,10.01,6.5,30.02,5.42,30.02,5.42-10.01-3.25-13.34-10.83-13.34-10.83,6.67,4.33,23.35,4.33,23.35,4.33-13.34-1.08-13.34-8.67-13.34-8.67,11.67,3.25,28.35,2.17,28.35,2.17-16.07-3.48-28.71-8.89-38.47-14.66,10.16-1.47,16.64-4.59,16.64-4.59-10.23-.49-22.15-4.75-31.72-9.01h9.43c-5.97-2.38-11.42-6.16-14.87-8.85,13.71,2.74,42.31,1.37,42.31,1.37-28.35-6.5-45.03-23.83-45.03-23.83,20.01,15.16,68.38,13,68.38,13-20.56-1.67-40.12-11.22-55.65-21.64.03,0,.06,0,.09,0,2.04-.02,3.34-.1,3.34-.1-.16-.06-.31-.12-.47-.18,11.19-1.33,18.44-4.83,18.44-4.83-15.96-.76-36.04-10.71-44.84-15.5,19.57,7.14,40.73,4.35,40.73,4.35l-17.51-9.01c2.18.13,3.65.13,3.65.13-7.82-.68-10.31-4.14-11.11-6.28h9.06c7.78.77,14.98.27,14.98.27-11.64-2.7-21.19-6.68-28.93-11.05,7.74-1.58,12.44-3.98,12.44-3.98-3.58-.17-7.32-.81-11.07-1.74,8.64-1.56,13.94-4.27,13.94-4.27-15.5-.74-34.12-10.15-42.87-15.07-1.01-1.75-1.02-2.28-.22-.95,3.62,6.01,42.35,4.01,42.35,4.01-24.42-6.01-38.79-22.03-38.79-22.03,17.24,14.02,58.9,12.02,58.9,12.02-45.97-4.01-86.19-57.09-74.7-46.07.94.9,2,1.73,3.17,2.49,13.06,8.53,38.49,8.53,38.49,8.53l-25.38-14.02h18.19c-30.17-4.01-55.13-45.84-55.13-45.84,0,0-26.13,52.99-55.22,56.86h18.19l-25.38,14.02s25.43,0,38.49-8.53c1.16-.76,2.23-1.59,3.17-2.49,11.49-11.02-28.73,42.07-74.7,46.07,0,0,41.66,2,58.9-12.02,0,0-14.36,16.03-38.78,22.03,0,0,38.73,2,42.35-4.01,3.62-6.01-9.31,26.04-56.71,37.06,0,0,7.21.5,14.98-.27h9.06c-.8,2.14-3.3,5.6-11.11,6.28,0,0,1.47,0,3.65-.13l-17.51,9.01s13.4,0,26.78-2.82c4.47-.09,11.59-.62,17.31-2.85-4.78,4.81-11.95,11.27-20.8,17.74-2.87,1.44-6,2.83-9.42,4.09,0,0,1.34.08,3.44.11-15.53,10.43-35.1,19.98-55.66,21.65,0,0,48.37,2.17,68.38-13,0,0-16.68,17.33-45.03,23.83,0,0,28.6,1.37,42.31-1.37-3.45,2.69-8.9,6.47-14.87,8.85h12.41c-9.86,9.54-27.7,22.02-56.53,28.26,0,0,16.68,1.08,28.35-2.17,0,0,0,7.58-13.34,8.67,0,0,16.68,0,23.35-4.33,0,0-3.34,7.58-13.34,10.83,0,0,20.01,1.08,30.02-5.42,0,0-11.67,16.25-40.03,26,0,0,18.35,1.08,28.35-3.25,0,0-3.34,6.5-15.01,10.83h7.44s-7.44,15.16-49.14,27.08c0,0,35.02,1.08,48.37-4.33,0,0-10.01,8.67-21.68,13h109.78l-.2-11.02h108.29c-11.67-4.33-21.68-13-21.68-13,13.34,5.42,48.37,4.33,48.37,4.33Z"/>
        </g>
        <g>
          <path class="cls-27" d="m1006.94,912.23c-14.7-4.2-25.12-8.8-32.48-13,9-1.54,14.55-4.37,14.55-4.37-10.1-.48-21.53-4.65-30.69-8.86-.36-.54-.52-.85-.52-.85h7.44c-11.67-4.33-15.01-10.83-15.01-10.83,10.01,4.33,28.35,3.25,28.35,3.25-28.35-9.75-40.03-26-40.03-26,10.01,6.5,30.02,5.42,30.02,5.42-10.01-3.25-13.34-10.83-13.34-10.83,6.67,4.33,23.35,4.33,23.35,4.33-13.34-1.08-13.34-8.67-13.34-8.67,11.67,3.25,28.35,2.17,28.35,2.17-16.07-3.48-28.71-8.89-38.47-14.66,10.16-1.47,16.64-4.59,16.64-4.59-10.23-.49-22.15-4.75-31.72-9.01h9.43c-5.97-2.38-11.42-6.16-14.87-8.85,13.71,2.74,42.31,1.37,42.31,1.37-28.35-6.5-45.03-23.83-45.03-23.83,20.01,15.16,68.38,13,68.38,13-20.56-1.67-40.12-11.22-55.65-21.64.03,0,.06,0,.09,0,2.04-.02,3.34-.1,3.34-.1-.16-.06-.31-.12-.47-.18,11.19-1.33,18.44-4.83,18.44-4.83-15.96-.76-36.04-10.71-44.84-15.5,19.57,7.14,40.73,4.35,40.73,4.35l-17.51-9.01c2.18.13,3.65.13,3.65.13-7.82-.68-10.31-4.14-11.11-6.28h9.06c7.78.77,14.98.27,14.98.27-11.64-2.7-21.19-6.68-28.93-11.05,7.74-1.58,12.44-3.98,12.44-3.98-3.58-.17-7.32-.81-11.07-1.74,8.64-1.56,13.94-4.27,13.94-4.27-15.5-.74-34.12-10.15-42.87-15.07-1.01-1.75-1.02-2.28-.22-.95,3.62,6.01,42.35,4.01,42.35,4.01-24.42-6.01-38.79-22.03-38.79-22.03,17.24,14.02,58.9,12.02,58.9,12.02-45.97-4.01-86.19-57.09-74.7-46.07.94.9,2,1.73,3.17,2.49,13.06,8.53,38.49,8.53,38.49,8.53l-25.38-14.02h18.19c-30.17-4.01-55.13-45.84-55.13-45.84,0,0-26.13,52.99-55.22,56.86h18.19l-25.38,14.02s25.43,0,38.49-8.53c1.16-.76,2.23-1.59,3.17-2.49,11.49-11.02-28.73,42.07-74.7,46.07,0,0,41.66,2,58.9-12.02,0,0-14.36,16.03-38.78,22.03,0,0,38.73,2,42.35-4.01,3.62-6.01-9.31,26.04-56.71,37.06,0,0,7.21.5,14.98-.27h9.06c-.8,2.14-3.3,5.6-11.11,6.28,0,0,1.47,0,3.65-.13l-17.51,9.01s13.4,0,26.78-2.82c4.47-.09,11.59-.62,17.31-2.85-4.78,4.81-11.95,11.27-20.8,17.74-2.87,1.44-6,2.83-9.42,4.09,0,0,1.34.08,3.44.11-15.53,10.43-35.1,19.98-55.66,21.65,0,0,48.37,2.17,68.38-13,0,0-16.68,17.33-45.03,23.83,0,0,28.6,1.37,42.31-1.37-3.45,2.69-8.9,6.47-14.87,8.85h12.41c-9.86,9.54-27.7,22.02-56.53,28.26,0,0,16.68,1.08,28.35-2.17,0,0,0,7.58-13.34,8.67,0,0,16.68,0,23.35-4.33,0,0-3.34,7.58-13.34,10.83,0,0,20.01,1.08,30.02-5.42,0,0-11.67,16.25-40.03,26,0,0,18.35,1.08,28.35-3.25,0,0-3.34,6.5-15.01,10.83h7.44s-7.44,15.16-49.14,27.08c0,0,35.02,1.08,48.37-4.33,0,0-10.01,8.67-21.68,13h109.78l-.2-11.02h108.29c-11.67-4.33-21.68-13-21.68-13,13.34,5.42,48.37,4.33,48.37,4.33Z"/>
          <path class="cls-115" d="m1006.94,912.23c-14.7-4.2-25.12-8.8-32.48-13,9-1.54,14.55-4.37,14.55-4.37-10.1-.48-21.53-4.65-30.69-8.86-.36-.54-.52-.85-.52-.85h7.44c-11.67-4.33-15.01-10.83-15.01-10.83,10.01,4.33,28.35,3.25,28.35,3.25-28.35-9.75-40.03-26-40.03-26,10.01,6.5,30.02,5.42,30.02,5.42-10.01-3.25-13.34-10.83-13.34-10.83,6.67,4.33,23.35,4.33,23.35,4.33-13.34-1.08-13.34-8.67-13.34-8.67,11.67,3.25,28.35,2.17,28.35,2.17-16.07-3.48-28.71-8.89-38.47-14.66,10.16-1.47,16.64-4.59,16.64-4.59-10.23-.49-22.15-4.75-31.72-9.01h9.43c-5.97-2.38-11.42-6.16-14.87-8.85,13.71,2.74,42.31,1.37,42.31,1.37-28.35-6.5-45.03-23.83-45.03-23.83,20.01,15.16,68.38,13,68.38,13-20.56-1.67-40.12-11.22-55.65-21.64.03,0,.06,0,.09,0,2.04-.02,3.34-.1,3.34-.1-.16-.06-.31-.12-.47-.18,11.19-1.33,18.44-4.83,18.44-4.83-15.96-.76-36.04-10.71-44.84-15.5,19.57,7.14,40.73,4.35,40.73,4.35l-17.51-9.01c2.18.13,3.65.13,3.65.13-7.82-.68-10.31-4.14-11.11-6.28h9.06c7.78.77,14.98.27,14.98.27-11.64-2.7-21.19-6.68-28.93-11.05,7.74-1.58,12.44-3.98,12.44-3.98-3.58-.17-7.32-.81-11.07-1.74,8.64-1.56,13.94-4.27,13.94-4.27-15.5-.74-34.12-10.15-42.87-15.07-1.01-1.75-1.02-2.28-.22-.95,3.62,6.01,42.35,4.01,42.35,4.01-24.42-6.01-38.79-22.03-38.79-22.03,17.24,14.02,58.9,12.02,58.9,12.02-45.97-4.01-86.19-57.09-74.7-46.07.94.9,2,1.73,3.17,2.49,13.06,8.53,38.49,8.53,38.49,8.53l-25.38-14.02h18.19c-30.17-4.01-55.13-45.84-55.13-45.84,0,0-26.13,52.99-55.22,56.86h18.19l-25.38,14.02s25.43,0,38.49-8.53c1.16-.76,2.23-1.59,3.17-2.49,11.49-11.02-28.73,42.07-74.7,46.07,0,0,41.66,2,58.9-12.02,0,0-14.36,16.03-38.78,22.03,0,0,38.73,2,42.35-4.01,3.62-6.01-9.31,26.04-56.71,37.06,0,0,7.21.5,14.98-.27h9.06c-.8,2.14-3.3,5.6-11.11,6.28,0,0,1.47,0,3.65-.13l-17.51,9.01s13.4,0,26.78-2.82c4.47-.09,11.59-.62,17.31-2.85-4.78,4.81-11.95,11.27-20.8,17.74-2.87,1.44-6,2.83-9.42,4.09,0,0,1.34.08,3.44.11-15.53,10.43-35.1,19.98-55.66,21.65,0,0,48.37,2.17,68.38-13,0,0-16.68,17.33-45.03,23.83,0,0,28.6,1.37,42.31-1.37-3.45,2.69-8.9,6.47-14.87,8.85h12.41c-9.86,9.54-27.7,22.02-56.53,28.26,0,0,16.68,1.08,28.35-2.17,0,0,0,7.58-13.34,8.67,0,0,16.68,0,23.35-4.33,0,0-3.34,7.58-13.34,10.83,0,0,20.01,1.08,30.02-5.42,0,0-11.67,16.25-40.03,26,0,0,18.35,1.08,28.35-3.25,0,0-3.34,6.5-15.01,10.83h7.44s-7.44,15.16-49.14,27.08c0,0,35.02,1.08,48.37-4.33,0,0-10.01,8.67-21.68,13h109.78l-.2-11.02h108.29c-11.67-4.33-21.68-13-21.68-13,13.34,5.42,48.37,4.33,48.37,4.33Z"/>
        </g>
        <g>
          <path class="cls-116" d="m1542.09,944.77c-14.7-4.2-25.12-8.8-32.48-13,9-1.54,14.55-4.37,14.55-4.37-10.1-.48-21.53-4.65-30.69-8.86-.36-.54-.52-.85-.52-.85h7.44c-11.67-4.33-15.01-10.83-15.01-10.83,10.01,4.33,28.35,3.25,28.35,3.25-28.35-9.75-40.03-26-40.03-26,10.01,6.5,30.02,5.42,30.02,5.42-10.01-3.25-13.34-10.83-13.34-10.83,6.67,4.33,23.35,4.33,23.35,4.33-13.34-1.08-13.34-8.67-13.34-8.67,11.67,3.25,28.35,2.17,28.35,2.17-16.07-3.48-28.71-8.89-38.47-14.66,10.16-1.47,16.64-4.59,16.64-4.59-10.23-.49-22.15-4.75-31.72-9.01h9.43c-5.97-2.38-11.42-6.16-14.87-8.85,13.71,2.74,42.31,1.37,42.31,1.37-28.35-6.5-45.03-23.83-45.03-23.83,20.01,15.16,68.38,13,68.38,13-20.56-1.67-40.12-11.22-55.65-21.64.03,0,.06,0,.09,0,2.04-.02,3.34-.1,3.34-.1-.16-.06-.31-.12-.47-.18,11.19-1.33,18.44-4.83,18.44-4.83-15.96-.76-36.04-10.71-44.84-15.5,19.57,7.14,40.73,4.35,40.73,4.35l-17.51-9.01c2.18.13,3.65.13,3.65.13-7.82-.68-10.31-4.14-11.11-6.28h9.06c7.78.77,14.98.27,14.98.27-11.64-2.7-21.19-6.68-28.93-11.05,7.74-1.58,12.44-3.98,12.44-3.98-3.58-.17-7.32-.81-11.07-1.74,8.64-1.56,13.94-4.27,13.94-4.27-15.5-.74-34.12-10.15-42.87-15.07-1.01-1.75-1.02-2.28-.22-.95,3.62,6.01,42.35,4.01,42.35,4.01-24.42-6.01-38.79-22.03-38.79-22.03,17.24,14.02,58.9,12.02,58.9,12.02-45.97-4.01-86.19-57.09-74.7-46.07.94.9,2,1.73,3.17,2.49,13.06,8.53,38.49,8.53,38.49,8.53l-25.38-14.02h18.19c-30.17-4.01-55.13-45.84-55.13-45.84,0,0-26.13,52.99-55.22,56.86h18.19l-25.38,14.02s25.43,0,38.49-8.53c1.16-.76,2.23-1.59,3.17-2.49,11.49-11.02-28.73,42.07-74.7,46.07,0,0,41.66,2,58.9-12.02,0,0-14.36,16.03-38.78,22.03,0,0,38.73,2,42.35-4.01,3.62-6.01-9.31,26.04-56.71,37.06,0,0,7.21.5,14.98-.27h9.06c-.8,2.14-3.3,5.6-11.11,6.28,0,0,1.47,0,3.65-.13l-17.51,9.01s13.4,0,26.78-2.82c4.47-.09,11.59-.62,17.31-2.85-4.78,4.81-11.95,11.27-20.8,17.74-2.87,1.44-6,2.83-9.42,4.09,0,0,1.34.08,3.44.11-15.53,10.43-35.1,19.98-55.66,21.65,0,0,48.37,2.17,68.38-13,0,0-16.68,17.33-45.03,23.83,0,0,28.6,1.37,42.31-1.37-3.45,2.69-8.9,6.47-14.87,8.85h12.41c-9.86,9.54-27.7,22.02-56.53,28.26,0,0,16.68,1.08,28.35-2.17,0,0,0,7.58-13.34,8.67,0,0,16.68,0,23.35-4.33,0,0-3.34,7.58-13.34,10.83,0,0,20.01,1.08,30.02-5.42,0,0-11.67,16.25-40.03,26,0,0,18.35,1.08,28.35-3.25,0,0-3.34,6.5-15.01,10.83h7.44s-7.44,15.16-49.14,27.08c0,0,35.02,1.08,48.37-4.33,0,0-10.01,8.67-21.68,13h109.78l-.2-11.02h108.29c-11.67-4.33-21.68-13-21.68-13,13.34,5.42,48.37,4.33,48.37,4.33Z"/>
          <path class="cls-89" d="m1542.09,944.77c-14.7-4.2-25.12-8.8-32.48-13,9-1.54,14.55-4.37,14.55-4.37-10.1-.48-21.53-4.65-30.69-8.86-.36-.54-.52-.85-.52-.85h7.44c-11.67-4.33-15.01-10.83-15.01-10.83,10.01,4.33,28.35,3.25,28.35,3.25-28.35-9.75-40.03-26-40.03-26,10.01,6.5,30.02,5.42,30.02,5.42-10.01-3.25-13.34-10.83-13.34-10.83,6.67,4.33,23.35,4.33,23.35,4.33-13.34-1.08-13.34-8.67-13.34-8.67,11.67,3.25,28.35,2.17,28.35,2.17-16.07-3.48-28.71-8.89-38.47-14.66,10.16-1.47,16.64-4.59,16.64-4.59-10.23-.49-22.15-4.75-31.72-9.01h9.43c-5.97-2.38-11.42-6.16-14.87-8.85,13.71,2.74,42.31,1.37,42.31,1.37-28.35-6.5-45.03-23.83-45.03-23.83,20.01,15.16,68.38,13,68.38,13-20.56-1.67-40.12-11.22-55.65-21.64.03,0,.06,0,.09,0,2.04-.02,3.34-.1,3.34-.1-.16-.06-.31-.12-.47-.18,11.19-1.33,18.44-4.83,18.44-4.83-15.96-.76-36.04-10.71-44.84-15.5,19.57,7.14,40.73,4.35,40.73,4.35l-17.51-9.01c2.18.13,3.65.13,3.65.13-7.82-.68-10.31-4.14-11.11-6.28h9.06c7.78.77,14.98.27,14.98.27-11.64-2.7-21.19-6.68-28.93-11.05,7.74-1.58,12.44-3.98,12.44-3.98-3.58-.17-7.32-.81-11.07-1.74,8.64-1.56,13.94-4.27,13.94-4.27-15.5-.74-34.12-10.15-42.87-15.07-1.01-1.75-1.02-2.28-.22-.95,3.62,6.01,42.35,4.01,42.35,4.01-24.42-6.01-38.79-22.03-38.79-22.03,17.24,14.02,58.9,12.02,58.9,12.02-45.97-4.01-86.19-57.09-74.7-46.07.94.9,2,1.73,3.17,2.49,13.06,8.53,38.49,8.53,38.49,8.53l-25.38-14.02h18.19c-30.17-4.01-55.13-45.84-55.13-45.84,0,0-26.13,52.99-55.22,56.86h18.19l-25.38,14.02s25.43,0,38.49-8.53c1.16-.76,2.23-1.59,3.17-2.49,11.49-11.02-28.73,42.07-74.7,46.07,0,0,41.66,2,58.9-12.02,0,0-14.36,16.03-38.78,22.03,0,0,38.73,2,42.35-4.01,3.62-6.01-9.31,26.04-56.71,37.06,0,0,7.21.5,14.98-.27h9.06c-.8,2.14-3.3,5.6-11.11,6.28,0,0,1.47,0,3.65-.13l-17.51,9.01s13.4,0,26.78-2.82c4.47-.09,11.59-.62,17.31-2.85-4.78,4.81-11.95,11.27-20.8,17.74-2.87,1.44-6,2.83-9.42,4.09,0,0,1.34.08,3.44.11-15.53,10.43-35.1,19.98-55.66,21.65,0,0,48.37,2.17,68.38-13,0,0-16.68,17.33-45.03,23.83,0,0,28.6,1.37,42.31-1.37-3.45,2.69-8.9,6.47-14.87,8.85h12.41c-9.86,9.54-27.7,22.02-56.53,28.26,0,0,16.68,1.08,28.35-2.17,0,0,0,7.58-13.34,8.67,0,0,16.68,0,23.35-4.33,0,0-3.34,7.58-13.34,10.83,0,0,20.01,1.08,30.02-5.42,0,0-11.67,16.25-40.03,26,0,0,18.35,1.08,28.35-3.25,0,0-3.34,6.5-15.01,10.83h7.44s-7.44,15.16-49.14,27.08c0,0,35.02,1.08,48.37-4.33,0,0-10.01,8.67-21.68,13h109.78l-.2-11.02h108.29c-11.67-4.33-21.68-13-21.68-13,13.34,5.42,48.37,4.33,48.37,4.33Z"/>
        </g>
        <g>
          <path class="cls-52" d="m891.82,983.82c-14.7-4.2-25.12-8.8-32.48-13,9-1.54,14.55-4.37,14.55-4.37-10.1-.48-21.53-4.65-30.69-8.86-.36-.54-.52-.85-.52-.85h7.44c-11.67-4.33-15.01-10.83-15.01-10.83,10.01,4.33,28.35,3.25,28.35,3.25-28.35-9.75-40.03-26-40.03-26,10.01,6.5,30.02,5.42,30.02,5.42-10.01-3.25-13.34-10.83-13.34-10.83,6.67,4.33,23.35,4.33,23.35,4.33-13.34-1.08-13.34-8.67-13.34-8.67,11.67,3.25,28.35,2.17,28.35,2.17-16.07-3.48-28.71-8.89-38.47-14.66,10.16-1.47,16.64-4.59,16.64-4.59-10.23-.49-22.15-4.75-31.72-9.01h9.43c-5.97-2.38-11.42-6.16-14.87-8.85,13.71,2.74,42.31,1.37,42.31,1.37-28.35-6.5-45.03-23.83-45.03-23.83,20.01,15.16,68.38,13,68.38,13-20.56-1.67-40.12-11.22-55.65-21.64.03,0,.06,0,.09,0,2.04-.02,3.34-.1,3.34-.1-.16-.06-.31-.12-.47-.18,11.19-1.33,18.44-4.83,18.44-4.83-15.96-.76-36.04-10.71-44.84-15.5,19.57,7.14,40.73,4.35,40.73,4.35l-17.51-9.01c2.18.13,3.65.13,3.65.13-7.82-.68-10.31-4.14-11.11-6.28h9.06c7.78.77,14.98.27,14.98.27-11.64-2.7-21.19-6.68-28.93-11.05,7.74-1.58,12.44-3.98,12.44-3.98-3.58-.17-7.32-.81-11.07-1.74,8.64-1.56,13.94-4.27,13.94-4.27-15.5-.74-34.12-10.15-42.87-15.07-1.01-1.75-1.02-2.28-.22-.95,3.62,6.01,42.35,4.01,42.35,4.01-24.42-6.01-38.79-22.03-38.79-22.03,17.24,14.02,58.9,12.02,58.9,12.02-45.97-4.01-86.19-57.09-74.7-46.07.94.9,2,1.73,3.17,2.49,13.06,8.53,38.49,8.53,38.49,8.53l-25.38-14.02h18.19c-30.17-4.01-55.13-45.84-55.13-45.84,0,0-26.13,52.99-55.22,56.86h18.19l-25.38,14.02s25.43,0,38.49-8.53c1.16-.76,2.23-1.59,3.17-2.49,11.49-11.02-28.73,42.07-74.7,46.07,0,0,41.66,2,58.9-12.02,0,0-14.36,16.03-38.78,22.03,0,0,38.73,2,42.35-4.01,3.62-6.01-9.31,26.04-56.71,37.06,0,0,7.21.5,14.98-.27h9.06c-.8,2.14-3.3,5.6-11.11,6.28,0,0,1.47,0,3.65-.13l-17.51,9.01s13.4,0,26.78-2.82c4.47-.09,11.59-.62,17.31-2.85-4.78,4.81-11.95,11.27-20.8,17.74-2.87,1.44-6,2.83-9.42,4.09,0,0,1.34.08,3.44.11-15.53,10.43-35.1,19.98-55.66,21.65,0,0,48.37,2.17,68.38-13,0,0-16.68,17.33-45.03,23.83,0,0,28.6,1.37,42.31-1.37-3.45,2.69-8.9,6.47-14.87,8.85h12.41c-9.86,9.54-27.7,22.02-56.53,28.26,0,0,16.68,1.08,28.35-2.17,0,0,0,7.58-13.34,8.67,0,0,16.68,0,23.35-4.33,0,0-3.34,7.58-13.34,10.83,0,0,20.01,1.08,30.02-5.42,0,0-11.67,16.25-40.03,26,0,0,18.35,1.08,28.35-3.25,0,0-3.34,6.5-15.01,10.83h7.44s-7.44,15.16-49.14,27.08c0,0,35.02,1.08,48.37-4.33,0,0-10.01,8.67-21.68,13h109.78l-.2-11.02h108.29c-11.67-4.33-21.68-13-21.68-13,13.34,5.42,48.37,4.33,48.37,4.33Z"/>
          <path class="cls-40" d="m891.82,983.82c-14.7-4.2-25.12-8.8-32.48-13,9-1.54,14.55-4.37,14.55-4.37-10.1-.48-21.53-4.65-30.69-8.86-.36-.54-.52-.85-.52-.85h7.44c-11.67-4.33-15.01-10.83-15.01-10.83,10.01,4.33,28.35,3.25,28.35,3.25-28.35-9.75-40.03-26-40.03-26,10.01,6.5,30.02,5.42,30.02,5.42-10.01-3.25-13.34-10.83-13.34-10.83,6.67,4.33,23.35,4.33,23.35,4.33-13.34-1.08-13.34-8.67-13.34-8.67,11.67,3.25,28.35,2.17,28.35,2.17-16.07-3.48-28.71-8.89-38.47-14.66,10.16-1.47,16.64-4.59,16.64-4.59-10.23-.49-22.15-4.75-31.72-9.01h9.43c-5.97-2.38-11.42-6.16-14.87-8.85,13.71,2.74,42.31,1.37,42.31,1.37-28.35-6.5-45.03-23.83-45.03-23.83,20.01,15.16,68.38,13,68.38,13-20.56-1.67-40.12-11.22-55.65-21.64.03,0,.06,0,.09,0,2.04-.02,3.34-.1,3.34-.1-.16-.06-.31-.12-.47-.18,11.19-1.33,18.44-4.83,18.44-4.83-15.96-.76-36.04-10.71-44.84-15.5,19.57,7.14,40.73,4.35,40.73,4.35l-17.51-9.01c2.18.13,3.65.13,3.65.13-7.82-.68-10.31-4.14-11.11-6.28h9.06c7.78.77,14.98.27,14.98.27-11.64-2.7-21.19-6.68-28.93-11.05,7.74-1.58,12.44-3.98,12.44-3.98-3.58-.17-7.32-.81-11.07-1.74,8.64-1.56,13.94-4.27,13.94-4.27-15.5-.74-34.12-10.15-42.87-15.07-1.01-1.75-1.02-2.28-.22-.95,3.62,6.01,42.35,4.01,42.35,4.01-24.42-6.01-38.79-22.03-38.79-22.03,17.24,14.02,58.9,12.02,58.9,12.02-45.97-4.01-86.19-57.09-74.7-46.07.94.9,2,1.73,3.17,2.49,13.06,8.53,38.49,8.53,38.49,8.53l-25.38-14.02h18.19c-30.17-4.01-55.13-45.84-55.13-45.84,0,0-26.13,52.99-55.22,56.86h18.19l-25.38,14.02s25.43,0,38.49-8.53c1.16-.76,2.23-1.59,3.17-2.49,11.49-11.02-28.73,42.07-74.7,46.07,0,0,41.66,2,58.9-12.02,0,0-14.36,16.03-38.78,22.03,0,0,38.73,2,42.35-4.01,3.62-6.01-9.31,26.04-56.71,37.06,0,0,7.21.5,14.98-.27h9.06c-.8,2.14-3.3,5.6-11.11,6.28,0,0,1.47,0,3.65-.13l-17.51,9.01s13.4,0,26.78-2.82c4.47-.09,11.59-.62,17.31-2.85-4.78,4.81-11.95,11.27-20.8,17.74-2.87,1.44-6,2.83-9.42,4.09,0,0,1.34.08,3.44.11-15.53,10.43-35.1,19.98-55.66,21.65,0,0,48.37,2.17,68.38-13,0,0-16.68,17.33-45.03,23.83,0,0,28.6,1.37,42.31-1.37-3.45,2.69-8.9,6.47-14.87,8.85h12.41c-9.86,9.54-27.7,22.02-56.53,28.26,0,0,16.68,1.08,28.35-2.17,0,0,0,7.58-13.34,8.67,0,0,16.68,0,23.35-4.33,0,0-3.34,7.58-13.34,10.83,0,0,20.01,1.08,30.02-5.42,0,0-11.67,16.25-40.03,26,0,0,18.35,1.08,28.35-3.25,0,0-3.34,6.5-15.01,10.83h7.44s-7.44,15.16-49.14,27.08c0,0,35.02,1.08,48.37-4.33,0,0-10.01,8.67-21.68,13h109.78l-.2-11.02h108.29c-11.67-4.33-21.68-13-21.68-13,13.34,5.42,48.37,4.33,48.37,4.33Z"/>
        </g>
      </g>
    </g>
  </g>
</svg>