<?xml version="1.0" encoding="UTF-8"?>
<svg xmlns="http://www.w3.org/2000/svg" xmlns:xlink="http://www.w3.org/1999/xlink" viewBox="0 0 324.96 289.35">
  <defs>
    <style>
      .cls-1 {
        fill: url(#_Áåçûìÿííûé_ãðàäèåíò_96);
      }

      .cls-1, .cls-2, .cls-3, .cls-4, .cls-5, .cls-6, .cls-7, .cls-8, .cls-9, .cls-10, .cls-11, .cls-12, .cls-13, .cls-14, .cls-15, .cls-16, .cls-17, .cls-18, .cls-19, .cls-20, .cls-21, .cls-22, .cls-23, .cls-24, .cls-25, .cls-26 {
        stroke-width: 0px;
      }

      .cls-2 {
        fill: url(#_Áåçûìÿííûé_ãðàäèåíò_6-2);
      }

      .cls-3 {
        fill: url(#_Áåçûìÿííûé_ãðàäèåíò_6-3);
      }

      .cls-4 {
        fill: url(#_Áåçûìÿííûé_ãðàäèåíò_37);
      }

      .cls-5 {
        fill: url(#_Áåçûìÿííûé_ãðàäèåíò_18-2);
      }

      .cls-5, .cls-14 {
        mix-blend-mode: screen;
      }

      .cls-27 {
        isolation: isolate;
      }

      .cls-6 {
        fill: url(#_Áåçûìÿííûé_ãðàäèåíò_12-2);
      }

      .cls-7 {
        fill: url(#_Áåçûìÿííûé_ãðàäèåíò_28);
      }

      .cls-8 {
        fill: url(#_Áåçûìÿííûé_ãðàäèåíò_6-9);
      }

      .cls-9 {
        fill: url(#_Áåçûìÿííûé_ãðàäèåíò_6);
      }

      .cls-10 {
        fill: url(#_Áåçûìÿííûé_ãðàäèåíò_38);
      }

      .cls-11 {
        fill: url(#_Áåçûìÿííûé_ãðàäèåíò_94);
      }

      .cls-12 {
        fill: url(#_Áåçûìÿííûé_ãðàäèåíò_6-4);
      }

      .cls-13 {
        fill: url(#_Áåçûìÿííûé_ãðàäèåíò_37-2);
      }

      .cls-14 {
        fill: url(#_Áåçûìÿííûé_ãðàäèåíò_18);
      }

      .cls-15 {
        fill: #fff;
      }

      .cls-16 {
        fill: url(#_Áåçûìÿííûé_ãðàäèåíò_49);
      }

      .cls-17 {
        fill: #eefdff;
      }

      .cls-18 {
        fill: url(#_Áåçûìÿííûé_ãðàäèåíò_12-3);
      }

      .cls-19 {
        fill: url(#_Áåçûìÿííûé_ãðàäèåíò_12);
      }

      .cls-20 {
        fill: url(#_Áåçûìÿííûé_ãðàäèåíò_6-6);
      }

      .cls-21 {
        fill: url(#_Áåçûìÿííûé_ãðàäèåíò_6-10);
      }

      .cls-22 {
        fill: url(#_Áåçûìÿííûé_ãðàäèåíò_6-5);
      }

      .cls-23 {
        fill: url(#_Áåçûìÿííûé_ãðàäèåíò_69);
        mix-blend-mode: soft-light;
      }

      .cls-24 {
        fill: url(#_Áåçûìÿííûé_ãðàäèåíò_6-8);
      }

      .cls-25 {
        fill: url(#_Áåçûìÿííûé_ãðàäèåíò_6-7);
      }

      .cls-26 {
        fill: url(#_Áåçûìÿííûé_ãðàäèåíò_6-11);
      }
    </style>
    <linearGradient id="_Áåçûìÿííûé_ãðàäèåíò_94" data-name="Áåçûìÿííûé ãðàäèåíò 94" x1="122.93" y1="78.5" x2="135.79" y2="113.4" gradientUnits="userSpaceOnUse">
      <stop offset="0" stop-color="#aef0eb"/>
      <stop offset=".01" stop-color="#b0f0ea"/>
      <stop offset=".14" stop-color="#c1f3ea"/>
      <stop offset=".29" stop-color="#cdf6ea"/>
      <stop offset=".5" stop-color="#d5f7ea"/>
      <stop offset="1" stop-color="#d7f8ea"/>
    </linearGradient>
    <linearGradient id="_Áåçûìÿííûé_ãðàäèåíò_37" data-name="Áåçûìÿííûé ãðàäèåíò 37" x1="107.89" y1="206.35" x2="186.79" y2="125.41" gradientTransform="translate(385.74 47.53) rotate(83.59)" gradientUnits="userSpaceOnUse">
      <stop offset=".04" stop-color="#06bed8"/>
      <stop offset="1" stop-color="#defa8e"/>
    </linearGradient>
    <linearGradient id="_Áåçûìÿííûé_ãðàäèåíò_6" data-name="Áåçûìÿííûé ãðàäèåíò 6" x1="238.28" y1="26.1" x2="252.97" y2="23.96" gradientUnits="userSpaceOnUse">
      <stop offset=".04" stop-color="#06cff1"/>
      <stop offset="1" stop-color="#defa8e"/>
    </linearGradient>
    <linearGradient id="_Áåçûìÿííûé_ãðàäèåíò_6-2" data-name="Áåçûìÿííûé ãðàäèåíò 6" x1="234.53" y1="63.42" x2="260.61" y2="33.97" xlink:href="#_Áåçûìÿííûé_ãðàäèåíò_6"/>
    <linearGradient id="_Áåçûìÿííûé_ãðàäèåíò_6-3" data-name="Áåçûìÿííûé ãðàäèåíò 6" x1="196.75" y1="165.42" x2="300.1" y2="62.07" xlink:href="#_Áåçûìÿííûé_ãðàäèåíò_6"/>
    <linearGradient id="_Áåçûìÿííûé_ãðàäèåíò_12" data-name="Áåçûìÿííûé ãðàäèåíò 12" x1="247.99" y1="126.76" x2="248.91" y2="85.43" gradientUnits="userSpaceOnUse">
      <stop offset="0" stop-color="#030d14"/>
      <stop offset="1" stop-color="#0b2f45"/>
    </linearGradient>
    <radialGradient id="_Áåçûìÿííûé_ãðàäèåíò_18" data-name="Áåçûìÿííûé ãðàäèåíò 18" cx="224" cy="105.78" fx="224" fy="105.78" r="17.18" gradientUnits="userSpaceOnUse">
      <stop offset=".13" stop-color="#3280fc"/>
      <stop offset="1" stop-color="#000"/>
    </radialGradient>
    <linearGradient id="_Áåçûìÿííûé_ãðàäèåíò_12-2" data-name="Áåçûìÿííûé ãðàäèåíò 12" x1="213.53" y1="105.78" x2="234.46" y2="105.78" xlink:href="#_Áåçûìÿííûé_ãðàäèåíò_12"/>
    <radialGradient id="_Áåçûìÿííûé_ãðàäèåíò_18-2" data-name="Áåçûìÿííûé ãðàäèåíò 18" cx="270.89" fx="270.89" r="17.18" xlink:href="#_Áåçûìÿííûé_ãðàäèåíò_18"/>
    <linearGradient id="_Áåçûìÿííûé_ãðàäèåíò_12-3" data-name="Áåçûìÿííûé ãðàäèåíò 12" x1="260.43" y1="105.78" x2="281.36" y2="105.78" xlink:href="#_Áåçûìÿííûé_ãðàäèåíò_12"/>
    <linearGradient id="_Áåçûìÿííûé_ãðàäèåíò_6-4" data-name="Áåçûìÿííûé ãðàäèåíò 6" x1="235.05" y1="8.36" x2="254.5" y2="5.52" xlink:href="#_Áåçûìÿííûé_ãðàäèåíò_6"/>
    <linearGradient id="_Áåçûìÿííûé_ãðàäèåíò_28" data-name="Áåçûìÿííûé ãðàäèåíò 28" x1="247.63" y1="142.81" x2="277.55" y2="112.89" gradientUnits="userSpaceOnUse">
      <stop offset=".07" stop-color="#0da9ab"/>
      <stop offset="1" stop-color="#defa8e"/>
    </linearGradient>
    <linearGradient id="_Áåçûìÿííûé_ãðàäèåíò_49" data-name="Áåçûìÿííûé ãðàäèåíò 49" x1="219.37" y1="233.62" x2="298.65" y2="141.04" gradientUnits="userSpaceOnUse">
      <stop offset=".04" stop-color="#06cff1"/>
      <stop offset=".04" stop-color="#06cff0"/>
      <stop offset=".16" stop-color="#36d8da"/>
      <stop offset=".27" stop-color="#5ce0c9"/>
      <stop offset=".38" stop-color="#77e5bd"/>
      <stop offset=".47" stop-color="#88e8b5"/>
      <stop offset=".54" stop-color="#8eeab3"/>
      <stop offset=".8" stop-color="#b9f29e"/>
      <stop offset="1" stop-color="#defa8e"/>
    </linearGradient>
    <linearGradient id="_Áåçûìÿííûé_ãðàäèåíò_6-5" data-name="Áåçûìÿííûé ãðàäèåíò 6" x1="215.17" y1="187.46" x2="262.85" y2="131.79" xlink:href="#_Áåçûìÿííûé_ãðàäèåíò_6"/>
    <linearGradient id="_Áåçûìÿííûé_ãðàäèåíò_38" data-name="Áåçûìÿííûé ãðàäèåíò 38" x1="360.96" y1="235.75" x2="426.18" y2="201.76" gradientTransform="translate(709.94 41.06) rotate(-171.34) scale(1 -1)" gradientUnits="userSpaceOnUse">
      <stop offset=".04" stop-color="#06cff1"/>
      <stop offset=".07" stop-color="#0fd0ec"/>
      <stop offset=".42" stop-color="#66e2c4"/>
      <stop offset=".69" stop-color="#a7efa7"/>
      <stop offset=".9" stop-color="#cef694"/>
      <stop offset="1" stop-color="#defa8e"/>
    </linearGradient>
    <linearGradient id="_Áåçûìÿííûé_ãðàäèåíò_37-2" data-name="Áåçûìÿííûé ãðàäèåíò 37" x1="265.3" y1="215.58" x2="307.37" y2="193.66" gradientTransform="matrix(1,0,0,1,0,0)" xlink:href="#_Áåçûìÿííûé_ãðàäèåíò_37"/>
    <radialGradient id="_Áåçûìÿííûé_ãðàäèåíò_69" data-name="Áåçûìÿííûé ãðàäèåíò 69" cx="249.94" cy="140.67" fx="249.94" fy="140.67" r="48.49" gradientTransform="translate(-2.23 210.98) scale(1.01 .41)" gradientUnits="userSpaceOnUse">
      <stop offset="0" stop-color="#bcd7d6"/>
      <stop offset="1" stop-color="#fff"/>
    </radialGradient>
    <linearGradient id="_Áåçûìÿííûé_ãðàäèåíò_96" data-name="Áåçûìÿííûé ãðàäèåíò 96" x1="0" y1="47.46" x2="161.97" y2="47.46" gradientUnits="userSpaceOnUse">
      <stop offset="0" stop-color="#d7f8ea"/>
      <stop offset=".51" stop-color="#ecf8f2"/>
      <stop offset="1" stop-color="#d7f8ea"/>
    </linearGradient>
    <linearGradient id="_Áåçûìÿííûé_ãðàäèåíò_6-6" data-name="Áåçûìÿííûé ãðàäèåíò 6" x1="25.94" y1="49.66" x2="156.69" y2="21.9" gradientTransform="translate(-2.66 4.77) rotate(-2.63)" xlink:href="#_Áåçûìÿííûé_ãðàäèåíò_6"/>
    <linearGradient id="_Áåçûìÿííûé_ãðàäèåíò_6-7" data-name="Áåçûìÿííûé ãðàäèåíò 6" x1="28.15" y1="60.06" x2="158.9" y2="32.3" gradientTransform="translate(-2.66 4.77) rotate(-2.63)" xlink:href="#_Áåçûìÿííûé_ãðàäèåíò_6"/>
    <linearGradient id="_Áåçûìÿííûé_ãðàäèåíò_6-8" data-name="Áåçûìÿííûé ãðàäèåíò 6" x1="27.91" y1="58.91" x2="158.65" y2="31.15" gradientTransform="translate(-2.66 4.77) rotate(-2.63)" xlink:href="#_Áåçûìÿííûé_ãðàäèåíò_6"/>
    <linearGradient id="_Áåçûìÿííûé_ãðàäèåíò_6-9" data-name="Áåçûìÿííûé ãðàäèåíò 6" x1="28.48" y1="61.58" x2="159.22" y2="33.82" gradientTransform="translate(-2.66 4.77) rotate(-2.63)" xlink:href="#_Áåçûìÿííûé_ãðàäèåíò_6"/>
    <linearGradient id="_Áåçûìÿííûé_ãðàäèåíò_6-10" data-name="Áåçûìÿííûé ãðàäèåíò 6" x1="30.27" y1="70.03" x2="161.02" y2="42.27" gradientTransform="translate(-2.66 4.77) rotate(-2.63)" xlink:href="#_Áåçûìÿííûé_ãðàäèåíò_6"/>
    <linearGradient id="_Áåçûìÿííûé_ãðàäèåíò_6-11" data-name="Áåçûìÿííûé ãðàäèåíò 6" x1="30.07" y1="69.1" x2="160.82" y2="41.34" gradientTransform="translate(-2.66 4.77) rotate(-2.63)" xlink:href="#_Áåçûìÿííûé_ãðàäèåíò_6"/>
  </defs>
  <g class="cls-27">
    <g id="_Ñëîé_5" data-name="Ñëîé 5">
      <g>
        <path class="cls-11" d="m142.44,80.8s2.07,27.96,13.71,34.55c0,0-37.35-6.45-46.54-20.44-9.19-13.99,32.83-14.11,32.83-14.11Z"/>
        <path class="cls-4" d="m179.64,163.29c23.02,6.3,28.46,4.54,32.56,10.71.47.71,2.88,4.33,2.39,8.97-.38,3.7-2.45,6.56-3.74,7.81-7.88,7.63-29.58-1.7-42.01-11.92-2.71-2.23-9.98-8.2-8.51-12.44.6-1.74,2.46-2.6,3.8-3.2,5.91-2.64,12.04-.89,15.51.06Z"/>
        <rect class="cls-9" x="245.81" y="8.57" width="4.9" height="32.15"/>
        <rect class="cls-2" x="226.83" y="37.35" width="42.87" height="21.13" rx="4.52" ry="4.52"/>
        <path class="cls-3" d="m234.48,47.46h27.56c34.73,0,62.92,28.19,62.92,62.92v18.37c0,19.52-15.85,35.36-35.36,35.36h-82.67c-19.52,0-35.36-15.85-35.36-35.36v-18.37c0-34.73,28.19-62.92,62.92-62.92Z"/>
        <path class="cls-19" d="m300.83,125.4h0c-2.01.99-4.26,1.51-6.54,1.51h-92.05c-2.29,0-4.54-.52-6.54-1.51h0c-4.93-2.44-7.71-7.36-7.02-12.41l.05-.37c2.36-17.1,17.85-30.25,36.83-31.23,8.03-.42,16.46-.63,25.26-.58,6.89.04,13.55.24,19.96.57,19.06.98,34.66,14.08,37.03,31.24.02.12.03.25.05.37.7,5.05-2.09,9.97-7.02,12.41Z"/>
        <g>
          <circle class="cls-14" cx="224" cy="105.78" r="17.36"/>
          <circle class="cls-17" cx="224" cy="105.78" r="12.46"/>
          <circle class="cls-6" cx="224" cy="105.78" r="10.46"/>
          <path class="cls-17" d="m230.7,103.07c0,2.14-1.74,3.88-3.88,3.88s-3.88-1.74-3.88-3.88,1.74-3.88,3.88-3.88,3.88,1.74,3.88,3.88Z"/>
          <circle class="cls-17" cx="222.45" cy="113.81" r="1.55"/>
          <path class="cls-17" d="m218.62,111.49c0,.43-.35.77-.77.77s-.77-.35-.77-.77.35-.77.77-.77.77.35.77.77Z"/>
        </g>
        <g>
          <circle class="cls-5" cx="270.89" cy="105.78" r="17.36"/>
          <circle class="cls-17" cx="270.89" cy="105.78" r="12.46"/>
          <circle class="cls-18" cx="270.89" cy="105.78" r="10.46"/>
          <path class="cls-17" d="m277.59,103.07c0,2.14-1.74,3.88-3.88,3.88s-3.88-1.74-3.88-3.88,1.74-3.88,3.88-3.88,3.88,1.74,3.88,3.88Z"/>
          <circle class="cls-17" cx="269.34" cy="113.81" r="1.55"/>
          <path class="cls-17" d="m265.51,111.49c0,.43-.35.77-.77.77s-.77-.35-.77-.77.35-.77.77-.77.77.35.77.77Z"/>
        </g>
        <path class="cls-12" d="m254.54,6.43c0,3.47-2.81,6.28-6.28,6.28s-6.28-2.81-6.28-6.28,2.81-6.28,6.28-6.28,6.28,2.81,6.28,6.28Z"/>
        <path class="cls-15" d="m252.62,3.98c0,1.06-.86,1.91-1.91,1.91s-1.91-.86-1.91-1.91.86-1.91,1.91-1.91,1.91.86,1.91,1.91Z"/>
        <path class="cls-15" d="m302.3,67.58c.08,2.93-2.31,6.43-5.05,6.73-2.57.28-4.62-2.34-6.73-5.05-2.08-2.67-6.64-9.52-4.83-11.46,2.39-2.56,16.42,2.86,16.61,9.77Z"/>
        <circle class="cls-15" cx="278.84" cy="54.23" r="2.18"/>
        <path class="cls-15" d="m301.99,108.23c-.7.49-5.58-9.45-18.68-18.06-4.6-3.03-9.15-5.19-8.88-5.82.27-.64,5.39.55,9.49,2.45,13.06,6.06,18.9,20.85,18.06,21.43Z"/>
        <path class="cls-15" d="m268.45,43.61c-.16.02-.26-.89-1.02-2.31,0,0-.36-.66-.77-1.22-1.32-1.81-5.77-1.77-6.12-1.77-6.94.06-11.41-.38-11.41-.34,0,.04,3.26-.03,5.64-.08,6.73-.14,10.74-.5,12.46,1.3.71.75,1.07,1.72,1.07,1.72.49,1.32.32,2.67.14,2.69Z"/>
        <path class="cls-17" d="m267.01,134.36c-.17,1.66-1.55,2.94-3.22,3.1l-22.99,2.22c-1.66.16-3.27-.83-3.75-2.43-.22-.71-.38-1.44-.49-2.2-.03-.21.02-.42.15-.59.13-.17.32-.27.53-.29l29.01-2.8c.21-.02.41.05.57.18.16.14.25.33.26.54.03.76.01,1.52-.06,2.26Z"/>
        <path class="cls-7" d="m267.01,134.36c-.73,7.13-6.4,12.99-13.81,13.7-7.3.71-13.9-3.82-16.06-10.53.58,1.43,2.09,2.31,3.66,2.15l23-2.21c1.66-.17,3.04-1.44,3.21-3.1Z"/>
        <path class="cls-16" d="m303.24,186c0,.21,0,.41,0,.61-.07,1.93-.52,3.38-.74,4.03-6.33,19.33-10.12,29.53-15.44,37.78-.92,1.42-1.88,2.79-2.92,4.13-1.36,1.79-2.85,3.54-4.5,5.34-3.67,4-9.23,5.81-11.02,6.43-6.55,2.31-12.34,1.89-16.18,1.93h-.67c-3.86-.04-9.64.39-16.18-1.93-1.79-.62-7.36-2.43-11.02-6.43-10.1-10.99-13.99-20.13-22.86-47.25-.21-.62-.63-1.97-.73-3.78-.03-.52-.04-1.05,0-1.57.19-3.24,1.51-6.42,3.84-9.32,4-4.98,10.17-7.71,16.55-7.73l30.76-.13,30.2-.12c6.52-.03,12.84,2.71,16.98,7.75,2,2.44,3.28,5.08,3.75,7.8.06.39.12.78.16,1.17.04.43.06.86.06,1.3Z"/>
        <path class="cls-22" d="m252.08,168.1l-30.76.13c-6.38.03-12.56,2.76-16.55,7.73-2.33,2.9-3.65,6.08-3.84,9.32.16-3.32,1.52-6.59,3.96-9.55,4.13-5.04,10.46-7.78,16.98-7.75l30.21.12Z"/>
        <path class="cls-10" d="m282.65,213.42c-.45-23.86-3.68-28.58,1.08-34.26.55-.65,3.34-3.98,7.93-4.83,3.66-.68,6.98.49,8.55,1.39,9.55,5.41,6.71,28.86.43,43.66-1.37,3.23-5.05,11.89-9.53,11.68-1.84-.08-3.19-1.63-4.14-2.74-4.21-4.92-4.25-11.3-4.32-14.9Z"/>
        <path class="cls-13" d="m287.04,228.42c-.92,1.42-1.88,2.79-2.92,4.13-.33-.34-.62-.68-.89-.99-4.21-4.92-4.25-11.3-4.32-14.9-.45-23.86-3.68-28.58,1.08-34.25.35-.42,1.63-1.94,3.7-3.2-4.7,5.66-1.5,10.42-1.05,34.21.06,3.6.12,9.98,4.32,14.91.03.03.06.06.07.09Z"/>
        <path class="cls-15" d="m300.51,193.55c-.14-2.56-.62-4.45-1.58-8.22-1.26-4.93-2.84-7.34-1.81-8.29.67-.62,1.98-.2,2.28-.11,4.51,1.44,5.91,9.9,5.71,15.2-.12,3.24-.91,6.87-2.1,7.03-.19.03-.65,0-.99-.29-1.33-1.17-1.41-3.36-1.52-5.31Z"/>
        <path class="cls-15" d="m303.61,202.6c0,.52-.42.94-.94.94s-.94-.42-.94-.94.42-.94.94-.94.94.42.94.94Z"/>
        <ellipse class="cls-23" cx="250.71" cy="269.26" rx="49.07" ry="20.09"/>
        <rect class="cls-1" x="0" y="0" width="161.97" height="94.91" rx="47.46" ry="47.46"/>
        <g>
          <path class="cls-20" d="m50.91,65.62c.03.55-1.58.89-4.83,1.04-3.24.15-4.88-.05-4.9-.6l-.51-11.08-6.74.31.51,11.08c.03.55-1.58.89-4.83,1.04-3.24.15-4.88-.05-4.9-.6l-1.47-31.94c-.03-.67,1.57-1.09,4.82-1.24,3.24-.15,4.88.11,4.91.79l.52,11.32,6.74-.31-.52-11.22c-.02-.45.77-.81,2.36-1.07.83-.1,1.65-.17,2.45-.21l2.46-.02c1.61.12,2.43.4,2.45.85l1.46,31.84Z"/>
          <path class="cls-25" d="m73.67,64.09c-1.97,1.28-4.54,2-7.72,2.14-3.18.15-5.91-.81-8.19-2.88-2.28-2.07-3.51-5.02-3.69-8.86-.18-3.84.73-6.98,2.73-9.42,2-2.44,4.6-3.74,7.81-3.88,3.21-.15,5.73.56,7.56,2.11,1.83,1.56,2.79,3.51,2.9,5.85.24,5.2-2.63,7.94-8.6,8.22l-3.32.15c.04.96.34,1.62.89,1.96.55.35,1.33.49,2.36.45,2.25-.1,4.36-.71,6.34-1.84.03-.03.18.18.46.65.83,1.35,1.27,2.49,1.32,3.44.04.95-.23,1.58-.83,1.9Zm-6.66-13.65c-.06-1.35-.75-1.99-2.07-1.93-.61.03-1.12.24-1.54.63-.42.39-.61.94-.58,1.64l.07,1.49,2.6-.12c1.06-.05,1.56-.62,1.51-1.71Z"/>
          <path class="cls-24" d="m87.68,64.36c.01.29-1.62.51-4.89.66-2.57.09-3.86.02-3.87-.21l-1.51-32.81c-.02-.48,1.52-.79,4.64-.94,2.73-.03,4.11.07,4.12.29l1.52,33Z"/>
          <path class="cls-8" d="m100.78,63.76c.01.29-1.62.51-4.89.66-2.57.09-3.86.02-3.87-.21l-1.51-32.81c-.02-.48,1.52-.79,4.64-.94,2.73-.03,4.11.07,4.12.29l1.52,33Z"/>
          <path class="cls-21" d="m107.1,61.01c-2.11-2.12-3.25-5.14-3.43-9.06-.18-3.92.68-7.03,2.59-9.34,1.91-2.31,4.56-3.54,7.96-3.7,3.4-.16,6.15.83,8.25,2.95,2.09,2.12,3.23,5.15,3.41,9.06.18,3.92-.67,7.03-2.56,9.34-1.89,2.31-4.54,3.54-7.94,3.7-3.4.16-6.16-.83-8.27-2.95Zm7.51-14.06c-1.81.08-2.65,1.6-2.52,4.56.14,2.95,1.11,4.39,2.93,4.31,1.81-.08,2.65-1.6,2.52-4.56-.14-2.95-1.11-4.39-2.93-4.31Z"/>
          <path class="cls-26" d="m129.52,55.58c-.01-.22,1.47-.41,4.44-.54,2.97-.14,4.46-.11,4.47.08l.32,6.94c.01.32-1.46.55-4.43.69-2.97.14-4.46.11-4.47-.08l-.33-7.08Zm7.82-3.26c0,.19-1.14.34-3.43.45-2.3.11-3.45.08-3.46-.08l-2.05-23.7c-.01-.26,1.45-.45,4.39-.59,2.94-.14,4.41-.09,4.42.13l.13,23.79Z"/>
        </g>
        <path class="cls-15" d="m136.11,47.73s-1.9-17.2-.95-17.67c.94-.47,1.39,8.93.95,17.67Z"/>
        <path class="cls-15" d="m137.99,56.41c0,.57-.46,1.03-1.03,1.03s-1.03-.46-1.03-1.03.46-1.03,1.03-1.03,1.03.46,1.03,1.03Z"/>
        <path class="cls-15" d="m124.46,48.88c0-.96-.11-3.69-2.09-5.91-1.71-1.9-3.99-2.53-5.03-2.41-.2.02-.87.14-.91.42-.09.58,2.65.99,4.71,2.53,1.15.86,2.51,2.4,3.33,5.37Z"/>
        <path class="cls-15" d="m97.74,31.07c1.06-.01,1.46,19.28,1.15,22.77-.31,3.49-1.57-22.76-1.15-22.77Z"/>
        <path class="cls-15" d="m73.88,47.58c-.46-2.61-3.44-5.54-5.3-5.08-1.86.46,2.2,1.87,3.66,3.13s1.64,1.95,1.64,1.95Z"/>
        <path class="cls-15" d="m57.56,62.44c2.16,2.39,5.24,2.86,5.29,2.75.05-.11-3.38-.57-5.18-3.31-.85-1.29-1.69-3.63-2.24-3.63-.01,0-.04,0-.05.02-.29.21.81,2.64,2.19,4.17Z"/>
        <path class="cls-15" d="m49.65,61.95c-.69.95-.78-23.39-1.22-25.77v-.16c0-.16-.02-.47-.03-1.09,0-.14-.13-.62-.24-.72-.9-.82-4.87-.41-3.18-.63,1.49-.19,3.22-.05,3.65.11.19.07.2.44.25.58.86,4.82,1.68,26.43.76,27.68Z"/>
      </g>
      <path class="cls-15" d="m156.02,35.69c-1.05.78-8.39-13.43-26.72-23.16-10.31-5.48-18.72-6.68-18.5-7.68.26-1.17,12.28-1.6,23.18,3.85,16.37,8.19,23.19,26.14,22.05,26.99Z"/>
      <circle class="cls-15" cx="157.39" cy="41.17" r="1.25"/>
      <ellipse class="cls-15" cx="59.17" cy="5.06" rx="8.8" ry="2"/>
      <path class="cls-15" d="m78.75,5.06c0,.6-1.07,1.08-2.38,1.08s-2.38-.48-2.38-1.08,1.07-1.08,2.38-1.08,2.38.48,2.38,1.08Z"/>
      <path class="cls-15" d="m32.59,40.37c.17,3.07.15,5.56-.06,5.57-.21.01-.51-2.47-.69-5.53-.17-3.07-.15-5.56.06-5.57.21-.01.51,2.47.69,5.53Z"/>
      <path class="cls-15" d="m144.63,101.04c1.43,4.02,2.93,6.37,2.58,6.58-.39.24-2.97-2.31-4.5-5.67-2.68-5.87-1.24-12.23-.67-12.25.48-.02.14,4.46,2.58,11.33Z"/>
    </g>
  </g>
</svg>