<?xml version="1.0" encoding="utf-8"?>
<!-- Generator: Adobe Illustrator 28.0.0, SVG Export Plug-In . SVG Version: 6.00 Build 0)  -->
<svg version="1.1" id="Calque_1" xmlns="http://www.w3.org/2000/svg" xmlns:xlink="http://www.w3.org/1999/xlink" x="0px" y="0px"
	 viewBox="0 0 1690.2 296.6" style="enable-background:new 0 0 1690.2 296.6;" xml:space="preserve">
<style type="text/css">
	.st0{fill:#353535;}
	.st1{fill:#D4BB9D;}
</style>
<path class="st0" d="M40.2,296.6H0V0h40.2V296.6z"/>
<path class="st0" d="M409.6,0v296.6h-20.1c-3.2,0-5.8-0.5-8-1.7c-2.1-1.1-4.2-3-6.3-5.6L203.7,65.8c0.3,3.4,0.5,6.8,0.6,10.1
	s0.2,6.4,0.2,9.3v211.4h-35.2V0H190c1.8,0,3.3,0.1,4.6,0.3s2.4,0.6,3.3,1c1,0.5,1.9,1.2,2.9,2.1c1,0.9,2,2,3.1,3.4l171.6,223.4
	c-0.3-3.6-0.5-7.1-0.7-10.4c-0.2-3.4-0.3-6.6-0.3-9.6V0H409.6z"/>
<path class="st0" d="M795.9,148.4c0,22.2-3.5,42.4-10.6,60.7s-17,33.8-29.8,46.8c-12.8,13-28.3,23-46.3,30.1
	c-18,7.1-37.9,10.7-59.7,10.7H538.8V0h110.8c21.8,0,41.7,3.5,59.7,10.7c18,7.1,33.4,17.2,46.3,30.2s22.8,28.7,29.8,46.9
	S795.9,126.2,795.9,148.4L795.9,148.4z M754.7,148.4c0-18.2-2.5-34.5-7.5-48.8c-5-14.3-12-26.5-21.1-36.4
	C717,53.2,706,45.6,693,40.4c-13-5.2-27.5-7.9-43.5-7.9H579v231.6h70.6c16,0,30.5-2.6,43.5-7.9c13-5.2,24-12.8,33.1-22.7
	s16.2-22,21.1-36.3C752.2,182.9,754.7,166.6,754.7,148.4L754.7,148.4z"/>
<path class="st1" d="M1090.1,263.9l-0.2,32.7H907.1V0h182.8v32.7H947.2v98.5h115.5v31.5H947.2v101.2L1090.1,263.9L1090.1,263.9z"/>
<path class="st0" d="M1382.6,263.9l-0.2,32.7h-182.8V0h182.8v32.7h-142.6v98.5h115.5v31.5h-115.5v101.2L1382.6,263.9L1382.6,263.9z"
	/>
<path class="st0" d="M1579.6,0c18.8,0,35.1,2.2,49,6.5s25.4,10.5,34.5,18.5c9.1,8,15.9,17.7,20.4,29c4.5,11.3,6.7,23.9,6.7,37.9
	s-2.4,26.4-7.2,37.9c-4.8,11.5-11.9,21.3-21.2,29.6s-20.8,14.7-34.6,19.4c-13.7,4.6-29.6,6.9-47.5,6.9H1532v110.9h-39.9V0H1579.6
	L1579.6,0z M1579.6,153.8c11.4,0,21.6-1.5,30.3-4.6c8.8-3,16.2-7.3,22.2-12.7s10.5-12,13.6-19.6c3-7.6,4.6-15.9,4.6-25.1
	c0-18.9-5.8-33.7-17.5-44.3c-11.7-10.6-29.4-15.9-53.1-15.9H1532v122.1H1579.6L1579.6,153.8z"/>
</svg>
